<svg width="16" height="21" viewBox="0 0 16 21" fill="none" xmlns="http://www.w3.org/2000/svg">
<path d="M13.2035 19.8027H2.25895C1.28873 19.8027 0.5 19.0146 0.5 18.0453L1.25383 7.11088C1.25383 6.14156 2.04257 5.35356 3.01278 5.35356H12.4427C13.4129 5.35356 14.2016 6.14156 14.2016 7.11088L14.9555 18.0453C14.9555 19.0146 14.1667 19.8027 13.1965 19.8027H13.2035Z" stroke="black" stroke-miterlimit="10"/>
<path d="M10.7954 7.341C10.7954 9.02859 9.42732 10.4024 7.73119 10.4024C6.03506 10.4024 4.66699 9.03556 4.66699 7.341" stroke="black" stroke-miterlimit="10" stroke-linecap="round"/>
<path d="M11.4098 4.16806C11.4098 2.13877 9.76254 0.5 7.73835 0.5C5.71416 0.5 4.06689 2.14575 4.06689 4.16806C4.06689 4.57252 4.15065 4.94909 4.26931 5.31172H11.2144C11.333 4.94909 11.4168 4.56555 11.4168 4.16806H11.4098Z" stroke="black" stroke-miterlimit="10"/>
</svg>
