<svg width="127" height="127" viewBox="0 0 127 127" fill="none" xmlns="http://www.w3.org/2000/svg">
<path d="M63.4874 126.458C98.5506 126.458 126.975 98.1491 126.975 63.2288C126.975 28.3085 98.5506 0 63.4874 0C28.4243 0 0 28.3085 0 63.2288C0 98.1491 28.4243 126.458 63.4874 126.458Z" fill="#F6E8E2"/>
<mask id="mask0_110_66" style="mask-type:luminance" maskUnits="userSpaceOnUse" x="0" y="0" width="127" height="127">
<path d="M63.4876 126.396C98.5167 126.396 126.913 98.1152 126.913 63.2288C126.913 28.3424 98.5167 0.0613861 63.4876 0.0613861C28.4585 0.0613861 0.0617676 28.3424 0.0617676 63.2288C0.0617676 98.1152 28.4585 126.396 63.4876 126.396Z" fill="white"/>
</mask>
<g mask="url(#mask0_110_66)">
<path d="M134.988 100.982C135.296 100.123 135.481 99.2631 135.543 98.3423C135.666 93.3699 131.659 89.1342 126.174 88.0292C126.174 87.9678 126.174 87.9065 126.174 87.8451C126.297 82.1974 121.058 77.4093 114.401 77.2251C110.209 77.1023 106.449 78.8211 104.23 81.5222C102.689 80.8469 100.964 80.4172 99.0528 80.3558C92.3959 80.1717 86.8484 84.6529 86.7251 90.3006C86.7251 91.7125 87.0333 93.1244 87.5881 94.3521C81.9173 95.0888 79.0204 99.3245 78.8971 104.358C78.7738 110.006 85.9238 116.206 92.5808 116.39C93.0739 116.39 93.567 116.39 93.9985 116.329C96.7105 121.608 100.162 123.879 108.175 124.064C114.401 124.248 116.928 122.406 120.565 119.091C122.907 119.582 125.865 119.644 127.406 119.644C134.063 119.521 139.426 115.469 139.549 109.76C139.672 106.2 138.07 102.824 134.865 100.921L134.988 100.982Z" fill="#3C9D7B"/>
<path d="M-12.3276 -0.122777C-12.3276 -21.7925 3.88323 -45.6721 23.9157 -45.6721C43.9481 -45.6721 60.159 -21.7925 60.159 -0.122777C60.159 21.5469 43.9481 32.7808 23.9157 32.7808C3.88323 32.7808 -12.3276 21.5469 -12.3276 -0.122777Z" fill="#F6BC3B"/>
<path d="M15.3479 152.424C15.3479 130.755 31.5588 106.875 51.5912 106.875C71.6236 106.875 87.8345 130.755 87.8345 152.424C87.8345 174.094 71.6236 185.328 51.5912 185.328C31.5588 185.328 15.3479 174.094 15.3479 152.424Z" fill="#F6BC3B"/>
<path d="M98.1898 -43.2166C92.704 -43.7077 87.2182 -43.4008 80.253 -38.7967C70.0211 -32.0441 75.322 -19.337 75.0754 -6.87538C74.8905 2.57825 67.8637 23.6341 74.459 29.0361C77.1095 31.2461 82.0405 32.1669 86.047 32.4738C101.025 33.8243 118.777 29.7728 126.79 4.54264C132.707 -13.8735 119.393 -41.375 98.1898 -43.278V-43.2166Z" fill="#83AED9"/>
<path d="M58.1248 41.8047C50.4817 41.2522 43.4549 47.9434 40.3113 57.6426C34.8872 49.5395 26.8126 45.1196 19.7858 47.4523C10.5401 50.4603 6.59521 63.7813 10.9715 77.1637C15.3478 90.5461 26.4427 99.0175 35.6885 96.0096C37.2911 95.5185 38.7087 94.659 39.9415 93.6155C41.3592 95.2729 43.8247 95.8868 45.6739 95.5798C47.9545 95.1501 49.3105 94.4135 50.6049 91.8966C51.8377 92.3877 53.0705 92.6946 54.4265 92.8174C64.1037 93.4927 72.7947 82.6885 73.8426 68.6309C74.8288 54.5732 67.802 42.6027 58.1248 41.9274V41.8047Z" fill="#F15C45"/>
<path d="M38.7087 70.9636C39.3555 70.9636 39.8799 70.4414 39.8799 69.7972C39.8799 69.1531 39.3555 68.6309 38.7087 68.6309C38.0619 68.6309 37.5376 69.1531 37.5376 69.7972C37.5376 70.4414 38.0619 70.9636 38.7087 70.9636Z" fill="#1E3464"/>
<path d="M43.5781 73.2349C42.2837 73.2349 41.2975 72.3755 41.2358 72.3755C40.9276 72.1299 40.9276 71.7002 41.1742 71.3933C41.4207 71.0864 41.9139 71.0863 42.1604 71.3319C42.1604 71.3319 42.9617 72.0072 43.763 71.823C44.3177 71.7616 44.7492 71.3319 45.1807 70.6566C45.3656 70.2883 45.7971 70.2269 46.1669 70.4111C46.4751 70.5953 46.5984 71.025 46.4134 71.3933C45.7971 72.4983 44.9341 73.1121 44.0096 73.2963C43.8246 73.2963 43.7014 73.2963 43.5781 73.2963V73.2349Z" fill="#1E3464"/>
<path d="M47.8928 66.7279L46.5984 68.0784L48.2626 68.8764" stroke="#1E3464" stroke-width="0.2" stroke-linecap="round" stroke-linejoin="round"/>
<path d="M86.6018 49.7236H86.3552C86.3552 49.7236 86.2319 49.7236 86.1087 49.7236C85.9238 49.7236 85.7388 49.8464 85.4306 49.9078C85.0608 50.0306 84.8143 50.092 84.5677 50.092C84.5061 50.092 84.3212 50.092 83.9513 50.092C83.8281 50.092 83.5199 50.092 83.0268 49.9692C82.472 49.9692 82.1022 49.8464 81.9789 49.8464C81.7324 49.8464 81.5474 49.785 81.3625 49.785C80.9927 49.785 80.7461 49.9078 80.5612 50.1533C80.3763 50.3375 80.3147 50.5217 80.1914 50.7672C80.1298 50.9514 80.0681 51.3197 80.0681 51.688V51.9336C80.0681 52.8544 80.1914 53.5296 80.4379 54.0207C80.6845 54.5118 81.0543 54.696 81.4242 54.696C81.5474 54.696 81.7323 54.696 81.9173 54.5732C82.0405 54.5732 82.1022 54.5118 82.1638 54.4504C82.1638 54.4504 82.1638 54.3277 82.1638 54.2663C82.1638 54.2049 82.1638 54.1435 82.1638 54.0207C82.1638 53.898 82.1638 53.7752 82.1638 53.591C82.1638 53.4069 82.1638 53.3455 82.1638 53.2841C82.1638 52.5474 82.3487 52.1177 82.6569 51.9336C82.7186 51.9336 82.8418 51.9336 82.9035 51.9336C83.15 51.9336 83.3349 52.0563 83.4582 52.3019C83.4582 52.3633 83.5199 52.4247 83.5199 52.4861C83.5199 52.5474 83.5199 52.7316 83.5199 52.9158C83.5199 53.2227 83.5199 53.5296 83.4582 53.8366C83.4582 53.9593 83.4582 54.1435 83.4582 54.2663C83.4582 54.3891 83.5199 54.5118 83.6431 54.6346C83.828 54.7574 84.013 54.8188 84.1979 54.8188C84.3828 54.8188 84.6293 54.7574 84.7526 54.6346C84.8759 54.5118 84.9375 54.4504 84.9992 54.3891C84.9992 54.3277 84.9992 54.2049 84.9992 54.0207C84.9992 54.0207 84.9992 54.0207 84.9992 53.9593C84.9992 53.898 84.9992 53.8366 84.9992 53.7752C84.9992 53.7138 84.9992 53.6524 84.9992 53.5296C84.9992 53.4683 84.9992 53.3455 84.9992 53.2841C84.9992 53.2227 84.9992 53.1613 84.9992 53.0999C84.9992 53.0385 84.9992 53.0385 84.9992 53.0385C84.9992 52.9158 84.9992 52.793 84.9992 52.7316C84.9992 52.6088 85.1225 52.4861 85.2457 52.3633C85.369 52.2405 85.4923 52.2405 85.6156 52.2405C85.8005 52.2405 85.9238 52.3019 86.047 52.4247C86.1087 52.4861 86.2319 52.6088 86.2319 52.7316C86.2319 52.8544 86.2319 52.9772 86.2319 53.2227C86.2319 53.4069 86.2319 53.4683 86.2319 53.5296C86.2319 53.591 86.2319 53.7138 86.2319 53.9593C86.2319 54.1435 86.2319 54.2049 86.2319 54.2663C86.2319 54.3277 86.3552 54.3891 86.4169 54.4504C86.5401 54.4504 86.6634 54.5118 86.7867 54.5118C87.0949 54.5118 87.3414 54.3891 87.5264 54.1435C87.7113 53.9594 87.8345 53.7138 87.8962 53.4069C88.0195 53.0999 88.0811 52.793 88.0811 52.5474C88.0811 52.1177 87.8962 51.5039 87.588 50.8286C87.2798 50.2147 86.8483 49.8464 86.3552 49.785L86.6018 49.7236Z" fill="#1E3464"/>
<path d="M93.6902 50.4603C93.1971 50.0306 92.704 49.8464 92.0876 49.8464C91.9644 49.8464 91.8411 49.8464 91.6562 49.8464C91.348 49.8464 90.9165 50.092 90.3001 50.5217C89.7454 50.89 89.3756 51.1969 89.2523 51.4425C89.0674 51.688 89.0057 52.0563 88.9441 52.4247C88.9441 53.0385 89.129 53.5296 89.5605 53.9593C89.807 54.2049 90.0536 54.3277 90.3618 54.4504C90.67 54.5732 91.1014 54.6346 91.5945 54.696C91.9027 54.696 92.0876 54.696 92.2109 54.696C92.5807 54.696 92.8273 54.6346 93.0739 54.5118C93.2588 54.3891 93.567 54.1435 94.0601 53.7138C94.3066 53.4069 94.5532 53.2227 94.6148 53.0385C94.7381 52.8544 94.7997 52.6702 94.7997 52.4247V52.3019C94.7997 52.3019 94.7997 52.0563 94.6765 51.8722C94.4915 51.3811 94.1217 50.9514 93.6286 50.4603H93.6902ZM92.2726 52.9771C92.2726 52.9771 91.9027 53.2227 91.6562 53.2227C91.6562 53.2227 91.5945 53.2227 91.4713 53.2227C91.0398 53.1613 90.8549 52.9158 90.8549 52.5474C90.8549 52.3019 90.9781 52.1177 91.2247 51.9336C91.4713 51.7494 91.7178 51.6266 91.8411 51.6266C91.8411 51.6266 91.9644 51.6266 92.0876 51.6266C92.1493 51.6266 92.2109 51.688 92.3342 51.8108C92.3958 51.9336 92.4575 51.995 92.5191 52.1177C92.5191 52.1791 92.5191 52.2405 92.5191 52.3019C92.5191 52.5474 92.4575 52.7316 92.2726 52.9158V52.9771Z" fill="#1E3464"/>
<path d="M100.162 50.4603C99.6691 50.0306 99.176 49.8464 98.5596 49.8464C98.4363 49.8464 98.313 49.8464 98.1281 49.8464C97.8199 49.8464 97.3884 50.092 96.7721 50.5217C96.2173 50.89 95.8475 51.1969 95.7242 51.4425C95.5393 51.688 95.4777 52.0563 95.416 52.4247C95.416 53.0385 95.6009 53.5296 96.0324 53.9593C96.279 54.2049 96.5255 54.3277 96.8337 54.4504C97.1419 54.5732 97.5734 54.6346 98.0665 54.696C98.3747 54.696 98.5596 54.696 98.6828 54.696C99.0527 54.696 99.2992 54.6346 99.5458 54.5118C99.7307 54.3891 100.039 54.1435 100.532 53.7138C100.779 53.4069 101.025 53.2227 101.087 53.0385C101.21 52.8544 101.272 52.6702 101.272 52.4247V52.3019C101.272 52.3019 101.272 52.0563 101.148 51.8722C100.963 51.3811 100.594 50.9514 100.101 50.4603H100.162ZM98.7445 52.9771C98.7445 52.9771 98.3747 53.2227 98.1281 53.2227C98.1281 53.2227 98.0665 53.2227 97.9432 53.2227C97.5117 53.1613 97.3268 52.9158 97.3268 52.5474C97.3268 52.3019 97.4501 52.1177 97.6966 51.9336C97.9432 51.7494 98.1897 51.6266 98.313 51.6266C98.313 51.6266 98.4363 51.6266 98.5596 51.6266C98.6212 51.6266 98.6829 51.688 98.8061 51.8108C98.8678 51.9336 98.9294 51.995 98.991 52.1177C98.991 52.1791 98.991 52.2405 98.991 52.3019C98.991 52.5474 98.9294 52.7316 98.7445 52.9158V52.9771Z" fill="#1E3464"/>
<path d="M108.483 51.1969C108.483 51.1969 108.483 51.0742 108.483 50.9514C108.483 50.8286 108.483 50.7058 108.483 50.5831C108.483 50.5217 108.483 50.4603 108.483 50.3989C108.483 50.3375 108.483 50.2761 108.483 50.2147C108.483 50.1533 108.483 50.1533 108.483 50.1533C108.483 49.8464 108.483 49.5395 108.299 49.2939C108.175 49.0484 108.052 48.8642 107.867 48.7414C107.682 48.6187 107.436 48.5573 107.251 48.5573C107.127 48.5573 106.943 48.5573 106.819 48.6187C106.573 48.7414 106.326 48.987 106.141 49.3553C105.895 49.785 105.648 49.9692 105.34 49.9692C105.155 49.9692 104.97 49.9078 104.6 49.785C104.415 49.7236 104.169 49.6622 103.984 49.6622C103.799 49.6622 103.614 49.6622 103.491 49.7236C102.998 49.9078 102.628 50.2147 102.32 50.6444C102.011 51.0742 101.888 51.5652 101.888 52.1791C101.888 52.1791 101.888 52.3019 101.888 52.5474C101.95 53.1613 102.135 53.6524 102.381 53.9593C102.628 54.2663 103.059 54.5732 103.614 54.8802C104.046 55.0643 104.415 55.1871 104.785 55.1871C104.97 55.1871 105.217 55.1871 105.463 55.1257C105.771 55.0643 106.018 55.0029 106.203 55.0029C106.326 55.0029 106.573 55.0029 106.881 55.0643C107.189 55.0643 107.374 55.1257 107.436 55.1257C107.559 55.1257 107.744 55.1257 107.929 55.0029C108.114 54.9415 108.299 54.7574 108.422 54.4504C108.483 54.3277 108.545 54.0207 108.545 53.591C108.545 53.0999 108.545 52.3633 108.422 51.3811V51.2583L108.483 51.1969ZM105.648 52.6088C105.648 52.6088 105.093 53.0385 104.785 53.0385C104.477 53.0385 104.292 52.9158 104.169 52.6702C104.107 52.5474 104.046 52.4247 104.046 52.1791C104.046 52.0563 104.046 51.9336 104.046 51.8722C104.107 51.688 104.23 51.5039 104.415 51.3811C104.6 51.2583 104.724 51.1969 104.908 51.1969C105.032 51.1969 105.217 51.1969 105.34 51.3197C105.648 51.5039 105.833 51.7494 105.833 51.995C105.833 52.1791 105.71 52.4247 105.525 52.6088H105.648Z" fill="#1E3464"/>
<path d="M111.01 47.5137C111.01 47.5137 110.702 47.5137 110.579 47.5751C110.332 47.6365 110.086 47.8206 109.963 48.0048C109.901 48.1276 109.839 48.3117 109.839 48.4345C109.839 48.5573 109.839 48.7414 109.963 48.9256C110.024 49.1098 110.148 49.1711 110.209 49.2325C110.271 49.2325 110.456 49.2939 110.641 49.2939C110.702 49.2939 110.826 49.2939 111.01 49.2939C111.01 49.2939 111.072 49.2939 111.134 49.2939C111.195 49.2939 111.195 49.2939 111.257 49.2939H111.319C111.319 49.2939 111.319 49.2939 111.38 49.2939C111.38 49.2939 111.504 49.2939 111.565 49.2325C111.627 49.2325 111.75 49.0484 111.812 48.8642C111.873 48.68 111.935 48.5573 111.935 48.3731C111.935 48.1889 111.935 48.0662 111.812 47.9434C111.627 47.5751 111.257 47.3909 110.826 47.3909L111.01 47.5137Z" fill="#1E3464"/>
<path d="M111.319 50.6444C111.319 50.6444 110.641 50.5217 110.148 50.5217C110.024 50.5217 109.963 50.5217 109.963 50.5217C109.839 50.5831 109.716 50.7058 109.655 50.8286C109.531 51.1355 109.408 51.5039 109.408 51.995C109.408 52.1791 109.408 52.4247 109.408 52.7316C109.408 53.3455 109.531 53.8366 109.655 54.1435C109.716 54.3277 109.901 54.5118 110.086 54.6346C110.209 54.696 110.333 54.7574 110.517 54.7574C110.826 54.7574 111.134 54.6346 111.319 54.3891C111.38 54.2663 111.504 54.1435 111.565 53.9593C111.627 53.7752 111.689 53.591 111.75 53.4682C111.75 53.4069 111.75 53.0999 111.812 52.5474C111.812 52.1177 111.812 51.7494 111.812 51.3811C111.812 51.0742 111.812 50.89 111.689 50.8286C111.689 50.7672 111.442 50.7058 111.134 50.6444H111.319Z" fill="#1E3464"/>
<path d="M88.0194 57.2743C88.0194 57.2743 87.7112 57.2743 87.6496 57.2743C87.6496 57.2743 87.5263 57.2743 87.3414 57.2743C87.1565 57.2743 86.8483 57.397 86.4785 57.5198C86.047 57.704 85.6772 57.7654 85.4306 57.7654C85.3074 57.7654 85.0608 57.7654 84.691 57.7654C84.5061 57.7654 84.1362 57.704 83.5815 57.6426C82.8418 57.5812 82.4104 57.5198 82.2871 57.4584C81.9789 57.397 81.7323 57.3357 81.5474 57.3357C81.1159 57.3357 80.7461 57.4584 80.4996 57.7654C80.3147 58.0109 80.1297 58.2564 80.0681 58.502C80.0065 58.7475 79.9448 59.1773 79.9448 59.6684V59.9753C79.9448 61.0803 80.0681 61.9397 80.3763 62.5536C80.6845 63.106 81.1159 63.413 81.6707 63.413C81.8556 63.413 82.0405 63.413 82.2871 63.2902C82.4104 63.2902 82.5336 63.1674 82.5953 63.106C82.5953 63.106 82.6569 62.9833 82.6569 62.8605C82.6569 62.7991 82.6569 62.6763 82.6569 62.5536C82.6569 62.4308 82.6569 62.2466 82.6569 62.0011C82.6569 61.8169 82.6569 61.6327 82.6569 61.5714C82.6569 60.6505 82.9035 60.0981 83.2733 59.9139C83.3966 59.9139 83.4582 59.8525 83.5815 59.8525C83.8897 59.8525 84.1362 59.9753 84.2595 60.2822C84.2595 60.3436 84.3211 60.4664 84.3828 60.5278C84.3828 60.6505 84.3828 60.7733 84.3828 61.0803C84.3828 61.51 84.3828 61.8783 84.3211 62.1852C84.3211 62.3694 84.3211 62.5536 84.3211 62.6763C84.3211 62.8605 84.3828 62.9833 84.5677 63.106C84.8142 63.2288 85.0608 63.3516 85.3074 63.3516C85.5539 63.3516 85.8005 63.2902 86.047 63.106C86.2319 62.9833 86.2936 62.8605 86.3552 62.7991C86.3552 62.6763 86.3552 62.5536 86.3552 62.3694C86.3552 62.3694 86.3552 62.3694 86.3552 62.2466C86.3552 62.1238 86.3552 62.1238 86.3552 62.0625C86.3552 62.0011 86.3552 61.8783 86.3552 61.7555C86.3552 61.6327 86.3552 61.51 86.3552 61.4486C86.3552 61.3872 86.3552 61.2644 86.3552 61.203C86.3552 61.1417 86.3552 61.1416 86.3552 61.0803C86.3552 60.8961 86.3552 60.8347 86.3552 60.7119C86.3552 60.5278 86.4785 60.405 86.6634 60.2822C86.8483 60.1595 86.9099 60.1595 87.0949 60.1595C87.2798 60.1595 87.4647 60.2208 87.6496 60.405C87.7729 60.5278 87.8345 60.6506 87.8962 60.8347C87.8962 60.9575 87.9578 61.203 87.9578 61.51C87.9578 61.6941 87.9578 61.8783 87.9578 61.9397C87.9578 62.0011 87.9578 62.1852 87.9578 62.4308C87.9578 62.6149 87.9578 62.7377 87.9578 62.8605C87.9578 62.9833 88.0811 62.9833 88.2043 63.106C88.3276 63.1674 88.5125 63.2288 88.6975 63.2288C89.0673 63.2288 89.3755 63.106 89.622 62.7991C89.807 62.5536 89.9919 62.2466 90.1151 61.9397C90.2384 61.51 90.3617 61.1417 90.3617 60.8961C90.3617 60.3436 90.1151 59.607 89.6837 58.7476C89.3138 57.9495 88.7591 57.5198 88.1427 57.397L88.0194 57.2743Z" fill="#1E3464"/>
<path d="M96.8954 58.1337C96.279 57.6426 95.6627 57.397 94.923 57.397C94.7381 57.397 94.6148 57.397 94.4299 57.397C94.0601 57.4584 93.4437 57.7654 92.7657 58.1951C92.0876 58.6248 91.6562 59.0545 91.4096 59.3614C91.1631 59.6684 91.0398 60.0981 91.0398 60.5892C91.0398 61.3258 91.2863 62.0011 91.7794 62.4922C92.0876 62.7991 92.3958 62.9833 92.7657 63.106C93.1355 63.2288 93.6902 63.3516 94.3683 63.413C94.7381 63.413 94.9846 63.413 95.1696 63.413C95.601 63.413 95.9709 63.3516 96.2791 63.1674C96.5256 63.0446 96.9571 62.6763 97.4502 62.1238C97.82 61.7555 98.0049 61.4486 98.1898 61.2644C98.3131 61.0803 98.3747 60.7733 98.3747 60.5278V60.405C98.3747 60.405 98.3748 60.0981 98.2515 59.8525C98.0666 59.2386 97.5734 58.6862 96.8954 58.1337ZM95.1079 61.3258C95.1079 61.3258 94.6764 61.6327 94.3683 61.6327C94.3683 61.6327 94.3066 61.6327 94.1833 61.6327C93.6286 61.51 93.382 61.2644 93.382 60.7733C93.382 60.4664 93.567 60.2208 93.8752 60.0367C94.1833 59.7911 94.4299 59.6684 94.6148 59.6684C94.6148 59.6684 94.7381 59.6684 94.923 59.6684C94.9846 59.6684 95.1079 59.7297 95.2312 59.9139C95.3545 60.0367 95.4161 60.1595 95.4161 60.2822C95.4161 60.3436 95.4161 60.4664 95.4161 60.5278C95.4161 60.8347 95.2928 61.0803 95.1079 61.3258Z" fill="#1E3464"/>
<path d="M104.97 58.1337C104.354 57.6426 103.737 57.397 102.997 57.397C102.813 57.397 102.689 57.397 102.504 57.397C102.135 57.4584 101.518 57.7654 100.84 58.1951C100.162 58.6248 99.7306 59.0545 99.4841 59.3614C99.2375 59.6684 99.1143 60.0981 99.1143 60.5892C99.1143 61.3258 99.3608 62.0011 99.8539 62.4922C100.162 62.7991 100.47 62.9833 100.84 63.106C101.21 63.2288 101.765 63.3516 102.443 63.413C102.813 63.413 103.059 63.413 103.244 63.413C103.675 63.413 104.045 63.3516 104.354 63.1674C104.6 63.0446 105.032 62.6763 105.525 62.1238C105.894 61.7555 106.079 61.4486 106.264 61.2644C106.388 61.0803 106.449 60.7733 106.449 60.5278V60.405C106.449 60.405 106.449 60.0981 106.326 59.8525C106.141 59.2386 105.648 58.6862 104.97 58.1337ZM103.182 61.3258C103.182 61.3258 102.751 61.6327 102.443 61.6327C102.443 61.6327 102.381 61.6327 102.258 61.6327C101.703 61.51 101.457 61.2644 101.457 60.7733C101.457 60.4664 101.641 60.2208 101.95 60.0367C102.258 59.7911 102.504 59.6684 102.689 59.6684C102.689 59.6684 102.813 59.6684 102.997 59.6684C103.059 59.6684 103.182 59.7297 103.306 59.9139C103.429 60.0367 103.491 60.1595 103.491 60.2822C103.491 60.3436 103.491 60.4664 103.491 60.5278C103.491 60.8347 103.367 61.0803 103.182 61.3258Z" fill="#1E3464"/>
<path d="M115.387 59.1159C115.387 59.1159 115.387 58.9931 115.387 58.8089C115.387 58.6248 115.387 58.4406 115.387 58.3178C115.387 58.2565 115.387 58.1337 115.387 58.0723C115.387 58.0109 115.387 57.8881 115.387 57.8267C115.387 57.7654 115.387 57.7654 115.387 57.704C115.387 57.3356 115.325 56.9673 115.202 56.6604C115.079 56.3534 114.894 56.1079 114.647 55.9851C114.401 55.801 114.154 55.7396 113.846 55.7396C113.661 55.7396 113.476 55.7396 113.291 55.8624C112.983 55.9851 112.736 56.2921 112.428 56.7832C112.12 57.2743 111.812 57.5198 111.442 57.5198C111.257 57.5198 110.949 57.4584 110.517 57.2743C110.271 57.2129 110.024 57.1515 109.716 57.1515C109.47 57.1515 109.223 57.1515 109.1 57.2743C108.483 57.5198 107.99 57.8881 107.62 58.4406C107.251 58.9931 107.066 59.607 107.066 60.3436C107.066 60.3436 107.066 60.5278 107.066 60.7733C107.127 61.51 107.374 62.1238 107.682 62.5535C107.99 62.9833 108.483 63.3516 109.223 63.6585C109.778 63.9041 110.271 64.0269 110.702 64.0269C110.949 64.0269 111.257 64.0268 111.565 63.9041C111.935 63.8427 112.243 63.7813 112.49 63.7813C112.675 63.7813 112.983 63.7813 113.353 63.9041C113.723 63.9655 113.969 64.0269 114.092 64.0269C114.277 64.0269 114.462 64.0268 114.709 63.8427C114.955 63.7199 115.202 63.4744 115.325 63.1674C115.387 62.9833 115.448 62.6149 115.448 62.0625C115.448 61.4486 115.448 60.5278 115.264 59.3V59.1159H115.387ZM111.812 60.8961C111.442 61.2644 111.072 61.3872 110.764 61.3872C110.456 61.3872 110.148 61.2644 109.963 60.9575C109.901 60.8347 109.839 60.6506 109.839 60.3436C109.839 60.1595 109.839 60.0367 109.839 59.9753C109.963 59.7297 110.086 59.5456 110.332 59.3614C110.517 59.2386 110.764 59.1159 111.011 59.1159C111.195 59.1159 111.38 59.1159 111.565 59.2386C111.997 59.4842 112.182 59.7297 112.182 60.0367C112.182 60.2822 112.058 60.5278 111.812 60.7733V60.8961Z" fill="#1E3464"/>
<path d="M118.53 54.4504C118.53 54.4504 118.161 54.4504 117.976 54.5732C117.668 54.696 117.421 54.8802 117.236 55.1257C117.113 55.3099 117.113 55.494 117.113 55.6782C117.113 55.8624 117.113 56.0465 117.236 56.2921C117.359 56.4762 117.421 56.6604 117.544 56.6604C117.668 56.6604 117.852 56.7218 118.099 56.7832C118.222 56.7832 118.346 56.7832 118.592 56.7832C118.592 56.7832 118.715 56.7832 118.777 56.7832C118.839 56.7832 118.9 56.7832 118.9 56.7832C118.9 56.7832 118.962 56.7832 119.024 56.7832C119.085 56.7832 119.024 56.7832 119.085 56.7832C119.085 56.7832 119.27 56.7832 119.332 56.6604C119.455 56.599 119.517 56.4148 119.64 56.2307C119.763 56.0465 119.825 55.801 119.825 55.6168C119.825 55.4326 119.825 55.1871 119.702 55.0643C119.455 54.6346 119.024 54.3891 118.469 54.3891L118.53 54.4504Z" fill="#1E3464"/>
<path d="M118.962 58.4406C118.592 58.3792 118.099 58.3178 117.483 58.3178C117.298 58.3178 117.236 58.3178 117.236 58.3178C117.051 58.3792 116.928 58.502 116.805 58.6862C116.62 59.0545 116.496 59.5456 116.496 60.1595C116.496 60.405 116.496 60.7119 116.496 61.0803C116.496 61.8783 116.681 62.4308 116.805 62.8605C116.928 63.106 117.113 63.2902 117.359 63.4744C117.544 63.5358 117.729 63.5971 117.914 63.5971C118.345 63.5971 118.654 63.4744 118.962 63.1674C119.085 63.0446 119.208 62.8605 119.27 62.6763C119.393 62.4308 119.455 62.2466 119.455 62.0625C119.455 61.9397 119.455 61.5714 119.578 60.8961C119.578 60.3436 119.578 59.8525 119.578 59.4228C119.578 59.0545 119.578 58.8089 119.455 58.7475C119.393 58.6248 119.147 58.5634 118.777 58.502L118.962 58.4406Z" fill="#1E3464"/>
</g>
</svg>
