<svg width="61" height="61" viewBox="0 0 61 61" fill="none" xmlns="http://www.w3.org/2000/svg">
<g clip-path="url(#clip0_144_314)">
<path d="M29.18 24.01C28.58 22.94 27.83 22.08 26.94 21.42C26.03 20.78 25.02 20.38 23.91 20.23C22.69 20.06 21.39 20.14 20.03 20.49C18.53 20.9 17.06 21.59 15.6 22.56C14.06 23.57 12.63 24.83 11.29 26.35C9.99003 27.83 8.84003 29.51 7.85003 31.39C6.92003 33.26 6.23003 35.15 5.78003 37.07C5.33003 38.95 5.17003 40.75 5.28003 42.46C5.36003 44.05 5.69003 45.51 6.27003 46.83C6.78003 48.04 7.47003 49.01 8.37003 49.74C8.68003 50.05 9.03003 50.3 9.42003 50.5C10.31 51.04 11.37 51.36 12.6 51.43C13.84 51.51 15.19 51.29 16.65 50.79C18.11 50.29 19.59 49.48 21.11 48.37C22.62 47.2 24.01 45.84 25.28 44.29C26.54 42.68 27.6 40.93 28.46 39.05C29.33 37.15 29.93 35.26 30.24 33.4C30.57 31.5 30.64 29.74 30.44 28.13C30.23 26.56 29.81 25.19 29.19 24.02L29.18 24.01Z" fill="#1A1E21"/>
<path d="M17.82 18.85C22.77 17.18 27.02 17.39 30.56 19.49V7.16H35.89V18.94C37.36 17.05 39.05 15.31 41.03 13.76C44.26 11.25 47.67 9.56 51.26 8.7C52.85 8.32 54.36 8.13 55.79 8.13C57.6 8.13 59.31 8.43 60.92 9.02V0H0V40.15C0.36 36.05 2.08 32.02 5.17 28.06C8.65 23.59 12.86 20.52 17.82 18.85Z" fill="#1A1E21"/>
<path d="M58.9398 11.87C58.0198 11.23 56.9698 10.81 55.7898 10.61C54.4998 10.45 53.1298 10.55 51.6898 10.91C50.1198 11.33 48.5698 12.04 47.0298 13.03C45.4198 14.05 43.9198 15.34 42.5298 16.89C41.1398 18.43 39.9398 20.16 38.9198 22.1C37.9398 23.96 37.1998 25.89 36.7098 27.91C36.3398 29.51 36.1598 31.02 36.1598 32.46H42.8098V34.85H36.1598V53.74H35.8898H30.5598V43.6C27.0198 48.07 22.7798 51.11 17.8198 52.72C15.6598 53.42 13.6498 53.77 11.7898 53.77C9.33977 53.77 7.13977 53.17 5.17977 51.96C2.08977 50.07 0.369766 47.2 0.00976562 43.34V60.89H60.9298V13.92C60.3798 13.09 59.7198 12.41 58.9498 11.87H58.9398Z" fill="#1A1E21"/>
</g>
<defs>
<clipPath id="clip0_144_314">
<rect width="60.92" height="60.92" fill="white"/>
</clipPath>
</defs>
</svg>
