<svg width="41" height="31" viewBox="0 0 41 31" fill="none" xmlns="http://www.w3.org/2000/svg">
<g clip-path="url(#clip0_142_197)">
<path d="M37.1403 0.643882C36.192 0.643882 35.1852 0.766805 34.1258 1.0185C31.7375 1.58629 29.4722 2.71016 27.324 4.38425C26.0128 5.41446 24.889 6.57345 23.9114 7.83195V0H20.3642V8.19486C18.0111 6.80174 15.1898 6.6554 11.9001 7.76756C8.60461 8.87972 5.80079 10.9167 3.48867 13.8903C1.16484 16.8756 0 19.9194 0 23.0159C0 26.1123 1.16484 28.3776 3.48867 29.7942C4.794 30.5961 6.25737 30.9941 7.88463 30.9941C9.12557 30.9941 10.4602 30.76 11.8943 30.2976C15.1898 29.2264 18.0111 27.2069 20.3584 24.2334V30.9766H23.9056H24.0812V18.415H28.5006V16.8229H24.0812C24.0812 15.8688 24.2041 14.8561 24.45 13.7966C24.7778 12.4562 25.2636 11.1684 25.9192 9.93335C26.5982 8.64558 27.4001 7.49245 28.3191 6.46809C29.244 5.43202 30.2391 4.57742 31.3102 3.89841C32.3287 3.23697 33.359 2.76284 34.4067 2.48773C35.3726 2.24773 36.2798 2.18335 37.1344 2.28871C37.9188 2.42334 38.6212 2.69845 39.23 3.12576C39.7451 3.48282 40.19 3.93939 40.5529 4.50132V1.24094C39.4817 0.8429 38.3403 0.643882 37.1344 0.643882H37.1403ZM20.1477 17.4375C19.9428 18.6784 19.5448 19.9311 18.9653 21.1954C18.3975 22.4481 17.6951 23.6129 16.8522 24.6841C16.0151 25.7202 15.0903 26.6216 14.0835 27.3943C13.0767 28.1318 12.0874 28.6645 11.1216 29.004C10.1499 29.3376 9.25434 29.4839 8.429 29.4313C7.61537 29.3786 6.91295 29.1737 6.3159 28.8108C6.05835 28.682 5.82421 28.5123 5.61934 28.3074C5.02228 27.8157 4.55986 27.1718 4.22621 26.3699C3.83988 25.4919 3.61745 24.5202 3.56477 23.4666C3.48867 22.331 3.59403 21.1369 3.89256 19.8843C4.19109 18.6023 4.64766 17.3438 5.26813 16.1029C5.92957 14.8503 6.69052 13.7323 7.55684 12.7489C8.44656 11.7421 9.40653 10.8992 10.425 10.2319C11.3967 9.58799 12.3742 9.12557 13.3693 8.85631C14.2708 8.62217 15.1312 8.56363 15.9449 8.6807C16.6824 8.78606 17.3497 9.04947 17.9585 9.47677C18.5497 9.91579 19.0472 10.4894 19.4511 11.2035C19.8667 11.9762 20.1418 12.8893 20.2823 13.9371C20.4111 15.0083 20.3642 16.179 20.1477 17.4434V17.4375Z" fill="#1A1E21"/>
</g>
<defs>
<clipPath id="clip0_142_197">
<rect width="40.5587" height="31" fill="white"/>
</clipPath>
</defs>
</svg>
