<svg width="162" height="173" viewBox="0 0 162 173" fill="none" xmlns="http://www.w3.org/2000/svg">
<g clip-path="url(#clip0_142_274)">
<path d="M119.296 44.2098C117.115 44.2098 114.819 44.4992 112.387 45.0781C106.926 46.3903 101.735 48.9569 96.8144 52.7777C93.8041 55.132 91.2375 57.795 88.999 60.6703V42.7432H80.8749V61.5001C75.491 58.2968 69.0264 57.988 61.4811 60.516C53.9359 63.0632 47.5292 67.7331 42.2225 74.5258C36.8964 81.357 34.2334 88.3233 34.2334 95.4247C34.2334 102.526 36.8964 107.698 42.2225 110.959C45.2135 112.792 48.5713 113.719 52.2956 113.719C55.1323 113.719 58.2006 113.178 61.4811 112.117C69.0264 109.666 75.491 105.035 80.8749 98.2421V113.68H88.999H89.4043V84.927H99.5161V81.2798H89.4043C89.4043 79.0799 89.6937 76.7835 90.2534 74.3521C91.006 71.2838 92.1252 68.3313 93.6111 65.5139C95.1742 62.5615 97.0074 59.9177 99.1108 57.5828C101.234 55.2092 103.511 53.2602 105.961 51.6971C108.296 50.1726 110.651 49.092 113.043 48.4552C115.243 47.9148 117.327 47.7605 119.296 47.992C121.09 48.3008 122.692 48.9376 124.101 49.9025C125.278 50.7322 126.301 51.7743 127.13 53.0479V45.5799C124.68 44.6729 122.075 44.2098 119.296 44.2098ZM80.3925 82.6692C79.91 85.5059 79.0224 88.3812 77.6908 91.2758C76.3979 94.1511 74.777 96.8141 72.8472 99.2649C70.9175 101.638 68.8141 103.703 66.4984 105.479C64.1828 107.157 61.925 108.392 59.7058 109.164C57.4866 109.936 55.4411 110.264 53.5307 110.149C51.6588 110.033 50.0572 109.55 48.7063 108.721C48.1081 108.431 47.5871 108.045 47.1047 107.563C45.7346 106.443 44.6732 104.958 43.9013 103.124C43.0137 101.117 42.5119 98.8982 42.3961 96.4668C42.2225 93.8616 42.4733 91.1214 43.1487 88.2654C43.8241 85.3322 44.8855 82.4569 46.2942 79.6202C47.7994 76.7449 49.5554 74.1977 51.5238 71.9399C53.5693 69.6436 55.7499 67.7138 58.0848 66.1701C60.304 64.6842 62.5425 63.6421 64.8196 63.0246C66.8844 62.4843 68.8527 62.3685 70.7245 62.6194C72.4034 62.8509 73.9472 63.4684 75.3366 64.4333C76.6874 65.4368 77.8259 66.749 78.7522 68.3892C79.6978 70.1646 80.3346 72.2487 80.6626 74.6416C80.9521 77.0923 80.8556 79.7746 80.3539 82.6692H80.3925Z" fill="white"/>
<path d="M5.98215 62.4458L5.78918 63.0633L0 61.2879L0.733296 58.8565C0.887674 58.3547 1.17713 57.9688 1.60167 57.6986C2.02621 57.4285 2.45075 57.3706 2.89459 57.5057C3.33843 57.6407 3.64718 57.9302 3.85945 58.3933C4.05243 58.8565 4.07172 59.3389 3.91734 59.8406L3.35772 61.6546L5.96286 62.4458H5.98215ZM2.8367 61.4809L3.39632 59.667C3.49281 59.3389 3.49281 59.0108 3.35772 58.7021C3.22264 58.3933 3.01037 58.2004 2.72091 58.1232C2.43146 58.0267 2.142 58.0846 1.87183 58.2583C1.58238 58.4319 1.4087 58.7021 1.29292 59.0301L0.733296 60.8441L2.8367 61.4809Z" fill="white"/>
<path d="M10.98 49.4006L10.6712 50.0567L7.50649 50.4426L6.81179 51.9864L9.30113 53.1056L9.03097 53.7038L3.53125 51.2145L4.5733 48.8988C4.78557 48.4164 5.13292 48.069 5.57676 47.8568C6.0206 47.6445 6.46443 47.6445 6.86968 47.8182C7.21703 47.9726 7.46789 48.2427 7.62227 48.6094C7.77665 48.976 7.81524 49.362 7.73805 49.7865L10.98 49.4006ZM7.08195 50.0374C7.23633 49.7093 7.25562 49.4006 7.15914 49.0725C7.06265 48.7637 6.88897 48.5322 6.59952 48.4164C6.32935 48.2813 6.03989 48.3006 5.73114 48.4164C5.42238 48.5515 5.21011 48.783 5.05573 49.1111L4.28384 50.8286L6.29076 51.7355L7.06265 50.0181L7.08195 50.0374Z" fill="white"/>
<path d="M10.2085 38.5376L10.6909 38.8271L9.14714 41.3357L11.019 42.4742L12.2347 40.4866L12.7171 40.7761L11.5014 42.7637L13.3732 43.9022L14.917 41.3936L15.3995 41.6831L13.5276 44.7513L8.35596 41.6059L10.2278 38.5376H10.2085Z" fill="white"/>
<path d="M18.0042 28.1931L22.6934 32.014L22.2882 32.5157L18.641 29.5439L20.783 34.349L20.3392 34.8893L15.2061 33.7314L18.8533 36.7032L18.448 37.2049L13.7588 33.3841L14.1833 32.8631L20.0304 34.1753L17.5989 28.6949L18.0235 28.1738L18.0042 28.1931Z" fill="white"/>
<path d="M22.249 23.7932L22.7122 23.3301L26.9383 27.7106L26.4751 28.1737L22.249 23.7932Z" fill="white"/>
<path d="M31.2809 23.1374C30.6634 23.1181 30.1616 22.8673 29.8143 22.4041L27.3442 19.2394L27.846 18.8341L30.316 21.9989C30.5669 22.3269 30.9335 22.5006 31.3967 22.5392C31.8598 22.5585 32.2843 22.4234 32.6703 22.1147C33.0562 21.8059 33.2878 21.4393 33.3843 20.9761C33.4808 20.5323 33.3843 20.1271 33.1334 19.799L30.6634 16.6342L31.1651 16.229L33.6351 19.3938C33.9825 19.8569 34.0983 20.3779 33.9825 20.9954C33.8667 21.6129 33.5387 22.1147 32.9983 22.5392C32.458 22.9638 31.8984 23.1374 31.2616 23.1181L31.2809 23.1374Z" fill="white"/>
<path d="M42.3568 9.26295L45.3479 14.5118L44.7883 14.8206L42.4726 10.7295L42.7428 15.9977L42.1253 16.345L37.7448 13.4119L40.0605 17.5029L39.5008 17.8309L36.5098 12.5628L37.108 12.2347L42.0867 15.5539L41.7779 9.57171L42.3568 9.24365V9.26295Z" fill="white"/>
<path d="M57.1583 9.7068L55.5181 3.87902L57.1776 3.41589C58.1039 3.14573 58.9916 3.20362 59.8214 3.58956C60.6511 3.97551 61.1722 4.55443 61.3844 5.36491C61.616 6.1754 61.4809 6.94729 60.9792 7.69988C60.4775 8.45247 59.7635 8.9735 58.8179 9.22437L57.1583 9.6875V9.7068ZM57.6215 8.9928L58.6635 8.70334C59.4354 8.49107 60.0143 8.06653 60.4196 7.44902C60.8248 6.8315 60.9406 6.19469 60.7476 5.53859C60.5547 4.88248 60.1301 4.40005 59.4547 4.09129C58.7793 3.78254 58.0653 3.72464 57.2934 3.93691L56.2514 4.22637L57.6022 8.9928H57.6215Z" fill="white"/>
<path d="M70.1444 0.694824L70.2216 1.23515L67.3078 1.67898L67.6358 3.84028L69.9322 3.49293L70.0094 4.03325L67.713 4.3806L68.041 6.56119L70.9549 6.11736L71.0321 6.67698L67.4814 7.2173L66.5938 1.23515L70.1444 0.694824Z" fill="white"/>
<path d="M79.7169 5.61551C80.2958 5.61551 80.8168 5.46113 81.2992 5.17167V5.80848C80.8168 6.04004 80.2958 6.15583 79.7169 6.17513C78.7327 6.19442 77.8643 5.92426 77.1503 5.32605C76.4363 4.74713 76.0697 4.03313 76.0311 3.16475C76.0118 2.31567 76.3398 1.58238 77.0345 0.964863C77.7099 0.347351 78.559 0.0192973 79.5432 0C80.1028 0 80.6431 0.0771891 81.1448 0.289459V0.926269C80.6624 0.675404 80.1221 0.540323 79.5432 0.559621C78.7327 0.559621 78.038 0.84908 77.4784 1.35081C76.9188 1.85254 76.6486 2.47005 76.6679 3.16475C76.6679 3.85945 76.9959 4.45767 77.5749 4.9208C78.1538 5.40324 78.8678 5.6348 79.6783 5.61551H79.7169Z" fill="white"/>
<path d="M92.2214 0.810842L91.5653 6.83159L90.9285 6.7544L91.0829 5.24921L88.304 4.94046L87.0304 6.32986L86.2778 6.25267L91.353 0.714355L92.2021 0.810842H92.2214ZM88.7865 4.43873L91.16 4.68959L91.5074 1.46695L88.7865 4.43873Z" fill="white"/>
<path d="M102.063 2.79804L101.928 3.33837L99.0523 2.66296L98.5505 4.78566L100.828 5.32599L100.693 5.86631L98.4348 5.32599L97.7979 8.00831L97.1611 7.85393L98.5698 1.96826L102.063 2.79804Z" fill="white"/>
<path d="M111.326 5.80852L111.133 6.32955L108.354 5.30679L107.602 7.3523L109.782 8.16279L109.589 8.68381L107.409 7.87333L106.463 10.4592L105.846 10.2276L107.93 4.5542L111.307 5.78922L111.326 5.80852Z" fill="white"/>
<path d="M120.164 9.89952L119.913 10.4013L117.289 9.06974L116.305 11.0188L118.389 12.0608L118.138 12.5625L116.054 11.5205L115.07 13.4888L117.694 14.8203L117.443 15.3221L114.24 13.7011L116.98 8.29785L120.183 9.91882L120.164 9.89952Z" fill="white"/>
<path d="M125.182 12.8135L125.741 13.1608L122.48 18.2939L121.92 17.9466L125.182 12.8135Z" fill="white"/>
<path d="M134.598 19.6637L130.835 24.4108L130.295 23.9863L130.681 17.8498L127.554 21.8057L127.053 21.4004L130.816 16.6533L131.356 17.0972L130.97 23.2337L134.096 19.2777L134.598 19.683V19.6637Z" fill="white"/>
<path d="M142.336 35.7005C142.702 36.1443 143.146 36.4917 143.648 36.6846L143.146 37.0899C142.664 36.839 142.239 36.4917 141.892 36.0478C141.274 35.2759 140.985 34.4269 141.004 33.5006C141.043 32.5743 141.371 31.841 142.046 31.32C142.702 30.7797 143.494 30.606 144.401 30.7797C145.308 30.9533 146.079 31.4165 146.697 32.1884C147.044 32.6322 147.295 33.1146 147.45 33.6357L146.948 34.0409C146.851 33.4813 146.62 32.9989 146.272 32.5357C145.771 31.8989 145.134 31.513 144.401 31.3779C143.667 31.2428 143.011 31.3779 142.471 31.8217C141.931 32.2656 141.641 32.8638 141.622 33.6164C141.603 34.369 141.834 35.0637 142.336 35.7005Z" fill="white"/>
<path d="M153.76 42.801L148.569 45.9272L148.241 45.3676L149.534 44.5957L148.086 42.2028L146.215 42.0292L145.829 41.373L153.316 42.0677L153.76 42.801ZM148.781 42.2414L150.016 44.2869L152.795 42.6081L148.781 42.2221V42.2414Z" fill="white"/>
<path d="M158.121 51.8135L157.62 52.0451L156.423 49.3435L154.436 50.2311L155.381 52.3538L154.879 52.5854L153.934 50.4434L151.406 51.5626L151.136 50.9644L156.674 48.5137L158.121 51.8135Z" fill="white"/>
<path d="M161.306 60.9989L160.766 61.1533L159.897 58.3359L157.813 58.9727L158.489 61.1919L157.948 61.3463L157.254 59.1271L155.15 59.7639L156.019 62.5813L155.478 62.7357L154.417 59.3007L160.206 57.5254L161.268 60.9603L161.306 60.9989Z" fill="white"/>
<path d="M24.2369 134.83C25.3561 135.833 26.2631 136.818 26.9771 137.84C27.6911 138.863 28.1735 139.905 28.4437 140.967C28.7139 142.047 28.7525 143.128 28.5402 144.228C28.3279 145.328 27.8455 146.447 27.0736 147.566C26.3789 148.57 25.4912 149.322 24.4299 149.805C23.3685 150.287 22.2107 150.519 20.9371 150.461C19.6634 150.403 18.3319 150.094 16.9618 149.477C15.5724 148.859 14.2409 147.991 12.948 146.852C11.5393 145.579 10.1306 144.266 8.77979 142.896C12.6585 139.018 16.5566 135.119 20.4353 131.241C21.6704 132.476 22.9247 133.672 24.2176 134.811L24.2369 134.83ZM13.5462 146.621C14.3953 147.373 15.3216 147.933 16.2864 148.299C17.2513 148.647 18.2161 148.782 19.181 148.705C20.1459 148.628 21.0528 148.338 21.9598 147.817C22.8475 147.296 23.658 146.563 24.3913 145.598C25.2404 144.479 25.7614 143.398 26.0122 142.356C26.2438 141.314 26.3017 140.33 26.1473 139.442C26.0122 138.535 25.7228 137.744 25.3175 137.03C24.9123 136.316 24.4492 135.737 23.9281 135.274C23.2913 134.714 22.6545 134.135 22.037 133.537C18.5249 137.261 15.0321 141.005 11.52 144.73C12.1954 145.366 12.8708 145.984 13.5655 146.601L13.5462 146.621Z" fill="white"/>
<path d="M27.3245 156.963C30.1998 158.604 33.133 160.09 36.1048 161.44C35.9697 161.73 35.8153 162.019 35.6802 162.309C31.8208 160.379 28.0578 158.198 24.4106 155.767C27.4596 151.194 30.5279 146.601 33.5768 142.027C36.6451 144.073 39.7906 145.906 43.0518 147.527C42.9167 147.817 42.7623 148.087 42.6273 148.376C40.1765 147.025 37.8029 145.539 35.468 143.957C34.2137 145.964 32.9593 147.971 31.705 149.978C33.2488 150.943 34.8119 151.869 36.4135 152.737C36.3171 152.911 36.2206 153.065 36.1434 153.239C34.5417 152.371 32.9593 151.444 31.4156 150.46C30.0647 152.641 28.6946 154.802 27.3438 156.983L27.3245 156.963Z" fill="white"/>
<path d="M40.3886 163.871C43.4182 165.068 46.4865 166.09 49.5934 166.978C49.4969 167.287 49.4004 167.596 49.2846 167.904C45.2322 166.573 41.2569 164.991 37.3589 163.138C39.7132 158.159 42.0867 153.2 44.441 148.221C47.7022 149.765 51.0406 151.096 54.4563 152.216C54.3598 152.505 54.2633 152.814 54.1668 153.103C51.581 152.119 49.053 151.019 46.5637 149.804C45.6181 151.965 44.6725 154.126 43.7077 156.307C45.348 157.021 47.0075 157.696 48.6864 158.314C48.6285 158.487 48.5513 158.68 48.4934 158.854C46.8145 158.236 45.1357 157.561 43.4954 156.828C42.4727 159.182 41.4306 161.517 40.4079 163.871H40.3886Z" fill="white"/>
<path d="M60.3233 153.894C61.6162 154.223 62.6968 154.589 63.5652 155.014C64.4336 155.438 65.109 155.921 65.6107 156.461C66.1124 157.001 66.4598 157.58 66.6142 158.217C66.7878 158.854 66.8071 159.529 66.6914 160.224C66.4598 161.691 65.6107 162.733 64.0862 163.312C62.581 163.89 60.4969 163.91 57.9111 163.254C57.1971 163.08 56.4831 162.887 55.7691 162.694C55.1516 164.894 54.5534 167.074 53.9359 169.274C52.971 169.004 51.9868 168.715 51.022 168.425C52.6429 163.176 54.2832 157.908 55.9042 152.64C57.3515 153.084 58.8181 153.489 60.2847 153.875L60.3233 153.894ZM58.2006 162.791C58.9146 162.964 59.59 163.022 60.2268 162.945C60.8443 162.868 61.4039 162.694 61.8863 162.405C62.3688 162.115 62.774 161.748 63.0828 161.285C63.4108 160.822 63.6231 160.263 63.7389 159.664C63.9897 158.391 63.8354 157.31 63.3143 156.403C62.7933 155.496 61.867 154.898 60.5162 154.551C59.7443 154.358 58.9724 154.165 58.2006 153.952C57.4287 156.693 56.6761 159.452 55.9042 162.192C56.6568 162.405 57.4094 162.598 58.1813 162.791H58.2006Z" fill="white"/>
<path d="M79.7937 157.446C77.0727 157.272 74.3518 156.963 71.6695 156.539C71.3993 158.893 71.1292 161.228 70.8783 163.582C72.6344 163.775 74.3904 163.929 76.1465 164.026C76.1465 164.219 76.1272 164.412 76.1079 164.605C74.3325 164.508 72.5765 164.354 70.8011 164.161C70.4924 166.901 70.1836 169.641 69.8749 172.382C68.8714 172.266 67.8872 172.15 66.8838 171.996C67.6557 166.554 68.4469 161.093 69.2188 155.651C72.7309 156.153 76.2623 156.442 79.813 156.5C79.813 156.809 79.813 157.137 79.813 157.446H79.7937Z" fill="white"/>
<path d="M94.4018 171.243C95.193 171.147 95.9263 170.973 96.6403 170.761C97.3543 170.549 98.0297 170.259 98.7051 169.912C98.8981 170.201 99.0911 170.491 99.284 170.761C98.3578 171.147 97.4508 171.456 96.6017 171.687C95.7526 171.919 94.9808 172.054 94.2861 172.15C93.3405 172.266 92.3949 172.305 91.4687 172.266C90.5424 172.227 89.6354 172.15 88.7477 172.054C87.8601 171.957 87.0303 171.861 86.2198 171.764C85.4093 171.668 84.6567 171.629 83.9427 171.649C82.92 171.668 82.0323 171.803 81.2604 172.035C80.4885 172.285 79.6973 172.594 78.8482 172.961C78.636 172.749 78.4237 172.556 78.2114 172.343C78.6167 172.17 79.0991 171.957 79.678 171.726C80.2569 171.494 80.913 171.301 81.6656 171.147C81.6656 166.245 81.6656 161.344 81.6463 156.442C82.4954 156.442 83.3252 156.442 84.1743 156.404C84.3287 161.209 84.4637 166.033 84.6181 170.838C85.2742 170.819 85.9882 170.838 86.7601 170.935C87.5513 171.012 88.3618 171.089 89.2109 171.166C90.06 171.243 90.9283 171.301 91.816 171.34C92.7037 171.378 93.5528 171.34 94.4018 171.224V171.243ZM106.752 169.835C105.614 170.124 104.475 170.394 103.317 170.645C102.082 168.908 100.905 167.152 99.7665 165.377C99.5928 165.377 99.3998 165.377 99.1683 165.416C98.7823 165.416 98.2806 165.493 97.6438 165.609C97.0842 165.705 96.4859 165.84 95.7912 166.033C95.1158 166.226 94.4597 166.477 93.8229 166.805C93.1861 167.133 92.5879 167.558 92.0283 168.059C91.4686 168.58 91.0248 169.217 90.7161 169.97C90.6196 170.24 90.5038 170.51 90.4073 170.78C90.0407 170.722 89.6547 170.645 89.2881 170.587C91.1213 165.609 92.6265 160.591 93.8229 155.555C94.6913 155.439 95.5404 155.284 96.4088 155.149C99.4577 160.205 102.912 165.107 106.733 169.815L106.752 169.835ZM91.3143 167.77C91.7002 167.326 92.1055 166.959 92.5879 166.651C93.051 166.342 93.5528 166.11 94.0545 165.898C94.5562 165.705 95.0772 165.531 95.579 165.416C96.1 165.28 96.5631 165.184 97.0263 165.107C97.3736 165.049 97.7017 165.01 97.9911 164.972C98.2806 164.933 98.5507 164.914 98.7823 164.875C99.0332 164.875 99.2647 164.875 99.477 164.856C97.6631 162.039 95.9456 159.163 94.3632 156.249C93.5335 160.09 92.53 163.93 91.3336 167.751L91.3143 167.77Z" fill="white"/>
<path d="M115.59 149.515C115.745 155.439 115.513 161.441 114.838 167.5C113.854 167.828 112.869 168.156 111.885 168.465C107.794 163.969 104.089 159.241 100.77 154.359C101.735 154.146 102.68 153.896 103.645 153.645C106.868 158.276 110.438 162.772 114.317 167.076C114.78 161.306 114.896 155.574 114.645 149.94C114.973 149.805 115.282 149.67 115.61 149.534L115.59 149.515Z" fill="white"/>
<path d="M122.595 145.79C123.483 145.308 124.447 144.98 125.489 144.845C126.532 144.71 127.554 144.748 128.577 144.961C129.6 145.192 130.603 145.617 131.568 146.234C132.533 146.852 133.382 147.682 134.096 148.743C134.81 149.804 135.254 150.904 135.408 152.043C135.563 153.181 135.485 154.301 135.157 155.381C134.829 156.462 134.289 157.485 133.517 158.411C132.745 159.337 131.8 160.109 130.738 160.688C129.658 161.267 128.519 161.634 127.323 161.788C126.126 161.923 124.968 161.846 123.888 161.518C122.788 161.209 121.823 160.669 120.935 159.916C120.048 159.163 119.372 158.199 118.87 157.021C118.369 155.844 118.137 154.687 118.137 153.548C118.137 152.409 118.33 151.329 118.697 150.345C119.063 149.36 119.584 148.473 120.26 147.682C120.935 146.89 121.726 146.254 122.614 145.771L122.595 145.79ZM130.43 160.244C131.163 159.839 131.742 159.279 132.166 158.546C132.591 157.813 132.861 157.002 132.958 156.115C133.054 155.227 132.977 154.281 132.726 153.316C132.475 152.332 132.051 151.387 131.472 150.46C130.893 149.534 130.217 148.724 129.484 148.068C128.731 147.392 127.979 146.89 127.188 146.524C126.416 146.157 125.644 145.945 124.891 145.906C124.139 145.848 123.463 146.003 122.846 146.331C122.228 146.659 121.746 147.161 121.36 147.817C120.993 148.473 120.742 149.225 120.627 150.074C120.511 150.924 120.53 151.85 120.684 152.834C120.839 153.818 121.148 154.822 121.611 155.806C122.074 156.809 122.653 157.678 123.328 158.411C124.004 159.144 124.756 159.723 125.547 160.128C126.339 160.534 127.168 160.746 128.017 160.784C128.866 160.823 129.658 160.63 130.391 160.244H130.43Z" fill="white"/>
<path d="M144.979 143.398C145.25 143.398 145.635 143.436 146.118 143.475C146.6 143.514 147.141 143.533 147.739 143.533C148.318 143.533 148.935 143.533 149.591 143.514C150.248 143.475 150.846 143.436 151.405 143.359C151.965 143.282 152.467 143.185 152.891 143.05C153.316 142.915 153.625 142.761 153.818 142.568C153.933 142.684 154.049 142.8 154.146 142.896C153.702 143.34 153.258 143.784 152.795 144.228C152.1 144.903 151.502 145.327 151 145.501C150.498 145.675 150.016 145.791 149.534 145.848C149.051 145.906 148.472 145.945 147.797 145.945C147.121 145.945 146.407 145.945 145.693 145.906C144.979 145.887 144.285 145.829 143.609 145.771C142.934 145.713 142.374 145.656 141.911 145.598C141.622 145.559 141.352 145.559 141.101 145.617C140.85 145.675 140.58 145.81 140.329 146.003C140.097 146.177 139.866 146.37 139.634 146.543C139.518 146.64 139.402 146.755 139.267 146.852C140.637 148.666 142.008 150.48 143.358 152.294C142.529 152.931 141.68 153.548 140.811 154.146C137.627 149.65 134.462 145.154 131.278 140.658C132.571 139.751 133.826 138.805 135.061 137.802C136.161 136.933 137.145 136.258 138.052 135.795C138.959 135.331 139.788 135.042 140.541 134.946C141.294 134.849 141.988 134.907 142.606 135.139C143.223 135.37 143.783 135.756 144.285 136.277C145.134 137.165 145.481 138.265 145.269 139.558C145.057 140.85 144.285 142.259 142.915 143.706C143.281 143.571 143.629 143.475 143.937 143.417C144.246 143.359 144.574 143.34 144.921 143.378L144.979 143.398ZM140.869 144.922C141.487 144.44 141.95 143.919 142.297 143.34C142.644 142.78 142.857 142.201 142.953 141.642C143.05 141.063 142.992 140.503 142.818 139.963C142.644 139.422 142.355 138.901 141.93 138.438C141.081 137.473 140.097 136.952 139.017 136.837C137.936 136.721 136.855 137.145 135.717 138.052C135.061 138.573 134.404 139.094 133.748 139.596C135.466 141.873 137.183 144.15 138.901 146.427C139.557 145.945 140.194 145.443 140.83 144.922H140.869Z" fill="white"/>
</g>
<defs>
<clipPath id="clip0_142_274">
<rect width="161.306" height="173" fill="white"/>
</clipPath>
</defs>
</svg>
