<svg width="25" height="25" viewBox="0 0 25 25" fill="none" xmlns="http://www.w3.org/2000/svg">
<g clip-path="url(#clip0_142_154)">
<path d="M12.3396 24.6792C19.1546 24.6792 24.6792 19.1546 24.6792 12.3396C24.6792 5.52463 19.1546 0 12.3396 0C5.52463 0 0 5.52463 0 12.3396C0 19.1546 5.52463 24.6792 12.3396 24.6792Z" fill="white"/>
<path d="M7.56672 20.0016H6.46973L17.1115 4.52197H18.2085L7.56672 20.0016Z" fill="#A05237"/>
<path d="M16.207 19.6165L6.09375 4.90723H8.47108L18.5843 19.6165H16.207Z" fill="white"/>
<path d="M8.26915 5.29233L17.8524 19.2327H16.4103L6.82704 5.29233H8.26915ZM8.67436 4.52197H5.36182L16.0036 20.0031H19.3161L8.67436 4.52197Z" fill="#A05237"/>
</g>
<defs>
<clipPath id="clip0_142_154">
<rect width="24.6777" height="24.6777" fill="white"/>
</clipPath>
</defs>
</svg>
