<svg width="64" height="64" viewBox="0 0 64 64" fill="none" xmlns="http://www.w3.org/2000/svg">
<circle cx="32" cy="32" r="32" fill="#008BFD"/>
<path d="M14.976 44.962L14.938 45H14.9C14.672 45 14.4567 44.9747 14.254 44.924C14.0767 44.848 13.912 44.7593 13.76 44.658C13.608 44.5313 13.4687 44.392 13.342 44.24C13.2407 44.088 13.152 43.9233 13.076 43.746C13.0253 43.5433 13 43.328 13 43.1V43.062L13.038 43.024H14.976V44.962ZM14.824 44.962V43.024H16.762L16.8 43.062V43.1C16.8 43.328 16.762 43.5433 16.686 43.746C16.6353 43.9233 16.5467 44.088 16.42 44.24C16.3187 44.392 16.192 44.5313 16.04 44.658C15.888 44.7593 15.7107 44.848 15.508 44.924C15.3307 44.9747 15.128 45 14.9 45H14.862L14.824 44.962ZM14.824 41.238L14.862 41.2H14.9C15.128 41.2 15.3307 41.238 15.508 41.314C15.7107 41.3647 15.888 41.4533 16.04 41.58C16.192 41.6813 16.3187 41.808 16.42 41.96C16.5467 42.112 16.6353 42.2893 16.686 42.492C16.762 42.6693 16.8 42.872 16.8 43.1V43.138L16.762 43.176H14.824V41.238ZM14.976 41.238V43.176H13.038L13 43.138V43.1C13 42.872 13.0253 42.6693 13.076 42.492C13.152 42.2893 13.2407 42.112 13.342 41.96C13.4687 41.808 13.608 41.6813 13.76 41.58C13.912 41.4533 14.0767 41.3647 14.254 41.314C14.4567 41.238 14.672 41.2 14.9 41.2H14.938L14.976 41.238ZM14.976 41.162L14.938 41.2H14.9C14.672 41.2 14.4567 41.1747 14.254 41.124C14.0767 41.048 13.912 40.9593 13.76 40.858C13.608 40.7313 13.4687 40.592 13.342 40.44C13.2407 40.288 13.152 40.1233 13.076 39.946C13.0253 39.7433 13 39.528 13 39.3V39.262L13.038 39.224H14.976V41.162ZM14.824 41.162V39.224H16.762L16.8 39.262V39.3C16.8 39.528 16.762 39.7433 16.686 39.946C16.6353 40.1233 16.5467 40.288 16.42 40.44C16.3187 40.592 16.192 40.7313 16.04 40.858C15.888 40.9593 15.7107 41.048 15.508 41.124C15.3307 41.1747 15.128 41.2 14.9 41.2H14.862L14.824 41.162ZM14.824 37.438L14.862 37.4H14.9C15.128 37.4 15.3307 37.438 15.508 37.514C15.7107 37.5647 15.888 37.6533 16.04 37.78C16.192 37.8813 16.3187 38.008 16.42 38.16C16.5467 38.312 16.6353 38.4893 16.686 38.692C16.762 38.8693 16.8 39.072 16.8 39.3V39.338L16.762 39.376H14.824V37.438ZM14.976 37.438V39.376H13.038L13 39.338V39.3C13 39.072 13.0253 38.8693 13.076 38.692C13.152 38.4893 13.2407 38.312 13.342 38.16C13.4687 38.008 13.608 37.8813 13.76 37.78C13.912 37.6533 14.0767 37.5647 14.254 37.514C14.4567 37.438 14.672 37.4 14.9 37.4H14.938L14.976 37.438ZM14.976 37.362L14.938 37.4H14.9C14.672 37.4 14.4567 37.3747 14.254 37.324C14.0767 37.248 13.912 37.1593 13.76 37.058C13.608 36.9313 13.4687 36.792 13.342 36.64C13.2407 36.488 13.152 36.3233 13.076 36.146C13.0253 35.9433 13 35.728 13 35.5V35.462L13.038 35.424H14.976V37.362ZM14.824 37.362V35.424H16.762L16.8 35.462V35.5C16.8 35.728 16.762 35.9433 16.686 36.146C16.6353 36.3233 16.5467 36.488 16.42 36.64C16.3187 36.792 16.192 36.9313 16.04 37.058C15.888 37.1593 15.7107 37.248 15.508 37.324C15.3307 37.3747 15.128 37.4 14.9 37.4H14.862L14.824 37.362ZM14.824 33.638L14.862 33.6H14.9C15.128 33.6 15.3307 33.638 15.508 33.714C15.7107 33.7647 15.888 33.8533 16.04 33.98C16.192 34.0813 16.3187 34.208 16.42 34.36C16.5467 34.512 16.6353 34.6893 16.686 34.892C16.762 35.0693 16.8 35.272 16.8 35.5V35.538L16.762 35.576H14.824V33.638ZM14.976 33.638V35.576H13.038L13 35.538V35.5C13 35.272 13.0253 35.0693 13.076 34.892C13.152 34.6893 13.2407 34.512 13.342 34.36C13.4687 34.208 13.608 34.0813 13.76 33.98C13.912 33.8533 14.0767 33.7647 14.254 33.714C14.4567 33.638 14.672 33.6 14.9 33.6H14.938L14.976 33.638ZM14.976 33.562L14.938 33.6H14.9C14.672 33.6 14.4567 33.5747 14.254 33.524C14.0767 33.448 13.912 33.3593 13.76 33.258C13.608 33.1313 13.4687 32.992 13.342 32.84C13.2407 32.688 13.152 32.5233 13.076 32.346C13.0253 32.1433 13 31.928 13 31.7V31.662L13.038 31.624H14.976V33.562ZM14.824 33.562V31.624H16.762L16.8 31.662V31.7C16.8 31.928 16.762 32.1433 16.686 32.346C16.6353 32.5233 16.5467 32.688 16.42 32.84C16.3187 32.992 16.192 33.1313 16.04 33.258C15.888 33.3593 15.7107 33.448 15.508 33.524C15.3307 33.5747 15.128 33.6 14.9 33.6H14.862L14.824 33.562ZM14.824 29.838L14.862 29.8H14.9C15.128 29.8 15.3307 29.838 15.508 29.914C15.7107 29.9647 15.888 30.0533 16.04 30.18C16.192 30.2813 16.3187 30.408 16.42 30.56C16.5467 30.712 16.6353 30.8893 16.686 31.092C16.762 31.2693 16.8 31.472 16.8 31.7V31.738L16.762 31.776H14.824V29.838ZM14.976 29.838V31.776H13.038L13 31.738V31.7C13 31.472 13.0253 31.2693 13.076 31.092C13.152 30.8893 13.2407 30.712 13.342 30.56C13.4687 30.408 13.608 30.2813 13.76 30.18C13.912 30.0533 14.0767 29.9647 14.254 29.914C14.4567 29.838 14.672 29.8 14.9 29.8H14.938L14.976 29.838ZM14.976 29.762L14.938 29.8H14.9C14.672 29.8 14.4567 29.7747 14.254 29.724C14.0767 29.648 13.912 29.5593 13.76 29.458C13.608 29.3313 13.4687 29.192 13.342 29.04C13.2407 28.888 13.152 28.7233 13.076 28.546C13.0253 28.3433 13 28.128 13 27.9V27.862L13.038 27.824H14.976V29.762ZM14.824 29.762V27.824H16.762L16.8 27.862V27.9C16.8 28.128 16.762 28.3433 16.686 28.546C16.6353 28.7233 16.5467 28.888 16.42 29.04C16.3187 29.192 16.192 29.3313 16.04 29.458C15.888 29.5593 15.7107 29.648 15.508 29.724C15.3307 29.7747 15.128 29.8 14.9 29.8H14.862L14.824 29.762ZM14.824 26.038L14.862 26H14.9C15.128 26 15.3307 26.038 15.508 26.114C15.7107 26.1647 15.888 26.2533 16.04 26.38C16.192 26.4813 16.3187 26.608 16.42 26.76C16.5467 26.912 16.6353 27.0893 16.686 27.292C16.762 27.4693 16.8 27.672 16.8 27.9V27.938L16.762 27.976H14.824V26.038ZM14.976 26.038V27.976H13.038L13 27.938V27.9C13 27.672 13.0253 27.4693 13.076 27.292C13.152 27.0893 13.2407 26.912 13.342 26.76C13.4687 26.608 13.608 26.4813 13.76 26.38C13.912 26.2533 14.0767 26.1647 14.254 26.114C14.4567 26.038 14.672 26 14.9 26H14.938L14.976 26.038ZM14.976 25.962L14.938 26H14.9C14.672 26 14.4567 25.9747 14.254 25.924C14.0767 25.848 13.912 25.7593 13.76 25.658C13.608 25.5313 13.4687 25.392 13.342 25.24C13.2407 25.088 13.152 24.9233 13.076 24.746C13.0253 24.5433 13 24.328 13 24.1V24.062L13.038 24.024H14.976V25.962ZM14.824 25.962V24.024H16.762L16.8 24.062V24.1C16.8 24.328 16.762 24.5433 16.686 24.746C16.6353 24.9233 16.5467 25.088 16.42 25.24C16.3187 25.392 16.192 25.5313 16.04 25.658C15.888 25.7593 15.7107 25.848 15.508 25.924C15.3307 25.9747 15.128 26 14.9 26H14.862L14.824 25.962ZM14.824 22.238L14.862 22.2H14.9C15.128 22.2 15.3307 22.238 15.508 22.314C15.7107 22.3647 15.888 22.4533 16.04 22.58C16.192 22.6813 16.3187 22.808 16.42 22.96C16.5467 23.112 16.6353 23.2893 16.686 23.492C16.762 23.6693 16.8 23.872 16.8 24.1V24.138L16.762 24.176H14.824V22.238ZM14.976 22.238V24.176H13.038L13 24.138V24.1C13 23.872 13.0253 23.6693 13.076 23.492C13.152 23.2893 13.2407 23.112 13.342 22.96C13.4687 22.808 13.608 22.6813 13.76 22.58C13.912 22.4533 14.0767 22.3647 14.254 22.314C14.4567 22.238 14.672 22.2 14.9 22.2H14.938L14.976 22.238ZM18.776 44.962L18.738 45H18.7C18.472 45 18.2567 44.9747 18.054 44.924C17.8767 44.848 17.712 44.7593 17.56 44.658C17.408 44.5313 17.2687 44.392 17.142 44.24C17.0407 44.088 16.952 43.9233 16.876 43.746C16.8253 43.5433 16.8 43.328 16.8 43.1V43.062L16.838 43.024H18.776V44.962ZM18.624 44.962V43.024H20.562L20.6 43.062V43.1C20.6 43.328 20.562 43.5433 20.486 43.746C20.4353 43.9233 20.3467 44.088 20.22 44.24C20.1187 44.392 19.992 44.5313 19.84 44.658C19.688 44.7593 19.5107 44.848 19.308 44.924C19.1307 44.9747 18.928 45 18.7 45H18.662L18.624 44.962ZM18.624 41.238L18.662 41.2H18.7C18.928 41.2 19.1307 41.238 19.308 41.314C19.5107 41.3647 19.688 41.4533 19.84 41.58C19.992 41.6813 20.1187 41.808 20.22 41.96C20.3467 42.112 20.4353 42.2893 20.486 42.492C20.562 42.6693 20.6 42.872 20.6 43.1V43.138L20.562 43.176H18.624V41.238ZM18.776 41.238V43.176H16.838L16.8 43.138V43.1C16.8 42.872 16.8253 42.6693 16.876 42.492C16.952 42.2893 17.0407 42.112 17.142 41.96C17.2687 41.808 17.408 41.6813 17.56 41.58C17.712 41.4533 17.8767 41.3647 18.054 41.314C18.2567 41.238 18.472 41.2 18.7 41.2H18.738L18.776 41.238ZM18.776 41.162L18.738 41.2H18.7C18.472 41.2 18.2567 41.1747 18.054 41.124C17.8767 41.048 17.712 40.9593 17.56 40.858C17.408 40.7313 17.2687 40.592 17.142 40.44C17.0407 40.288 16.952 40.1233 16.876 39.946C16.8253 39.7433 16.8 39.528 16.8 39.3V39.262L16.838 39.224H18.776V41.162ZM18.624 41.162V39.224H20.562L20.6 39.262V39.3C20.6 39.528 20.562 39.7433 20.486 39.946C20.4353 40.1233 20.3467 40.288 20.22 40.44C20.1187 40.592 19.992 40.7313 19.84 40.858C19.688 40.9593 19.5107 41.048 19.308 41.124C19.1307 41.1747 18.928 41.2 18.7 41.2H18.662L18.624 41.162ZM18.624 37.438L18.662 37.4H18.7C18.928 37.4 19.1307 37.438 19.308 37.514C19.5107 37.5647 19.688 37.6533 19.84 37.78C19.992 37.8813 20.1187 38.008 20.22 38.16C20.3467 38.312 20.4353 38.4893 20.486 38.692C20.562 38.8693 20.6 39.072 20.6 39.3V39.338L20.562 39.376H18.624V37.438ZM18.776 37.438V39.376H16.838L16.8 39.338V39.3C16.8 39.072 16.8253 38.8693 16.876 38.692C16.952 38.4893 17.0407 38.312 17.142 38.16C17.2687 38.008 17.408 37.8813 17.56 37.78C17.712 37.6533 17.8767 37.5647 18.054 37.514C18.2567 37.438 18.472 37.4 18.7 37.4H18.738L18.776 37.438ZM18.776 37.362L18.738 37.4H18.7C18.472 37.4 18.2567 37.3747 18.054 37.324C17.8767 37.248 17.712 37.1593 17.56 37.058C17.408 36.9313 17.2687 36.792 17.142 36.64C17.0407 36.488 16.952 36.3233 16.876 36.146C16.8253 35.9433 16.8 35.728 16.8 35.5V35.462L16.838 35.424H18.776V37.362ZM18.624 37.362V35.424H20.562L20.6 35.462V35.5C20.6 35.728 20.562 35.9433 20.486 36.146C20.4353 36.3233 20.3467 36.488 20.22 36.64C20.1187 36.792 19.992 36.9313 19.84 37.058C19.688 37.1593 19.5107 37.248 19.308 37.324C19.1307 37.3747 18.928 37.4 18.7 37.4H18.662L18.624 37.362ZM18.624 33.638L18.662 33.6H18.7C18.928 33.6 19.1307 33.638 19.308 33.714C19.5107 33.7647 19.688 33.8533 19.84 33.98C19.992 34.0813 20.1187 34.208 20.22 34.36C20.3467 34.512 20.4353 34.6893 20.486 34.892C20.562 35.0693 20.6 35.272 20.6 35.5V35.538L20.562 35.576H18.624V33.638ZM18.776 33.638V35.576H16.838L16.8 35.538V35.5C16.8 35.272 16.8253 35.0693 16.876 34.892C16.952 34.6893 17.0407 34.512 17.142 34.36C17.2687 34.208 17.408 34.0813 17.56 33.98C17.712 33.8533 17.8767 33.7647 18.054 33.714C18.2567 33.638 18.472 33.6 18.7 33.6H18.738L18.776 33.638ZM18.776 33.562L18.738 33.6H18.7C18.472 33.6 18.2567 33.5747 18.054 33.524C17.8767 33.448 17.712 33.3593 17.56 33.258C17.408 33.1313 17.2687 32.992 17.142 32.84C17.0407 32.688 16.952 32.5233 16.876 32.346C16.8253 32.1433 16.8 31.928 16.8 31.7V31.662L16.838 31.624H18.776V33.562ZM18.624 33.562V31.624H20.562L20.6 31.662V31.7C20.6 31.928 20.562 32.1433 20.486 32.346C20.4353 32.5233 20.3467 32.688 20.22 32.84C20.1187 32.992 19.992 33.1313 19.84 33.258C19.688 33.3593 19.5107 33.448 19.308 33.524C19.1307 33.5747 18.928 33.6 18.7 33.6H18.662L18.624 33.562ZM18.624 29.838L18.662 29.8H18.7C18.928 29.8 19.1307 29.838 19.308 29.914C19.5107 29.9647 19.688 30.0533 19.84 30.18C19.992 30.2813 20.1187 30.408 20.22 30.56C20.3467 30.712 20.4353 30.8893 20.486 31.092C20.562 31.2693 20.6 31.472 20.6 31.7V31.738L20.562 31.776H18.624V29.838ZM18.776 29.838V31.776H16.838L16.8 31.738V31.7C16.8 31.472 16.8253 31.2693 16.876 31.092C16.952 30.8893 17.0407 30.712 17.142 30.56C17.2687 30.408 17.408 30.2813 17.56 30.18C17.712 30.0533 17.8767 29.9647 18.054 29.914C18.2567 29.838 18.472 29.8 18.7 29.8H18.738L18.776 29.838ZM18.776 29.762L18.738 29.8H18.7C18.472 29.8 18.2567 29.7747 18.054 29.724C17.8767 29.648 17.712 29.5593 17.56 29.458C17.408 29.3313 17.2687 29.192 17.142 29.04C17.0407 28.888 16.952 28.7233 16.876 28.546C16.8253 28.3433 16.8 28.128 16.8 27.9V27.862L16.838 27.824H18.776V29.762ZM18.624 29.762V27.824H20.562L20.6 27.862V27.9C20.6 28.128 20.562 28.3433 20.486 28.546C20.4353 28.7233 20.3467 28.888 20.22 29.04C20.1187 29.192 19.992 29.3313 19.84 29.458C19.688 29.5593 19.5107 29.648 19.308 29.724C19.1307 29.7747 18.928 29.8 18.7 29.8H18.662L18.624 29.762ZM18.624 26.038L18.662 26H18.7C18.928 26 19.1307 26.038 19.308 26.114C19.5107 26.1647 19.688 26.2533 19.84 26.38C19.992 26.4813 20.1187 26.608 20.22 26.76C20.3467 26.912 20.4353 27.0893 20.486 27.292C20.562 27.4693 20.6 27.672 20.6 27.9V27.938L20.562 27.976H18.624V26.038ZM18.776 26.038V27.976H16.838L16.8 27.938V27.9C16.8 27.672 16.8253 27.4693 16.876 27.292C16.952 27.0893 17.0407 26.912 17.142 26.76C17.2687 26.608 17.408 26.4813 17.56 26.38C17.712 26.2533 17.8767 26.1647 18.054 26.114C18.2567 26.038 18.472 26 18.7 26H18.738L18.776 26.038ZM18.776 25.962L18.738 26H18.7C18.472 26 18.2567 25.9747 18.054 25.924C17.8767 25.848 17.712 25.7593 17.56 25.658C17.408 25.5313 17.2687 25.392 17.142 25.24C17.0407 25.088 16.952 24.9233 16.876 24.746C16.8253 24.5433 16.8 24.328 16.8 24.1V24.062L16.838 24.024H18.776V25.962ZM18.624 25.962V24.024H20.562L20.6 24.062V24.1C20.6 24.328 20.562 24.5433 20.486 24.746C20.4353 24.9233 20.3467 25.088 20.22 25.24C20.1187 25.392 19.992 25.5313 19.84 25.658C19.688 25.7593 19.5107 25.848 19.308 25.924C19.1307 25.9747 18.928 26 18.7 26H18.662L18.624 25.962ZM18.624 22.238L18.662 22.2H18.7C18.928 22.2 19.1307 22.238 19.308 22.314C19.5107 22.3647 19.688 22.4533 19.84 22.58C19.992 22.6813 20.1187 22.808 20.22 22.96C20.3467 23.112 20.4353 23.2893 20.486 23.492C20.562 23.6693 20.6 23.872 20.6 24.1V24.138L20.562 24.176H18.624V22.238ZM18.776 22.238V24.176H16.838L16.8 24.138V24.1C16.8 23.872 16.8253 23.6693 16.876 23.492C16.952 23.2893 17.0407 23.112 17.142 22.96C17.2687 22.808 17.408 22.6813 17.56 22.58C17.712 22.4533 17.8767 22.3647 18.054 22.314C18.2567 22.238 18.472 22.2 18.7 22.2H18.738L18.776 22.238ZM22.576 37.362L22.538 37.4H22.5C22.272 37.4 22.0567 37.3747 21.854 37.324C21.6767 37.248 21.512 37.1593 21.36 37.058C21.208 36.9313 21.0687 36.792 20.942 36.64C20.8407 36.488 20.752 36.3233 20.676 36.146C20.6253 35.9433 20.6 35.728 20.6 35.5V35.462L20.638 35.424H22.576V37.362ZM22.424 37.362V35.424H24.362L24.4 35.462V35.5C24.4 35.728 24.362 35.9433 24.286 36.146C24.2353 36.3233 24.1467 36.488 24.02 36.64C23.9187 36.792 23.792 36.9313 23.64 37.058C23.488 37.1593 23.3107 37.248 23.108 37.324C22.9307 37.3747 22.728 37.4 22.5 37.4H22.462L22.424 37.362ZM22.424 33.638L22.462 33.6H22.5C22.728 33.6 22.9307 33.638 23.108 33.714C23.3107 33.7647 23.488 33.8533 23.64 33.98C23.792 34.0813 23.9187 34.208 24.02 34.36C24.1467 34.512 24.2353 34.6893 24.286 34.892C24.362 35.0693 24.4 35.272 24.4 35.5V35.538L24.362 35.576H22.424V33.638ZM22.576 33.638V35.576H20.638L20.6 35.538V35.5C20.6 35.272 20.6253 35.0693 20.676 34.892C20.752 34.6893 20.8407 34.512 20.942 34.36C21.0687 34.208 21.208 34.0813 21.36 33.98C21.512 33.8533 21.6767 33.7647 21.854 33.714C22.0567 33.638 22.272 33.6 22.5 33.6H22.538L22.576 33.638ZM22.576 25.962L22.538 26H22.5C22.272 26 22.0567 25.9747 21.854 25.924C21.6767 25.848 21.512 25.7593 21.36 25.658C21.208 25.5313 21.0687 25.392 20.942 25.24C20.8407 25.088 20.752 24.9233 20.676 24.746C20.6253 24.5433 20.6 24.328 20.6 24.1V24.062L20.638 24.024H22.576V25.962ZM22.424 25.962V24.024H24.362L24.4 24.062V24.1C24.4 24.328 24.362 24.5433 24.286 24.746C24.2353 24.9233 24.1467 25.088 24.02 25.24C23.9187 25.392 23.792 25.5313 23.64 25.658C23.488 25.7593 23.3107 25.848 23.108 25.924C22.9307 25.9747 22.728 26 22.5 26H22.462L22.424 25.962ZM22.424 22.238L22.462 22.2H22.5C22.728 22.2 22.9307 22.238 23.108 22.314C23.3107 22.3647 23.488 22.4533 23.64 22.58C23.792 22.6813 23.9187 22.808 24.02 22.96C24.1467 23.112 24.2353 23.2893 24.286 23.492C24.362 23.6693 24.4 23.872 24.4 24.1V24.138L24.362 24.176H22.424V22.238ZM22.576 22.238V24.176H20.638L20.6 24.138V24.1C20.6 23.872 20.6253 23.6693 20.676 23.492C20.752 23.2893 20.8407 23.112 20.942 22.96C21.0687 22.808 21.208 22.6813 21.36 22.58C21.512 22.4533 21.6767 22.3647 21.854 22.314C22.0567 22.238 22.272 22.2 22.5 22.2H22.538L22.576 22.238ZM26.376 37.362L26.338 37.4H26.3C26.072 37.4 25.8567 37.3747 25.654 37.324C25.4767 37.248 25.312 37.1593 25.16 37.058C25.008 36.9313 24.8687 36.792 24.742 36.64C24.6407 36.488 24.552 36.3233 24.476 36.146C24.4253 35.9433 24.4 35.728 24.4 35.5V35.462L24.438 35.424H26.376V37.362ZM26.224 37.362V35.424H28.162L28.2 35.462V35.5C28.2 35.728 28.162 35.9433 28.086 36.146C28.0353 36.3233 27.9467 36.488 27.82 36.64C27.7187 36.792 27.592 36.9313 27.44 37.058C27.288 37.1593 27.1107 37.248 26.908 37.324C26.7307 37.3747 26.528 37.4 26.3 37.4H26.262L26.224 37.362ZM26.224 33.638L26.262 33.6H26.3C26.528 33.6 26.7307 33.638 26.908 33.714C27.1107 33.7647 27.288 33.8533 27.44 33.98C27.592 34.0813 27.7187 34.208 27.82 34.36C27.9467 34.512 28.0353 34.6893 28.086 34.892C28.162 35.0693 28.2 35.272 28.2 35.5V35.538L28.162 35.576H26.224V33.638ZM26.376 33.638V35.576H24.438L24.4 35.538V35.5C24.4 35.272 24.4253 35.0693 24.476 34.892C24.552 34.6893 24.6407 34.512 24.742 34.36C24.8687 34.208 25.008 34.0813 25.16 33.98C25.312 33.8533 25.4767 33.7647 25.654 33.714C25.8567 33.638 26.072 33.6 26.3 33.6H26.338L26.376 33.638ZM26.376 29.762L26.338 29.8H26.3C26.072 29.8 25.8567 29.7747 25.654 29.724C25.4767 29.648 25.312 29.5593 25.16 29.458C25.008 29.3313 24.8687 29.192 24.742 29.04C24.6407 28.888 24.552 28.7233 24.476 28.546C24.4253 28.3433 24.4 28.128 24.4 27.9V27.862L24.438 27.824H26.376V29.762ZM26.224 29.762V27.824H28.162L28.2 27.862V27.9C28.2 28.128 28.162 28.3433 28.086 28.546C28.0353 28.7233 27.9467 28.888 27.82 29.04C27.7187 29.192 27.592 29.3313 27.44 29.458C27.288 29.5593 27.1107 29.648 26.908 29.724C26.7307 29.7747 26.528 29.8 26.3 29.8H26.262L26.224 29.762ZM26.224 26.038L26.262 26H26.3C26.528 26 26.7307 26.038 26.908 26.114C27.1107 26.1647 27.288 26.2533 27.44 26.38C27.592 26.4813 27.7187 26.608 27.82 26.76C27.9467 26.912 28.0353 27.0893 28.086 27.292C28.162 27.4693 28.2 27.672 28.2 27.9V27.938L28.162 27.976H26.224V26.038ZM26.376 26.038V27.976H24.438L24.4 27.938V27.9C24.4 27.672 24.4253 27.4693 24.476 27.292C24.552 27.0893 24.6407 26.912 24.742 26.76C24.8687 26.608 25.008 26.4813 25.16 26.38C25.312 26.2533 25.4767 26.1647 25.654 26.114C25.8567 26.038 26.072 26 26.3 26H26.338L26.376 26.038ZM26.376 25.962L26.338 26H26.3C26.072 26 25.8567 25.9747 25.654 25.924C25.4767 25.848 25.312 25.7593 25.16 25.658C25.008 25.5313 24.8687 25.392 24.742 25.24C24.6407 25.088 24.552 24.9233 24.476 24.746C24.4253 24.5433 24.4 24.328 24.4 24.1V24.062L24.438 24.024H26.376V25.962ZM26.224 25.962V24.024H28.162L28.2 24.062V24.1C28.2 24.328 28.162 24.5433 28.086 24.746C28.0353 24.9233 27.9467 25.088 27.82 25.24C27.7187 25.392 27.592 25.5313 27.44 25.658C27.288 25.7593 27.1107 25.848 26.908 25.924C26.7307 25.9747 26.528 26 26.3 26H26.262L26.224 25.962ZM26.224 22.238L26.262 22.2H26.3C26.528 22.2 26.7307 22.238 26.908 22.314C27.1107 22.3647 27.288 22.4533 27.44 22.58C27.592 22.6813 27.7187 22.808 27.82 22.96C27.9467 23.112 28.0353 23.2893 28.086 23.492C28.162 23.6693 28.2 23.872 28.2 24.1V24.138L28.162 24.176H26.224V22.238ZM26.376 22.238V24.176H24.438L24.4 24.138V24.1C24.4 23.872 24.4253 23.6693 24.476 23.492C24.552 23.2893 24.6407 23.112 24.742 22.96C24.8687 22.808 25.008 22.6813 25.16 22.58C25.312 22.4533 25.4767 22.3647 25.654 22.314C25.8567 22.238 26.072 22.2 26.3 22.2H26.338L26.376 22.238ZM30.176 33.562L30.138 33.6H30.1C29.872 33.6 29.6567 33.5747 29.454 33.524C29.2767 33.448 29.112 33.3593 28.96 33.258C28.808 33.1313 28.6687 32.992 28.542 32.84C28.4407 32.688 28.352 32.5233 28.276 32.346C28.2253 32.1433 28.2 31.928 28.2 31.7V31.662L28.238 31.624H30.176V33.562ZM30.024 33.562V31.624H31.962L32 31.662V31.7C32 31.928 31.962 32.1433 31.886 32.346C31.8353 32.5233 31.7467 32.688 31.62 32.84C31.5187 32.992 31.392 33.1313 31.24 33.258C31.088 33.3593 30.9107 33.448 30.708 33.524C30.5307 33.5747 30.328 33.6 30.1 33.6H30.062L30.024 33.562ZM30.024 29.838L30.062 29.8H30.1C30.328 29.8 30.5307 29.838 30.708 29.914C30.9107 29.9647 31.088 30.0533 31.24 30.18C31.392 30.2813 31.5187 30.408 31.62 30.56C31.7467 30.712 31.8353 30.8893 31.886 31.092C31.962 31.2693 32 31.472 32 31.7V31.738L31.962 31.776H30.024V29.838ZM30.176 29.838V31.776H28.238L28.2 31.738V31.7C28.2 31.472 28.2253 31.2693 28.276 31.092C28.352 30.8893 28.4407 30.712 28.542 30.56C28.6687 30.408 28.808 30.2813 28.96 30.18C29.112 30.0533 29.2767 29.9647 29.454 29.914C29.6567 29.838 29.872 29.8 30.1 29.8H30.138L30.176 29.838ZM30.176 29.762L30.138 29.8H30.1C29.872 29.8 29.6567 29.7747 29.454 29.724C29.2767 29.648 29.112 29.5593 28.96 29.458C28.808 29.3313 28.6687 29.192 28.542 29.04C28.4407 28.888 28.352 28.7233 28.276 28.546C28.2253 28.3433 28.2 28.128 28.2 27.9V27.862L28.238 27.824H30.176V29.762ZM30.024 29.762V27.824H31.962L32 27.862V27.9C32 28.128 31.962 28.3433 31.886 28.546C31.8353 28.7233 31.7467 28.888 31.62 29.04C31.5187 29.192 31.392 29.3313 31.24 29.458C31.088 29.5593 30.9107 29.648 30.708 29.724C30.5307 29.7747 30.328 29.8 30.1 29.8H30.062L30.024 29.762ZM30.024 26.038L30.062 26H30.1C30.328 26 30.5307 26.038 30.708 26.114C30.9107 26.1647 31.088 26.2533 31.24 26.38C31.392 26.4813 31.5187 26.608 31.62 26.76C31.7467 26.912 31.8353 27.0893 31.886 27.292C31.962 27.4693 32 27.672 32 27.9V27.938L31.962 27.976H30.024V26.038ZM30.176 26.038V27.976H28.238L28.2 27.938V27.9C28.2 27.672 28.2253 27.4693 28.276 27.292C28.352 27.0893 28.4407 26.912 28.542 26.76C28.6687 26.608 28.808 26.4813 28.96 26.38C29.112 26.2533 29.2767 26.1647 29.454 26.114C29.6567 26.038 29.872 26 30.1 26H30.138L30.176 26.038ZM37.7612 44.962L37.7232 45H37.6852C37.4572 45 37.2418 44.9747 37.0392 44.924C36.8618 44.848 36.6972 44.7593 36.5452 44.658C36.3932 44.5313 36.2538 44.392 36.1272 44.24C36.0258 44.088 35.9372 43.9233 35.8612 43.746C35.8105 43.5433 35.7852 43.328 35.7852 43.1V43.062L35.8232 43.024H37.7612V44.962ZM37.6092 44.962V43.024H39.5472L39.5852 43.062V43.1C39.5852 43.328 39.5472 43.5433 39.4712 43.746C39.4205 43.9233 39.3318 44.088 39.2052 44.24C39.1038 44.392 38.9772 44.5313 38.8252 44.658C38.6732 44.7593 38.4958 44.848 38.2932 44.924C38.1158 44.9747 37.9132 45 37.6852 45H37.6472L37.6092 44.962ZM37.6092 41.238L37.6472 41.2H37.6852C37.9132 41.2 38.1158 41.238 38.2932 41.314C38.4958 41.3647 38.6732 41.4533 38.8252 41.58C38.9772 41.6813 39.1038 41.808 39.2052 41.96C39.3318 42.112 39.4205 42.2893 39.4712 42.492C39.5472 42.6693 39.5852 42.872 39.5852 43.1V43.138L39.5472 43.176H37.6092V41.238ZM37.7612 41.238V43.176H35.8232L35.7852 43.138V43.1C35.7852 42.872 35.8105 42.6693 35.8612 42.492C35.9372 42.2893 36.0258 42.112 36.1272 41.96C36.2538 41.808 36.3932 41.6813 36.5452 41.58C36.6972 41.4533 36.8618 41.3647 37.0392 41.314C37.2418 41.238 37.4572 41.2 37.6852 41.2H37.7232L37.7612 41.238ZM37.7612 41.162L37.7232 41.2H37.6852C37.4572 41.2 37.2418 41.1747 37.0392 41.124C36.8618 41.048 36.6972 40.9593 36.5452 40.858C36.3932 40.7313 36.2538 40.592 36.1272 40.44C36.0258 40.288 35.9372 40.1233 35.8612 39.946C35.8105 39.7433 35.7852 39.528 35.7852 39.3V39.262L35.8232 39.224H37.7612V41.162ZM37.6092 41.162V39.224H39.5472L39.5852 39.262V39.3C39.5852 39.528 39.5472 39.7433 39.4712 39.946C39.4205 40.1233 39.3318 40.288 39.2052 40.44C39.1038 40.592 38.9772 40.7313 38.8252 40.858C38.6732 40.9593 38.4958 41.048 38.2932 41.124C38.1158 41.1747 37.9132 41.2 37.6852 41.2H37.6472L37.6092 41.162ZM37.6092 37.438L37.6472 37.4H37.6852C37.9132 37.4 38.1158 37.438 38.2932 37.514C38.4958 37.5647 38.6732 37.6533 38.8252 37.78C38.9772 37.8813 39.1038 38.008 39.2052 38.16C39.3318 38.312 39.4205 38.4893 39.4712 38.692C39.5472 38.8693 39.5852 39.072 39.5852 39.3V39.338L39.5472 39.376H37.6092V37.438ZM37.7612 37.438V39.376H35.8232L35.7852 39.338V39.3C35.7852 39.072 35.8105 38.8693 35.8612 38.692C35.9372 38.4893 36.0258 38.312 36.1272 38.16C36.2538 38.008 36.3932 37.8813 36.5452 37.78C36.6972 37.6533 36.8618 37.5647 37.0392 37.514C37.2418 37.438 37.4572 37.4 37.6852 37.4H37.7232L37.7612 37.438ZM37.7612 37.362L37.7232 37.4H37.6852C37.4572 37.4 37.2418 37.3747 37.0392 37.324C36.8618 37.248 36.6972 37.1593 36.5452 37.058C36.3932 36.9313 36.2538 36.792 36.1272 36.64C36.0258 36.488 35.9372 36.3233 35.8612 36.146C35.8105 35.9433 35.7852 35.728 35.7852 35.5V35.462L35.8232 35.424H37.7612V37.362ZM37.6092 37.362V35.424H39.5472L39.5852 35.462V35.5C39.5852 35.728 39.5472 35.9433 39.4712 36.146C39.4205 36.3233 39.3318 36.488 39.2052 36.64C39.1038 36.792 38.9772 36.9313 38.8252 37.058C38.6732 37.1593 38.4958 37.248 38.2932 37.324C38.1158 37.3747 37.9132 37.4 37.6852 37.4H37.6472L37.6092 37.362ZM37.6092 33.638L37.6472 33.6H37.6852C37.9132 33.6 38.1158 33.638 38.2932 33.714C38.4958 33.7647 38.6732 33.8533 38.8252 33.98C38.9772 34.0813 39.1038 34.208 39.2052 34.36C39.3318 34.512 39.4205 34.6893 39.4712 34.892C39.5472 35.0693 39.5852 35.272 39.5852 35.5V35.538L39.5472 35.576H37.6092V33.638ZM37.7612 33.638V35.576H35.8232L35.7852 35.538V35.5C35.7852 35.272 35.8105 35.0693 35.8612 34.892C35.9372 34.6893 36.0258 34.512 36.1272 34.36C36.2538 34.208 36.3932 34.0813 36.5452 33.98C36.6972 33.8533 36.8618 33.7647 37.0392 33.714C37.2418 33.638 37.4572 33.6 37.6852 33.6H37.7232L37.7612 33.638ZM37.7612 33.562L37.7232 33.6H37.6852C37.4572 33.6 37.2418 33.5747 37.0392 33.524C36.8618 33.448 36.6972 33.3593 36.5452 33.258C36.3932 33.1313 36.2538 32.992 36.1272 32.84C36.0258 32.688 35.9372 32.5233 35.8612 32.346C35.8105 32.1433 35.7852 31.928 35.7852 31.7V31.662L35.8232 31.624H37.7612V33.562ZM37.6092 33.562V31.624H39.5472L39.5852 31.662V31.7C39.5852 31.928 39.5472 32.1433 39.4712 32.346C39.4205 32.5233 39.3318 32.688 39.2052 32.84C39.1038 32.992 38.9772 33.1313 38.8252 33.258C38.6732 33.3593 38.4958 33.448 38.2932 33.524C38.1158 33.5747 37.9132 33.6 37.6852 33.6H37.6472L37.6092 33.562ZM37.6092 29.838L37.6472 29.8H37.6852C37.9132 29.8 38.1158 29.838 38.2932 29.914C38.4958 29.9647 38.6732 30.0533 38.8252 30.18C38.9772 30.2813 39.1038 30.408 39.2052 30.56C39.3318 30.712 39.4205 30.8893 39.4712 31.092C39.5472 31.2693 39.5852 31.472 39.5852 31.7V31.738L39.5472 31.776H37.6092V29.838ZM37.7612 29.838V31.776H35.8232L35.7852 31.738V31.7C35.7852 31.472 35.8105 31.2693 35.8612 31.092C35.9372 30.8893 36.0258 30.712 36.1272 30.56C36.2538 30.408 36.3932 30.2813 36.5452 30.18C36.6972 30.0533 36.8618 29.9647 37.0392 29.914C37.2418 29.838 37.4572 29.8 37.6852 29.8H37.7232L37.7612 29.838ZM37.7612 29.762L37.7232 29.8H37.6852C37.4572 29.8 37.2418 29.7747 37.0392 29.724C36.8618 29.648 36.6972 29.5593 36.5452 29.458C36.3932 29.3313 36.2538 29.192 36.1272 29.04C36.0258 28.888 35.9372 28.7233 35.8612 28.546C35.8105 28.3433 35.7852 28.128 35.7852 27.9V27.862L35.8232 27.824H37.7612V29.762ZM37.6092 29.762V27.824H39.5472L39.5852 27.862V27.9C39.5852 28.128 39.5472 28.3433 39.4712 28.546C39.4205 28.7233 39.3318 28.888 39.2052 29.04C39.1038 29.192 38.9772 29.3313 38.8252 29.458C38.6732 29.5593 38.4958 29.648 38.2932 29.724C38.1158 29.7747 37.9132 29.8 37.6852 29.8H37.6472L37.6092 29.762ZM37.6092 26.038L37.6472 26H37.6852C37.9132 26 38.1158 26.038 38.2932 26.114C38.4958 26.1647 38.6732 26.2533 38.8252 26.38C38.9772 26.4813 39.1038 26.608 39.2052 26.76C39.3318 26.912 39.4205 27.0893 39.4712 27.292C39.5472 27.4693 39.5852 27.672 39.5852 27.9V27.938L39.5472 27.976H37.6092V26.038ZM37.7612 26.038V27.976H35.8232L35.7852 27.938V27.9C35.7852 27.672 35.8105 27.4693 35.8612 27.292C35.9372 27.0893 36.0258 26.912 36.1272 26.76C36.2538 26.608 36.3932 26.4813 36.5452 26.38C36.6972 26.2533 36.8618 26.1647 37.0392 26.114C37.2418 26.038 37.4572 26 37.6852 26H37.7232L37.7612 26.038ZM37.7612 25.962L37.7232 26H37.6852C37.4572 26 37.2418 25.9747 37.0392 25.924C36.8618 25.848 36.6972 25.7593 36.5452 25.658C36.3932 25.5313 36.2538 25.392 36.1272 25.24C36.0258 25.088 35.9372 24.9233 35.8612 24.746C35.8105 24.5433 35.7852 24.328 35.7852 24.1V24.062L35.8232 24.024H37.7612V25.962ZM37.6092 25.962V24.024H39.5472L39.5852 24.062V24.1C39.5852 24.328 39.5472 24.5433 39.4712 24.746C39.4205 24.9233 39.3318 25.088 39.2052 25.24C39.1038 25.392 38.9772 25.5313 38.8252 25.658C38.6732 25.7593 38.4958 25.848 38.2932 25.924C38.1158 25.9747 37.9132 26 37.6852 26H37.6472L37.6092 25.962ZM37.6092 22.238L37.6472 22.2H37.6852C37.9132 22.2 38.1158 22.238 38.2932 22.314C38.4958 22.3647 38.6732 22.4533 38.8252 22.58C38.9772 22.6813 39.1038 22.808 39.2052 22.96C39.3318 23.112 39.4205 23.2893 39.4712 23.492C39.5472 23.6693 39.5852 23.872 39.5852 24.1V24.138L39.5472 24.176H37.6092V22.238ZM37.7612 22.238V24.176H35.8232L35.7852 24.138V24.1C35.7852 23.872 35.8105 23.6693 35.8612 23.492C35.9372 23.2893 36.0258 23.112 36.1272 22.96C36.2538 22.808 36.3932 22.6813 36.5452 22.58C36.6972 22.4533 36.8618 22.3647 37.0392 22.314C37.2418 22.238 37.4572 22.2 37.6852 22.2H37.7232L37.7612 22.238ZM41.5612 44.962L41.5232 45H41.4852C41.2572 45 41.0418 44.9747 40.8392 44.924C40.6618 44.848 40.4972 44.7593 40.3452 44.658C40.1932 44.5313 40.0538 44.392 39.9272 44.24C39.8258 44.088 39.7372 43.9233 39.6612 43.746C39.6105 43.5433 39.5852 43.328 39.5852 43.1V43.062L39.6232 43.024H41.5612V44.962ZM41.4092 44.962V43.024H43.3472L43.3852 43.062V43.1C43.3852 43.328 43.3472 43.5433 43.2712 43.746C43.2205 43.9233 43.1318 44.088 43.0052 44.24C42.9038 44.392 42.7772 44.5313 42.6252 44.658C42.4732 44.7593 42.2958 44.848 42.0932 44.924C41.9158 44.9747 41.7132 45 41.4852 45H41.4472L41.4092 44.962ZM41.4092 41.238L41.4472 41.2H41.4852C41.7132 41.2 41.9158 41.238 42.0932 41.314C42.2958 41.3647 42.4732 41.4533 42.6252 41.58C42.7772 41.6813 42.9038 41.808 43.0052 41.96C43.1318 42.112 43.2205 42.2893 43.2712 42.492C43.3472 42.6693 43.3852 42.872 43.3852 43.1V43.138L43.3472 43.176H41.4092V41.238ZM41.5612 41.238V43.176H39.6232L39.5852 43.138V43.1C39.5852 42.872 39.6105 42.6693 39.6612 42.492C39.7372 42.2893 39.8258 42.112 39.9272 41.96C40.0538 41.808 40.1932 41.6813 40.3452 41.58C40.4972 41.4533 40.6618 41.3647 40.8392 41.314C41.0418 41.238 41.2572 41.2 41.4852 41.2H41.5232L41.5612 41.238ZM41.5612 41.162L41.5232 41.2H41.4852C41.2572 41.2 41.0418 41.1747 40.8392 41.124C40.6618 41.048 40.4972 40.9593 40.3452 40.858C40.1932 40.7313 40.0538 40.592 39.9272 40.44C39.8258 40.288 39.7372 40.1233 39.6612 39.946C39.6105 39.7433 39.5852 39.528 39.5852 39.3V39.262L39.6232 39.224H41.5612V41.162ZM41.4092 41.162V39.224H43.3472L43.3852 39.262V39.3C43.3852 39.528 43.3472 39.7433 43.2712 39.946C43.2205 40.1233 43.1318 40.288 43.0052 40.44C42.9038 40.592 42.7772 40.7313 42.6252 40.858C42.4732 40.9593 42.2958 41.048 42.0932 41.124C41.9158 41.1747 41.7132 41.2 41.4852 41.2H41.4472L41.4092 41.162ZM41.4092 37.438L41.4472 37.4H41.4852C41.7132 37.4 41.9158 37.438 42.0932 37.514C42.2958 37.5647 42.4732 37.6533 42.6252 37.78C42.7772 37.8813 42.9038 38.008 43.0052 38.16C43.1318 38.312 43.2205 38.4893 43.2712 38.692C43.3472 38.8693 43.3852 39.072 43.3852 39.3V39.338L43.3472 39.376H41.4092V37.438ZM41.5612 37.438V39.376H39.6232L39.5852 39.338V39.3C39.5852 39.072 39.6105 38.8693 39.6612 38.692C39.7372 38.4893 39.8258 38.312 39.9272 38.16C40.0538 38.008 40.1932 37.8813 40.3452 37.78C40.4972 37.6533 40.6618 37.5647 40.8392 37.514C41.0418 37.438 41.2572 37.4 41.4852 37.4H41.5232L41.5612 37.438ZM41.5612 37.362L41.5232 37.4H41.4852C41.2572 37.4 41.0418 37.3747 40.8392 37.324C40.6618 37.248 40.4972 37.1593 40.3452 37.058C40.1932 36.9313 40.0538 36.792 39.9272 36.64C39.8258 36.488 39.7372 36.3233 39.6612 36.146C39.6105 35.9433 39.5852 35.728 39.5852 35.5V35.462L39.6232 35.424H41.5612V37.362ZM41.4092 37.362V35.424H43.3472L43.3852 35.462V35.5C43.3852 35.728 43.3472 35.9433 43.2712 36.146C43.2205 36.3233 43.1318 36.488 43.0052 36.64C42.9038 36.792 42.7772 36.9313 42.6252 37.058C42.4732 37.1593 42.2958 37.248 42.0932 37.324C41.9158 37.3747 41.7132 37.4 41.4852 37.4H41.4472L41.4092 37.362ZM41.4092 33.638L41.4472 33.6H41.4852C41.7132 33.6 41.9158 33.638 42.0932 33.714C42.2958 33.7647 42.4732 33.8533 42.6252 33.98C42.7772 34.0813 42.9038 34.208 43.0052 34.36C43.1318 34.512 43.2205 34.6893 43.2712 34.892C43.3472 35.0693 43.3852 35.272 43.3852 35.5V35.538L43.3472 35.576H41.4092V33.638ZM41.5612 33.638V35.576H39.6232L39.5852 35.538V35.5C39.5852 35.272 39.6105 35.0693 39.6612 34.892C39.7372 34.6893 39.8258 34.512 39.9272 34.36C40.0538 34.208 40.1932 34.0813 40.3452 33.98C40.4972 33.8533 40.6618 33.7647 40.8392 33.714C41.0418 33.638 41.2572 33.6 41.4852 33.6H41.5232L41.5612 33.638ZM41.5612 33.562L41.5232 33.6H41.4852C41.2572 33.6 41.0418 33.5747 40.8392 33.524C40.6618 33.448 40.4972 33.3593 40.3452 33.258C40.1932 33.1313 40.0538 32.992 39.9272 32.84C39.8258 32.688 39.7372 32.5233 39.6612 32.346C39.6105 32.1433 39.5852 31.928 39.5852 31.7V31.662L39.6232 31.624H41.5612V33.562ZM41.4092 33.562V31.624H43.3472L43.3852 31.662V31.7C43.3852 31.928 43.3472 32.1433 43.2712 32.346C43.2205 32.5233 43.1318 32.688 43.0052 32.84C42.9038 32.992 42.7772 33.1313 42.6252 33.258C42.4732 33.3593 42.2958 33.448 42.0932 33.524C41.9158 33.5747 41.7132 33.6 41.4852 33.6H41.4472L41.4092 33.562ZM41.4092 29.838L41.4472 29.8H41.4852C41.7132 29.8 41.9158 29.838 42.0932 29.914C42.2958 29.9647 42.4732 30.0533 42.6252 30.18C42.7772 30.2813 42.9038 30.408 43.0052 30.56C43.1318 30.712 43.2205 30.8893 43.2712 31.092C43.3472 31.2693 43.3852 31.472 43.3852 31.7V31.738L43.3472 31.776H41.4092V29.838ZM41.5612 29.838V31.776H39.6232L39.5852 31.738V31.7C39.5852 31.472 39.6105 31.2693 39.6612 31.092C39.7372 30.8893 39.8258 30.712 39.9272 30.56C40.0538 30.408 40.1932 30.2813 40.3452 30.18C40.4972 30.0533 40.6618 29.9647 40.8392 29.914C41.0418 29.838 41.2572 29.8 41.4852 29.8H41.5232L41.5612 29.838ZM41.5612 29.762L41.5232 29.8H41.4852C41.2572 29.8 41.0418 29.7747 40.8392 29.724C40.6618 29.648 40.4972 29.5593 40.3452 29.458C40.1932 29.3313 40.0538 29.192 39.9272 29.04C39.8258 28.888 39.7372 28.7233 39.6612 28.546C39.6105 28.3433 39.5852 28.128 39.5852 27.9V27.862L39.6232 27.824H41.5612V29.762ZM41.4092 29.762V27.824H43.3472L43.3852 27.862V27.9C43.3852 28.128 43.3472 28.3433 43.2712 28.546C43.2205 28.7233 43.1318 28.888 43.0052 29.04C42.9038 29.192 42.7772 29.3313 42.6252 29.458C42.4732 29.5593 42.2958 29.648 42.0932 29.724C41.9158 29.7747 41.7132 29.8 41.4852 29.8H41.4472L41.4092 29.762ZM41.4092 26.038L41.4472 26H41.4852C41.7132 26 41.9158 26.038 42.0932 26.114C42.2958 26.1647 42.4732 26.2533 42.6252 26.38C42.7772 26.4813 42.9038 26.608 43.0052 26.76C43.1318 26.912 43.2205 27.0893 43.2712 27.292C43.3472 27.4693 43.3852 27.672 43.3852 27.9V27.938L43.3472 27.976H41.4092V26.038ZM41.5612 26.038V27.976H39.6232L39.5852 27.938V27.9C39.5852 27.672 39.6105 27.4693 39.6612 27.292C39.7372 27.0893 39.8258 26.912 39.9272 26.76C40.0538 26.608 40.1932 26.4813 40.3452 26.38C40.4972 26.2533 40.6618 26.1647 40.8392 26.114C41.0418 26.038 41.2572 26 41.4852 26H41.5232L41.5612 26.038ZM41.5612 25.962L41.5232 26H41.4852C41.2572 26 41.0418 25.9747 40.8392 25.924C40.6618 25.848 40.4972 25.7593 40.3452 25.658C40.1932 25.5313 40.0538 25.392 39.9272 25.24C39.8258 25.088 39.7372 24.9233 39.6612 24.746C39.6105 24.5433 39.5852 24.328 39.5852 24.1V24.062L39.6232 24.024H41.5612V25.962ZM41.4092 25.962V24.024H43.3472L43.3852 24.062V24.1C43.3852 24.328 43.3472 24.5433 43.2712 24.746C43.2205 24.9233 43.1318 25.088 43.0052 25.24C42.9038 25.392 42.7772 25.5313 42.6252 25.658C42.4732 25.7593 42.2958 25.848 42.0932 25.924C41.9158 25.9747 41.7132 26 41.4852 26H41.4472L41.4092 25.962ZM41.4092 22.238L41.4472 22.2H41.4852C41.7132 22.2 41.9158 22.238 42.0932 22.314C42.2958 22.3647 42.4732 22.4533 42.6252 22.58C42.7772 22.6813 42.9038 22.808 43.0052 22.96C43.1318 23.112 43.2205 23.2893 43.2712 23.492C43.3472 23.6693 43.3852 23.872 43.3852 24.1V24.138L43.3472 24.176H41.4092V22.238ZM41.5612 22.238V24.176H39.6232L39.5852 24.138V24.1C39.5852 23.872 39.6105 23.6693 39.6612 23.492C39.7372 23.2893 39.8258 23.112 39.9272 22.96C40.0538 22.808 40.1932 22.6813 40.3452 22.58C40.4972 22.4533 40.6618 22.3647 40.8392 22.314C41.0418 22.238 41.2572 22.2 41.4852 22.2H41.5232L41.5612 22.238ZM45.3612 37.362L45.3232 37.4H45.2852C45.0572 37.4 44.8418 37.3747 44.6392 37.324C44.4618 37.248 44.2972 37.1593 44.1452 37.058C43.9932 36.9313 43.8538 36.792 43.7272 36.64C43.6258 36.488 43.5372 36.3233 43.4612 36.146C43.4105 35.9433 43.3852 35.728 43.3852 35.5V35.462L43.4232 35.424H45.3612V37.362ZM45.2092 37.362V35.424H47.1472L47.1852 35.462V35.5C47.1852 35.728 47.1472 35.9433 47.0712 36.146C47.0205 36.3233 46.9318 36.488 46.8052 36.64C46.7038 36.792 46.5772 36.9313 46.4252 37.058C46.2732 37.1593 46.0958 37.248 45.8932 37.324C45.7158 37.3747 45.5132 37.4 45.2852 37.4H45.2472L45.2092 37.362ZM45.2092 33.638L45.2472 33.6H45.2852C45.5132 33.6 45.7158 33.638 45.8932 33.714C46.0958 33.7647 46.2732 33.8533 46.4252 33.98C46.5772 34.0813 46.7038 34.208 46.8052 34.36C46.9318 34.512 47.0205 34.6893 47.0712 34.892C47.1472 35.0693 47.1852 35.272 47.1852 35.5V35.538L47.1472 35.576H45.2092V33.638ZM45.3612 33.638V35.576H43.4232L43.3852 35.538V35.5C43.3852 35.272 43.4105 35.0693 43.4612 34.892C43.5372 34.6893 43.6258 34.512 43.7272 34.36C43.8538 34.208 43.9932 34.0813 44.1452 33.98C44.2972 33.8533 44.4618 33.7647 44.6392 33.714C44.8418 33.638 45.0572 33.6 45.2852 33.6H45.3232L45.3612 33.638ZM45.3612 25.962L45.3232 26H45.2852C45.0572 26 44.8418 25.9747 44.6392 25.924C44.4618 25.848 44.2972 25.7593 44.1452 25.658C43.9932 25.5313 43.8538 25.392 43.7272 25.24C43.6258 25.088 43.5372 24.9233 43.4612 24.746C43.4105 24.5433 43.3852 24.328 43.3852 24.1V24.062L43.4232 24.024H45.3612V25.962ZM45.2092 25.962V24.024H47.1472L47.1852 24.062V24.1C47.1852 24.328 47.1472 24.5433 47.0712 24.746C47.0205 24.9233 46.9318 25.088 46.8052 25.24C46.7038 25.392 46.5772 25.5313 46.4252 25.658C46.2732 25.7593 46.0958 25.848 45.8932 25.924C45.7158 25.9747 45.5132 26 45.2852 26H45.2472L45.2092 25.962ZM45.2092 22.238L45.2472 22.2H45.2852C45.5132 22.2 45.7158 22.238 45.8932 22.314C46.0958 22.3647 46.2732 22.4533 46.4252 22.58C46.5772 22.6813 46.7038 22.808 46.8052 22.96C46.9318 23.112 47.0205 23.2893 47.0712 23.492C47.1472 23.6693 47.1852 23.872 47.1852 24.1V24.138L47.1472 24.176H45.2092V22.238ZM45.3612 22.238V24.176H43.4232L43.3852 24.138V24.1C43.3852 23.872 43.4105 23.6693 43.4612 23.492C43.5372 23.2893 43.6258 23.112 43.7272 22.96C43.8538 22.808 43.9932 22.6813 44.1452 22.58C44.2972 22.4533 44.4618 22.3647 44.6392 22.314C44.8418 22.238 45.0572 22.2 45.2852 22.2H45.3232L45.3612 22.238ZM49.1612 37.362L49.1232 37.4H49.0852C48.8572 37.4 48.6418 37.3747 48.4392 37.324C48.2618 37.248 48.0972 37.1593 47.9452 37.058C47.7932 36.9313 47.6538 36.792 47.5272 36.64C47.4258 36.488 47.3372 36.3233 47.2612 36.146C47.2105 35.9433 47.1852 35.728 47.1852 35.5V35.462L47.2232 35.424H49.1612V37.362ZM49.0092 37.362V35.424H50.9472L50.9852 35.462V35.5C50.9852 35.728 50.9472 35.9433 50.8712 36.146C50.8205 36.3233 50.7318 36.488 50.6052 36.64C50.5038 36.792 50.3772 36.9313 50.2252 37.058C50.0732 37.1593 49.8958 37.248 49.6932 37.324C49.5158 37.3747 49.3132 37.4 49.0852 37.4H49.0472L49.0092 37.362ZM49.0092 33.638L49.0472 33.6H49.0852C49.3132 33.6 49.5158 33.638 49.6932 33.714C49.8958 33.7647 50.0732 33.8533 50.2252 33.98C50.3772 34.0813 50.5038 34.208 50.6052 34.36C50.7318 34.512 50.8205 34.6893 50.8712 34.892C50.9472 35.0693 50.9852 35.272 50.9852 35.5V35.538L50.9472 35.576H49.0092V33.638ZM49.1612 33.638V35.576H47.2232L47.1852 35.538V35.5C47.1852 35.272 47.2105 35.0693 47.2612 34.892C47.3372 34.6893 47.4258 34.512 47.5272 34.36C47.6538 34.208 47.7932 34.0813 47.9452 33.98C48.0972 33.8533 48.2618 33.7647 48.4392 33.714C48.6418 33.638 48.8572 33.6 49.0852 33.6H49.1232L49.1612 33.638ZM49.1612 25.962L49.1232 26H49.0852C48.8572 26 48.6418 25.9747 48.4392 25.924C48.2618 25.848 48.0972 25.7593 47.9452 25.658C47.7932 25.5313 47.6538 25.392 47.5272 25.24C47.4258 25.088 47.3372 24.9233 47.2612 24.746C47.2105 24.5433 47.1852 24.328 47.1852 24.1V24.062L47.2232 24.024H49.1612V25.962ZM49.0092 25.962V24.024H50.9472L50.9852 24.062V24.1C50.9852 24.328 50.9472 24.5433 50.8712 24.746C50.8205 24.9233 50.7318 25.088 50.6052 25.24C50.5038 25.392 50.3772 25.5313 50.2252 25.658C50.0732 25.7593 49.8958 25.848 49.6932 25.924C49.5158 25.9747 49.3132 26 49.0852 26H49.0472L49.0092 25.962ZM49.0092 22.238L49.0472 22.2H49.0852C49.3132 22.2 49.5158 22.238 49.6932 22.314C49.8958 22.3647 50.0732 22.4533 50.2252 22.58C50.3772 22.6813 50.5038 22.808 50.6052 22.96C50.7318 23.112 50.8205 23.2893 50.8712 23.492C50.9472 23.6693 50.9852 23.872 50.9852 24.1V24.138L50.9472 24.176H49.0092V22.238ZM49.1612 22.238V24.176H47.2232L47.1852 24.138V24.1C47.1852 23.872 47.2105 23.6693 47.2612 23.492C47.3372 23.2893 47.4258 23.112 47.5272 22.96C47.6538 22.808 47.7932 22.6813 47.9452 22.58C48.0972 22.4533 48.2618 22.3647 48.4392 22.314C48.6418 22.238 48.8572 22.2 49.0852 22.2H49.1232L49.1612 22.238ZM52.9612 25.962L52.9232 26H52.8852C52.6572 26 52.4418 25.9747 52.2392 25.924C52.0618 25.848 51.8972 25.7593 51.7452 25.658C51.5932 25.5313 51.4538 25.392 51.3272 25.24C51.2258 25.088 51.1372 24.9233 51.0612 24.746C51.0105 24.5433 50.9852 24.328 50.9852 24.1V24.062L51.0232 24.024H52.9612V25.962ZM52.8092 25.962V24.024H54.7472L54.7852 24.062V24.1C54.7852 24.328 54.7472 24.5433 54.6712 24.746C54.6205 24.9233 54.5318 25.088 54.4052 25.24C54.3038 25.392 54.1772 25.5313 54.0252 25.658C53.8732 25.7593 53.6958 25.848 53.4932 25.924C53.3158 25.9747 53.1132 26 52.8852 26H52.8472L52.8092 25.962ZM52.8092 22.238L52.8472 22.2H52.8852C53.1132 22.2 53.3158 22.238 53.4932 22.314C53.6958 22.3647 53.8732 22.4533 54.0252 22.58C54.1772 22.6813 54.3038 22.808 54.4052 22.96C54.5318 23.112 54.6205 23.2893 54.6712 23.492C54.7472 23.6693 54.7852 23.872 54.7852 24.1V24.138L54.7472 24.176H52.8092V22.238ZM52.9612 22.238V24.176H51.0232L50.9852 24.138V24.1C50.9852 23.872 51.0105 23.6693 51.0612 23.492C51.1372 23.2893 51.2258 23.112 51.3272 22.96C51.4538 22.808 51.5932 22.6813 51.7452 22.58C51.8972 22.4533 52.0618 22.3647 52.2392 22.314C52.4418 22.238 52.6572 22.2 52.8852 22.2H52.9232L52.9612 22.238Z" fill="white"/>
</svg>
