<svg width="135" height="145" viewBox="0 0 135 145" fill="none" xmlns="http://www.w3.org/2000/svg">
<g clip-path="url(#clip0_142_240)">
<path d="M99.7948 37.0278C97.9725 37.0278 96.0533 37.2697 94.0213 37.7536C89.4573 38.8502 85.1192 40.9951 81.0067 44.1883C78.4909 46.1558 76.346 48.3813 74.4753 50.7843V35.8022H67.6858V51.4777C63.1863 48.8006 57.7837 48.5426 51.478 50.6552C45.1723 52.784 39.8181 56.6868 35.3832 62.3635C30.9321 68.0725 28.7065 73.8944 28.7065 79.8292C28.7065 85.764 30.9321 90.086 35.3832 92.8115C37.8829 94.3436 40.689 95.1177 43.8015 95.1177C46.1722 95.1177 48.7364 94.6661 51.478 93.7791C57.7837 91.731 63.1863 87.8605 67.6858 82.1837V95.0854H74.4753H74.8139V71.056H83.2645V68.008H74.8139C74.8139 66.1695 75.0558 64.2504 75.5235 62.2184C76.1525 59.6542 77.0879 57.1867 78.3296 54.8322C79.6359 52.3647 81.168 50.1553 82.9259 48.2039C84.6998 46.2203 86.6029 44.5915 88.651 43.2852C90.6024 42.0111 92.5699 41.108 94.5696 40.5758C96.4081 40.1242 98.1499 39.9952 99.7948 40.1888C101.295 40.4468 102.633 40.979 103.81 41.7853C104.794 42.4788 105.649 43.3497 106.342 44.4141V38.1729C104.294 37.4149 102.117 37.0278 99.7948 37.0278ZM67.2987 69.1692C66.8955 71.5398 66.1537 73.9428 65.0409 76.3618C63.9604 78.7648 62.6057 80.9903 60.993 83.0385C59.3803 85.0221 57.6224 86.7477 55.6872 88.2314C53.7519 89.6345 51.8651 90.6666 50.0104 91.3117C48.1558 91.9568 46.4464 92.2309 44.8498 92.1342C43.2854 92.0374 41.9469 91.6342 40.818 90.9407C40.3181 90.6988 39.8826 90.3763 39.4794 89.9731C38.3344 89.0378 37.4474 87.796 36.8024 86.2639C36.0605 84.5867 35.6412 82.7321 35.5444 80.7C35.3993 78.5229 35.6089 76.2328 36.1734 73.846C36.7378 71.3947 37.6248 68.9918 38.8021 66.6211C40.06 64.2181 41.5276 62.0894 43.1726 60.2025C44.882 58.2834 46.7044 56.6707 48.6558 55.3805C50.5104 54.1387 52.3811 53.2678 54.2841 52.7518C56.0097 52.3002 57.6547 52.2034 59.219 52.4131C60.6221 52.6066 61.9123 53.1227 63.0734 53.929C64.2023 54.7677 65.1538 55.8643 65.9279 57.2351C66.7181 58.7188 67.2503 60.4605 67.5245 62.4603C67.7664 64.5084 67.6858 66.7501 67.2665 69.1692H67.2987Z" fill="#1A1E21"/>
<path d="M5.09608 52.268L4.93481 52.7841L0.0966797 51.3165L0.70951 49.2845C0.838526 48.8652 1.08043 48.5426 1.43523 48.3168C1.79003 48.0911 2.14482 48.0427 2.51575 48.1556C2.88667 48.2685 3.1447 48.5104 3.3221 48.8974C3.48337 49.2845 3.4995 49.6877 3.37048 50.107L2.9028 51.6229L5.07996 52.2841L5.09608 52.268ZM2.46736 51.4616L2.93505 49.9457C3.01569 49.6715 3.01569 49.3974 2.9028 49.1393C2.78991 48.8813 2.61251 48.72 2.3706 48.6555C2.1287 48.5749 1.88679 48.6233 1.66101 48.7684C1.4191 48.9136 1.27396 49.1393 1.1772 49.4135L0.70951 50.9294L2.46736 51.4616Z" fill="#191D21" stroke="#1A1E21" stroke-width="0.161271" stroke-miterlimit="10"/>
<path d="M9.2734 41.366L9.01537 41.9143L6.37052 42.2368L5.78995 43.527L7.87034 44.4624L7.64456 44.9623L3.04834 42.8819L3.9192 40.9467C4.0966 40.5435 4.38689 40.2532 4.75781 40.0758C5.12874 39.8984 5.49966 39.8984 5.83833 40.0435C6.12862 40.1726 6.33827 40.3983 6.46729 40.7048C6.5963 41.0112 6.62856 41.3337 6.56405 41.6885L9.2734 41.366ZM6.01573 41.8982C6.14474 41.624 6.16087 41.366 6.08024 41.0918C5.9996 40.8338 5.85446 40.6402 5.61255 40.5435C5.38677 40.4306 5.14486 40.4467 4.88683 40.5435C4.6288 40.6564 4.4514 40.8499 4.32238 41.1241L3.6773 42.5594L5.35452 43.3173L5.9996 41.882L6.01573 41.8982Z" fill="#191D21" stroke="#1A1E21" stroke-width="0.161271" stroke-miterlimit="10"/>
<path d="M8.64439 32.2865L9.04757 32.5284L7.7574 34.6249L9.32173 35.5764L10.3377 33.9153L10.7409 34.1572L9.72491 35.8183L11.2892 36.7698L12.5794 34.6733L12.9826 34.9152L11.4183 37.4794L7.09619 34.8507L8.66052 32.2865H8.64439Z" fill="#191D21" stroke="#1A1E21" stroke-width="0.161271" stroke-miterlimit="10"/>
<path d="M15.1437 23.6423L19.0626 26.8355L18.7239 27.2548L15.6759 24.7712L17.466 28.7868L17.095 29.2384L12.8052 28.2708L15.8533 30.7543L15.5146 31.1736L11.5957 27.9805L11.9505 27.545L16.837 28.6417L14.805 24.0616L15.1598 23.6262L15.1437 23.6423Z" fill="#191D21" stroke="#1A1E21" stroke-width="0.161271" stroke-miterlimit="10"/>
<path d="M18.7075 19.9654L19.0946 19.5783L22.6264 23.2392L22.2394 23.6262L18.7075 19.9654Z" fill="#191D21" stroke="#1A1E21" stroke-width="0.161271" stroke-miterlimit="10"/>
<path d="M26.2387 19.417C25.7226 19.4009 25.3033 19.1912 25.013 18.8042L22.9487 16.1593L23.368 15.8207L25.4323 18.4655C25.642 18.7397 25.9484 18.8848 26.3354 18.9171C26.7225 18.9332 27.0773 18.8203 27.3998 18.5623C27.7224 18.3042 27.9159 17.9978 27.9965 17.6108C28.0772 17.2398 27.9965 16.9012 27.7869 16.627L25.7226 13.9822L26.1419 13.6435L28.2062 16.2883C28.4965 16.6754 28.5932 17.1108 28.4965 17.6269C28.3997 18.143 28.1255 18.5623 27.674 18.9171C27.2224 19.2719 26.7547 19.417 26.2225 19.4009L26.2387 19.417Z" fill="#191D21" stroke="#1A1E21" stroke-width="0.161271" stroke-miterlimit="10"/>
<path d="M35.4959 7.82161L37.9956 12.2082L37.5279 12.4662L35.5927 9.04727L35.8184 13.45L35.3024 13.7403L31.6415 11.2889L33.5768 14.7079L33.1091 14.982L30.6094 10.5793L31.1093 10.3052L35.2701 13.079L35.0121 8.07964L35.4959 7.80548V7.82161Z" fill="#191D21" stroke="#1A1E21" stroke-width="0.161271" stroke-miterlimit="10"/>
<path d="M47.8654 8.19254L46.4946 3.32216L47.8816 2.93511C48.6557 2.70933 49.3975 2.75771 50.091 3.08025C50.7844 3.40279 51.2199 3.88661 51.3973 4.56394C51.5908 5.24128 51.4779 5.88637 51.0586 6.51532C50.6393 7.14428 50.0426 7.57971 49.2524 7.78936L47.8654 8.17642V8.19254ZM48.2525 7.59584L49.1233 7.35393C49.7684 7.17653 50.2522 6.82174 50.5909 6.30567C50.9296 5.7896 51.0263 5.25741 50.8651 4.70909C50.7038 4.16077 50.349 3.75759 49.7846 3.49956C49.2201 3.24152 48.6234 3.19314 47.9783 3.37054L47.1075 3.61244L48.2364 7.59584H48.2525Z" fill="#191D21" stroke="#1A1E21" stroke-width="0.161271" stroke-miterlimit="10"/>
<path d="M58.7179 0.661194L58.7824 1.11275L56.3472 1.48368L56.6214 3.28991L58.5405 2.99962L58.605 3.45118L56.6859 3.74147L56.96 5.56383L59.3952 5.19291L59.4597 5.6606L56.4923 6.11216L55.7505 1.11275L58.7179 0.661194Z" fill="#191D21" stroke="#1A1E21" stroke-width="0.161271" stroke-miterlimit="10"/>
<path d="M66.7182 4.77361C67.202 4.77361 67.6374 4.6446 68.0406 4.40269V4.93489C67.6374 5.12841 67.202 5.22517 66.7182 5.2413C65.8957 5.25743 65.17 5.03165 64.5733 4.53171C63.9766 4.04789 63.6701 3.45119 63.6379 2.72547C63.6218 2.01588 63.8959 1.40305 64.4765 0.886983C65.0409 0.370915 65.7505 0.0967545 66.573 0.0806274C67.0407 0.0806274 67.4923 0.145136 67.9116 0.322534V0.854728C67.5084 0.645076 67.0568 0.532186 66.573 0.548313C65.8957 0.548313 65.3151 0.79022 64.8474 1.20952C64.3797 1.62883 64.1539 2.1449 64.1701 2.72547C64.1701 3.30605 64.4442 3.80599 64.928 4.19304C65.4119 4.59622 66.0086 4.78974 66.6859 4.77361H66.7182Z" fill="#191D21" stroke="#1A1E21" stroke-width="0.161271" stroke-miterlimit="10"/>
<path d="M77.1683 0.757943L76.62 5.7896L76.0878 5.72509L76.2168 4.46718L73.8945 4.20914L72.8301 5.37029L72.2012 5.30579L76.4426 0.677307L77.1522 0.757943H77.1683ZM74.2977 3.78984L76.2813 3.99949L76.5716 1.30626L74.2977 3.78984Z" fill="#191D21" stroke="#1A1E21" stroke-width="0.161271" stroke-miterlimit="10"/>
<path d="M85.3936 2.41911L85.2808 2.87067L82.8778 2.30622L82.4585 4.0802L84.3615 4.53176L84.2486 4.98332L82.3618 4.53176L81.8296 6.77343L81.2974 6.64441L82.4746 1.72565L85.3936 2.41911Z" fill="#191D21" stroke="#1A1E21" stroke-width="0.161271" stroke-miterlimit="10"/>
<path d="M93.1343 4.93486L92.973 5.37029L90.6507 4.51555L90.0218 6.22503L91.8441 6.90237L91.6829 7.3378L89.8605 6.66046L89.0703 8.82149L88.5542 8.62797L90.2959 3.8866L93.1182 4.91873L93.1343 4.93486Z" fill="#191D21" stroke="#1A1E21" stroke-width="0.161271" stroke-miterlimit="10"/>
<path d="M100.521 8.35381L100.311 8.77311L98.1179 7.66034L97.2954 9.28918L99.0372 10.16L98.8275 10.5793L97.0858 9.70849L96.2633 11.3534L98.4566 12.4662L98.2469 12.8855L95.5698 11.5308L97.8599 7.01526L100.537 8.36994L100.521 8.35381Z" fill="#191D21" stroke="#1A1E21" stroke-width="0.161271" stroke-miterlimit="10"/>
<path d="M104.714 10.789L105.181 11.0793L102.456 15.3691L101.988 15.0788L104.714 10.789Z" fill="#191D21" stroke="#1A1E21" stroke-width="0.161271" stroke-miterlimit="10"/>
<path d="M112.583 16.5142L109.438 20.4814L108.987 20.1267L109.309 14.9982L106.697 18.3043L106.277 17.9656L109.422 13.9984L109.874 14.3693L109.551 19.4977L112.164 16.1916L112.583 16.5303V16.5142Z" fill="#191D21" stroke="#1A1E21" stroke-width="0.161271" stroke-miterlimit="10"/>
<path d="M119.051 29.9157C119.357 30.2867 119.728 30.5769 120.148 30.7382L119.728 31.0769C119.325 30.8672 118.97 30.5769 118.68 30.206C118.164 29.5609 117.922 28.8513 117.938 28.0772C117.971 27.3031 118.245 26.6903 118.809 26.2549C119.357 25.8033 120.019 25.6582 120.777 25.8033C121.535 25.9485 122.18 26.3355 122.696 26.9806C122.986 27.3515 123.196 27.7547 123.325 28.1901L122.905 28.5288C122.825 28.0611 122.631 27.6579 122.341 27.2709C121.922 26.7387 121.389 26.4162 120.777 26.3033C120.164 26.1904 119.615 26.3033 119.164 26.6742C118.712 27.0451 118.47 27.5451 118.454 28.174C118.438 28.803 118.632 29.3835 119.051 29.9157Z" fill="#191D21" stroke="#1A1E21" stroke-width="0.161271" stroke-miterlimit="10"/>
<path d="M128.597 35.8505L124.259 38.4631L123.985 37.9954L125.066 37.3503L123.856 35.3506L122.292 35.2054L121.969 34.6571L128.227 35.2377L128.597 35.8505ZM124.437 35.3828L125.469 37.0923L127.791 35.6892L124.437 35.3667V35.3828Z" fill="#191D21" stroke="#1A1E21" stroke-width="0.161271" stroke-miterlimit="10"/>
<path d="M132.242 43.3819L131.823 43.5755L130.823 41.3177L129.162 42.0595L129.952 43.8496L129.533 44.0431L128.743 42.253L126.63 43.1884L126.404 42.6885L131.033 40.6403L132.242 43.3981V43.3819Z" fill="#191D21" stroke="#1A1E21" stroke-width="0.161271" stroke-miterlimit="10"/>
<path d="M134.904 51.0584L134.452 51.1874L133.727 48.8329L131.985 49.3651L132.549 51.2197L132.098 51.3487L131.517 49.4941L129.759 50.0263L130.485 52.3808L130.033 52.5098L129.146 49.6392L133.985 48.1555L134.872 51.0261L134.904 51.0584Z" fill="#191D21" stroke="#1A1E21" stroke-width="0.161271" stroke-miterlimit="10"/>
<path d="M20.3524 112.761C21.2878 113.599 22.0457 114.422 22.6424 115.276C23.2391 116.131 23.6423 117.002 23.8681 117.889C24.0939 118.792 24.1261 119.695 23.9487 120.615C23.7713 121.55 23.3681 122.469 22.7231 123.405C22.1425 124.243 21.4006 124.872 20.5137 125.275C19.6267 125.678 18.659 125.872 17.5946 125.824C16.5303 125.775 15.4175 125.517 14.2725 125.001C13.1113 124.485 11.9985 123.759 10.918 122.808C9.74075 121.743 8.56347 120.647 7.43457 119.502C10.6761 116.26 13.9338 113.003 17.1753 109.761C18.2075 110.793 19.2557 111.793 20.3363 112.745L20.3524 112.761ZM11.418 122.614C12.1276 123.243 12.9017 123.711 13.708 124.017C14.5144 124.308 15.3207 124.421 16.1271 124.356C16.9334 124.292 17.6914 124.05 18.4494 123.614C19.1912 123.179 19.8686 122.566 20.4814 121.76C21.191 120.824 21.6264 119.921 21.8361 119.05C22.0296 118.179 22.078 117.357 21.949 116.615C21.8361 115.873 21.5942 115.196 21.2555 114.599C20.9168 114.002 20.5298 113.519 20.0943 113.132C19.5622 112.664 19.03 112.18 18.5139 111.68C15.5788 114.793 12.6598 117.921 9.72462 121.034C10.2891 121.566 10.8535 122.082 11.4341 122.598L11.418 122.614Z" fill="#1A1E21"/>
<path d="M22.9328 131.259C25.3357 132.629 27.787 133.871 30.2706 135C30.1577 135.242 30.0287 135.484 29.9158 135.726C26.6904 134.113 23.5456 132.291 20.4976 130.259C23.0456 126.437 25.6098 122.598 28.1579 118.776C30.7221 120.486 33.3509 122.018 36.0763 123.372C35.9635 123.614 35.8344 123.84 35.7215 124.082C33.6734 122.953 31.6898 121.711 29.7384 120.389C28.6901 122.066 27.6419 123.743 26.5936 125.421C27.8838 126.227 29.1901 127.001 30.5286 127.727C30.448 127.872 30.3673 128.001 30.3028 128.146C28.9643 127.42 27.6419 126.646 26.3517 125.824C25.2228 127.646 24.0778 129.452 22.9489 131.275L22.9328 131.259Z" fill="#1A1E21"/>
<path d="M33.8664 137.032C36.3984 138.032 38.9626 138.887 41.5591 139.628L41.301 140.403C37.9143 139.29 34.5921 137.967 31.3345 136.419C33.302 132.258 35.2856 128.114 37.2531 123.953C39.9786 125.243 42.7686 126.356 45.6231 127.291C45.5425 127.533 45.4618 127.791 45.3812 128.033C43.2201 127.211 41.1075 126.291 39.0271 125.275C38.2369 127.082 37.4466 128.888 36.6403 130.71C38.0111 131.307 39.398 131.871 40.8011 132.387C40.7527 132.532 40.6882 132.694 40.6398 132.839C39.2368 132.323 37.8337 131.758 36.4629 131.146C35.6082 133.113 34.7373 135.064 33.8826 137.032H33.8664Z" fill="#1A1E21"/>
<path d="M50.5101 128.694C51.5906 128.968 52.4937 129.275 53.2194 129.63C53.9452 129.984 54.5096 130.388 54.9289 130.839C55.3482 131.291 55.6385 131.775 55.7675 132.307C55.9127 132.839 55.9288 133.403 55.832 133.984C55.6385 135.21 54.9289 136.081 53.6549 136.564C52.397 137.048 50.6552 137.064 48.4942 136.516C47.8975 136.371 47.3008 136.21 46.7041 136.048C46.188 137.887 45.6881 139.709 45.172 141.548C44.3657 141.322 43.5432 141.08 42.7368 140.838C44.0915 136.435 45.4623 132.049 46.817 127.646C48.0265 128.017 49.2522 128.356 50.4778 128.678L50.5101 128.694ZM48.7361 136.129C49.3328 136.274 49.8973 136.322 50.4294 136.258C50.9455 136.193 51.4132 136.048 51.8164 135.806C52.2196 135.564 52.5582 135.258 52.8163 134.871C53.0904 134.484 53.2678 134.016 53.3646 133.516C53.5742 132.452 53.4452 131.549 53.0098 130.791C52.5743 130.033 51.8002 129.533 50.6714 129.243C50.0263 129.081 49.3812 128.92 48.7361 128.743C48.091 131.033 47.4621 133.339 46.817 135.629C47.4459 135.806 48.0749 135.968 48.72 136.129H48.7361Z" fill="#1A1E21"/>
<path d="M66.7988 131.662C64.5249 131.516 62.251 131.258 60.0093 130.904C59.7835 132.871 59.5577 134.823 59.3481 136.79C60.8156 136.951 62.2832 137.08 63.7508 137.161C63.7508 137.322 63.7346 137.484 63.7185 137.645C62.2348 137.564 60.7673 137.435 59.2836 137.274C59.0255 139.564 58.7675 141.854 58.5095 144.144C57.6709 144.047 56.8484 143.95 56.0098 143.821C56.6548 139.274 57.3161 134.71 57.9611 130.162C60.8963 130.581 63.8475 130.823 66.8149 130.871C66.8149 131.129 66.8149 131.404 66.8149 131.662H66.7988Z" fill="#1A1E21"/>
<path d="M78.9906 143.193C79.6518 143.112 80.2646 142.967 80.8613 142.789C81.458 142.612 82.0225 142.37 82.5869 142.08C82.7482 142.322 82.9095 142.564 83.0708 142.789C82.2967 143.112 81.5387 143.37 80.8291 143.563C80.1195 143.741 79.4744 143.87 78.8938 143.951C78.1036 144.047 77.3134 144.08 76.5393 144.047C75.7652 144.015 75.0072 143.951 74.2654 143.87C73.5235 143.789 72.83 143.709 72.1527 143.628C71.4754 143.547 70.8464 143.515 70.2497 143.531C69.395 143.547 68.6531 143.66 68.008 143.854C67.363 144.063 66.7017 144.321 65.9922 144.628C65.8148 144.45 65.6374 144.289 65.46 144.112C65.7986 143.967 66.2018 143.789 66.6856 143.596C67.1694 143.402 67.7178 143.241 68.3467 143.112C68.3467 139.016 68.3467 134.919 68.3306 130.823C69.0402 130.823 69.7336 130.823 70.4432 130.791C70.5723 134.806 70.6851 138.838 70.8142 142.854C71.3625 142.838 71.9592 142.854 72.6043 142.935C73.2655 142.999 73.9428 143.064 74.6524 143.128C75.362 143.193 76.0877 143.241 76.8296 143.273C77.5714 143.305 78.281 143.273 78.9906 143.176V143.193ZM89.3119 142.015C88.3604 142.257 87.4089 142.483 86.4413 142.693C85.4092 141.241 84.4254 139.774 83.4739 138.29C83.3288 138.29 83.1675 138.29 82.974 138.322C82.6515 138.322 82.2321 138.387 81.7 138.483C81.2323 138.564 80.7323 138.677 80.1518 138.838C79.5873 139 79.039 139.209 78.5068 139.483C77.9746 139.757 77.4747 140.112 77.007 140.532C76.5393 140.967 76.1684 141.499 75.9103 142.128C75.8297 142.354 75.7329 142.58 75.6523 142.806C75.3459 142.757 75.0233 142.693 74.7169 142.644C76.249 138.483 77.5069 134.29 78.5068 130.081C79.2325 129.984 79.9421 129.855 80.6678 129.743C83.2159 133.968 86.1027 138.064 89.2958 141.999L89.3119 142.015ZM76.4103 140.29C76.7328 139.919 77.0715 139.612 77.4747 139.354C77.8617 139.096 78.281 138.903 78.7003 138.725C79.1196 138.564 79.555 138.419 79.9744 138.322C80.4098 138.209 80.7968 138.129 81.1839 138.064C81.4742 138.016 81.7483 137.984 81.9902 137.951C82.2483 137.919 82.4579 137.903 82.6515 137.871C82.8611 137.871 83.0546 137.871 83.232 137.854C81.7 135.5 80.2808 133.097 78.9583 130.662C78.2649 133.871 77.4263 137.08 76.4264 140.274L76.4103 140.29Z" fill="#1A1E21"/>
<path d="M96.7142 125.033C96.8432 129.984 96.6497 135 96.0853 140.064C95.2628 140.338 94.4403 140.612 93.6178 140.87C90.1989 137.113 87.1025 133.162 84.3286 129.081C85.135 128.904 85.9252 128.694 86.7315 128.485C89.4248 132.355 92.4083 136.113 95.6498 139.709C96.0369 134.887 96.1336 130.097 95.924 125.388C96.1982 125.275 96.4562 125.162 96.7304 125.05L96.7142 125.033Z" fill="#1A1E21"/>
<path d="M102.553 121.921C103.294 121.518 104.101 121.244 104.972 121.131C105.842 121.018 106.697 121.05 107.552 121.227C108.407 121.421 109.245 121.776 110.052 122.292C110.858 122.808 111.568 123.501 112.164 124.388C112.761 125.275 113.132 126.195 113.261 127.146C113.39 128.098 113.325 129.033 113.051 129.936C112.777 130.839 112.326 131.694 111.68 132.468C111.035 133.242 110.245 133.887 109.358 134.371C108.455 134.855 107.504 135.161 106.504 135.29C105.504 135.403 104.536 135.339 103.633 135.064C102.714 134.806 101.907 134.355 101.166 133.726C100.424 133.097 99.8593 132.291 99.44 131.307C99.0207 130.323 98.8271 129.356 98.8271 128.404C98.8271 127.453 98.9884 126.566 99.2948 125.727C99.6013 124.904 100.037 124.163 100.601 123.501C101.166 122.84 101.827 122.308 102.569 121.905L102.553 121.921ZM109.1 134C109.713 133.661 110.197 133.194 110.552 132.581C110.906 131.968 111.132 131.291 111.213 130.549C111.293 129.807 111.229 129.017 111.019 128.21C110.81 127.388 110.455 126.598 109.971 125.824C109.487 125.05 108.923 124.372 108.31 123.824C107.681 123.259 107.052 122.84 106.391 122.534C105.746 122.227 105.101 122.05 104.472 122.018C103.843 121.969 103.278 122.098 102.762 122.372C102.246 122.647 101.843 123.066 101.52 123.614C101.214 124.163 101.004 124.792 100.908 125.501C100.811 126.211 100.827 126.985 100.956 127.807C101.085 128.63 101.343 129.468 101.73 130.291C102.117 131.129 102.601 131.855 103.165 132.468C103.73 133.081 104.359 133.565 105.02 133.903C105.681 134.242 106.375 134.436 107.084 134.452C107.794 134.484 108.455 134.323 109.068 134H109.1Z" fill="#1A1E21"/>
<path d="M121.26 119.921C121.486 119.921 121.808 119.953 122.211 119.986C122.614 120.018 123.066 120.034 123.566 120.034C124.05 120.034 124.566 120.034 125.114 120.018C125.663 119.986 126.162 119.953 126.63 119.889C127.098 119.824 127.517 119.744 127.872 119.631C128.227 119.518 128.485 119.389 128.646 119.228C128.743 119.324 128.84 119.421 128.92 119.502C128.549 119.873 128.178 120.244 127.791 120.615C127.211 121.179 126.711 121.534 126.291 121.679C125.872 121.824 125.469 121.921 125.066 121.969C124.663 122.018 124.179 122.05 123.614 122.05C123.05 122.05 122.453 122.05 121.857 122.018C121.26 122.002 120.679 121.953 120.115 121.905C119.55 121.856 119.083 121.808 118.696 121.76C118.454 121.727 118.228 121.727 118.018 121.776C117.809 121.824 117.583 121.937 117.373 122.098C117.18 122.243 116.986 122.405 116.793 122.55C116.696 122.631 116.599 122.727 116.486 122.808C117.631 124.324 118.776 125.84 119.905 127.356C119.212 127.888 118.502 128.404 117.776 128.904C115.115 125.146 112.471 121.389 109.81 117.631C110.89 116.873 111.938 116.083 112.97 115.244C113.89 114.519 114.712 113.954 115.47 113.567C116.228 113.18 116.922 112.938 117.551 112.858C118.18 112.777 118.76 112.825 119.276 113.019C119.792 113.212 120.26 113.535 120.679 113.97C121.389 114.728 121.679 115.631 121.502 116.712C121.324 117.792 120.679 118.97 119.534 120.179C119.841 120.066 120.131 119.986 120.389 119.937C120.647 119.889 120.921 119.873 121.211 119.905L121.26 119.921ZM117.825 121.195C118.341 120.792 118.728 120.357 119.018 119.873C119.308 119.405 119.486 118.921 119.566 118.454C119.647 117.97 119.599 117.502 119.454 117.051C119.308 116.599 119.067 116.164 118.712 115.777C118.002 114.97 117.18 114.535 116.277 114.438C115.373 114.341 114.47 114.696 113.519 115.454C112.97 115.889 112.422 116.325 111.874 116.744C113.309 118.647 114.744 120.55 116.18 122.453C116.728 122.05 117.26 121.631 117.792 121.195H117.825Z" fill="#1A1E21"/>
</g>
<defs>
<clipPath id="clip0_142_240">
<rect width="135" height="144.66" fill="white"/>
</clipPath>
</defs>
</svg>
