<svg width="82" height="71" viewBox="0 0 82 71" fill="none" xmlns="http://www.w3.org/2000/svg">
<path d="M12.7011 13.9089L15.3422 2.55199L16.8032 2.89176L14.1621 14.2487L12.7011 13.9089ZM3.72253 11.6361L5.18354 11.9759L4.19594 16.2225L13.3127 18.3427L13.0318 19.5505L2.45405 17.0905L3.72253 11.6361ZM2.84909 4.2667L8.98534 5.69373L9.49726 3.49248L3.36101 2.06544L3.63735 0.877154L11.2151 2.63943L10.1505 7.21726L4.01427 5.79023L3.44346 8.24473L10.5732 9.90281L10.2923 11.1106L1.72105 9.11726L2.84909 4.2667ZM33.8187 9.49946L35.1978 10.0894L31.0921 19.6881L29.7129 19.0982L33.8187 9.49946ZM20.5963 13.4585L19.9336 12.2615L23.7847 10.1237C24.6693 9.63199 25.1074 9.01454 25.367 8.40772L26.0906 6.71598L27.3778 7.26656L26.6542 8.9583C26.3946 9.56512 26.2586 10.29 26.5061 11.2878L27.62 15.5492L26.2967 15.8968L25.1828 11.6354C25.1144 11.3886 25.0827 11.1575 25.051 10.9264C24.862 11.0631 24.673 11.1998 24.4473 11.3207L20.5963 13.4585ZM23.5216 24.368C21.2782 23.4084 20.3208 21.324 21.1782 19.3196C22.0355 17.3153 24.2041 16.5679 26.4475 17.5275C28.7093 18.4949 29.6851 20.5873 28.8278 22.5916C27.9704 24.596 25.7834 25.3355 23.5216 24.368ZM24.025 23.1912C25.4961 23.8204 26.9375 23.3493 27.5038 22.0253C28.0701 20.7013 27.4152 19.3336 25.9442 18.7044C24.4915 18.083 23.0684 18.562 22.5021 19.8859C21.9358 21.2099 22.5723 22.5698 24.025 23.1912ZM41.0355 23.0406L45.6102 17.3775L51.6778 22.2788L47.1032 27.942L41.0355 23.0406ZM37.5229 32.0041L37.7037 30.7618L42.0769 31.3634C43.0601 31.5149 43.4299 31.248 43.7316 30.8746L43.9452 30.6101L40.4602 27.795L41.2394 26.8304L44.7711 29.6832L45.7639 28.4542L46.8374 29.3213L45.8446 30.5504L49.3763 33.4033L48.5971 34.3679L45.1121 31.5527L44.8984 31.8172C44.6094 32.175 44.4639 32.5461 44.7559 33.5532L46.2607 37.674L45.0842 38.112L43.5483 33.966C43.3915 33.4281 43.3155 32.981 43.3174 32.5969C42.9296 32.695 42.464 32.7303 41.871 32.6369L37.5229 32.0041ZM42.9505 22.9934L46.7467 26.0599L49.7754 22.3104L45.9793 19.2439L42.9505 22.9934ZM49.462 31.1329L55.2808 23.9295L56.4476 24.872L50.6288 32.0754L49.462 31.1329ZM72.268 44.2196L73.0964 45.3975L59.2727 55.1193L58.4443 53.9415L72.268 44.2196ZM69.9734 41.6522L70.7903 42.8137L58.0299 51.7878L57.2131 50.6263L62.808 46.6915L61.4159 44.712C59.9777 44.8921 58.6215 44.3544 57.7471 43.1111C56.378 41.1643 57.0263 38.679 59.3002 37.0797C61.5906 35.469 64.1651 35.6878 65.5342 37.6346C66.4431 38.927 66.4481 40.4639 65.6941 41.8255L67.0287 43.7232L69.9734 41.6522ZM58.8432 42.3402C59.7406 43.6163 61.5185 43.7107 63.1545 42.5602C64.8068 41.3981 65.3355 39.6815 64.4381 38.4055C63.5407 37.1294 61.7464 37.0465 60.0941 38.2085C58.4582 39.3591 57.9458 41.0642 58.8432 42.3402ZM62.6948 44.3749L63.8223 45.9782L66.0144 44.4365L64.9099 42.866C64.6288 43.1615 64.3082 43.4358 63.9483 43.689C63.5393 43.9766 63.1122 44.2036 62.6948 44.3749ZM81.0434 61.433L81.6591 62.7788L73.493 66.5145L72.8773 65.1687L74.7142 64.3283L72.9088 60.3817C71.6006 60.1664 70.4498 59.2853 69.7842 57.8303C68.7358 55.5387 69.5496 53.231 71.7321 52.2326C73.9327 51.2259 76.2108 52.1192 77.2591 54.4107C77.8831 55.7748 77.8352 57.1603 77.242 58.2674L79.0973 62.3232L81.0434 61.433ZM68.1552 57.0579L72.6564 66.8972L68.8734 68.6278L65.0046 60.1707L63.1859 61.0027L67.2544 69.8963L66.1631 70.3955L61.4789 60.1561L65.4256 58.3506L69.2944 66.8077L70.9494 66.0506L67.064 57.5571L68.1552 57.0579ZM70.9118 57.3144C71.594 58.8058 73.1496 59.3698 74.6774 58.6709C76.2233 57.9637 76.8138 56.4179 76.1315 54.9266C75.4493 53.4352 73.8937 52.8713 72.3478 53.5785C70.82 54.2773 70.2295 55.8231 70.9118 57.3144ZM76.4003 59.3123C76.0865 59.5878 75.7114 59.8254 75.293 60.0168C74.9293 60.1832 74.5853 60.2965 74.2163 60.3554L75.8054 63.8291L78.0061 62.8224L76.4003 59.3123Z" fill="black"/>
</svg>
