<svg width="60" height="54" viewBox="0 0 60 54" fill="none" xmlns="http://www.w3.org/2000/svg">
<path d="M9.62113 1.70578L4.57045 15.2123L3.22167 14.708L7.68392 2.77499L4.53866 3.64869L4.17462 2.33817L8.27235 1.20141L9.62113 1.70578ZM25.1321 7.90991L26.4452 8.63518L22.9445 14.9726L25.5005 16.3845L24.8913 17.4874L22.3353 16.0755L18.2738 23.4284L16.9608 22.7031L25.1321 7.90991ZM9.67277 13.3537L9.18792 12.0806L13.9272 10.243C15.0548 9.81486 15.5702 9.25414 15.928 8.60639L16.3535 7.8361L13.1147 6.0471L13.7143 4.96168L16.988 6.77002L18.0227 4.8968L19.2307 5.56405L18.196 7.43727L21.4172 9.2166L20.8177 10.302L17.5789 8.51302L17.1534 9.28331C16.7956 9.93106 16.5954 10.6658 16.8333 11.8483L17.8012 16.8384L16.4654 17.1058L15.4975 12.1157C15.4325 11.7371 15.3849 11.3681 15.3803 11.0457C15.1048 11.2134 14.7672 11.3696 14.4121 11.5162L9.67277 13.3537ZM28.3479 24.3217L29.2403 23.4323L40.4083 34.6371L39.5159 35.5266L34.4613 30.4554L30.4383 34.4651L29.3794 33.4027L33.4024 29.393L28.3479 24.3217ZM31.8985 23.7761L32.1552 22.4471L37.5417 23.4601C38.5879 23.6598 39.1255 23.5193 39.4936 23.2653L35.8651 19.6248L36.7434 18.7494L40.4284 22.4466L41.7033 21.1759L42.7763 22.2525L41.5014 23.5232L45.1864 27.2204L44.3082 28.0957L40.6655 24.441C40.4103 24.8083 40.268 25.3455 40.4643 26.3923L41.4595 31.7821L40.1297 32.0345L39.1345 26.6447C38.9943 25.9091 38.9811 25.3292 39.0668 24.8485C38.5858 24.9326 38.0201 24.9317 37.285 24.789L31.8985 23.7761ZM40.8693 39.9665L45.9138 47.8033L47.3937 46.8506L42.3167 38.9634L43.2753 38.3464L45.8409 42.332L47.2367 41.4335L43.3829 35.4467L44.3583 34.8188L52.8994 48.0875L51.924 48.7154L48.0486 42.6948L46.6528 43.5933L49.1534 47.4781L45.8068 49.6323L40.7731 41.8123L39.31 42.7541L44.6468 51.045L43.6714 51.6728L37.5227 42.1207L40.8693 39.9665ZM46.1798 36.4292L46.7968 35.3184L50.9633 37.7265C51.6834 38.1431 52.1268 38.1669 52.3491 38.1427L49.7186 34.0561L50.7612 33.385L53.4351 37.5388L54.5113 36.846L55.2908 38.0568L54.2145 38.7496L56.8883 42.9034L55.8456 43.5746L53.2259 39.5049C53.1119 39.6972 52.9716 40.1443 53.0093 40.905L53.476 45.6946L52.2095 45.7963L51.7428 41.0067C51.7039 40.3181 51.7733 39.7977 51.9076 39.3783C51.481 39.3437 50.951 39.1854 50.3463 38.8373L46.1798 36.4292Z" fill="black"/>
</svg>
