<svg width="61" height="56" viewBox="0 0 61 56" fill="none" xmlns="http://www.w3.org/2000/svg">
<path d="M0.523862 12.3134C4.20279 10.7728 9.52254 9.1037 10.4813 6.66542C11.1619 4.93443 10.5468 3.27418 8.9647 2.65209C7.82932 2.20566 6.32005 2.60077 5.29725 3.61698L4.27372 2.61279C5.61773 1.27158 7.75794 0.802194 9.43309 1.46087C11.7969 2.39034 12.7801 4.75408 11.8214 7.19236C10.709 10.0215 5.90514 11.6356 2.34792 13.0306L8.78796 15.5629L8.31956 16.7541L0.241597 13.5778L0.523862 12.3134ZM28.3387 9.924L29.6198 10.7042L25.8542 16.8878L28.3481 18.4066L27.6928 19.4827L25.1988 17.964L20.8299 25.1384L19.5487 24.3582L28.3387 9.924ZM12.6628 14.7089L12.2323 13.4163L17.0451 11.7809C18.1898 11.4009 18.7284 10.8625 19.1133 10.2304L19.571 9.47882L16.4108 7.5544L17.0558 6.49532L20.2501 8.44055L21.3631 6.61279L22.5418 7.33055L21.4287 9.15831L24.5718 11.0723L23.9269 12.1314L20.7667 10.207L20.309 10.9586C19.9241 11.5906 19.693 12.3163 19.8807 13.5077L20.6366 18.5343L19.2906 18.745L18.5347 13.7184C18.4858 13.3374 18.4539 12.9667 18.4629 12.6443C18.1806 12.8003 17.8366 12.9421 17.4756 13.0735L12.6628 14.7089ZM30.8525 26.4828L31.7846 25.6351L42.4288 37.3387L41.4967 38.1864L36.6792 32.8895L32.4772 36.7112L31.4679 35.6015L35.67 31.7798L30.8525 26.4828ZM34.4243 26.1L34.7415 24.7842L40.0761 26.0423C41.112 26.2896 41.6555 26.1738 42.0349 25.9369L38.5765 22.1344L39.4939 21.3001L43.0061 25.1618L44.3377 23.9507L45.3604 25.0752L44.0288 26.2863L47.5409 30.148L46.6236 30.9823L43.1518 27.165C42.8801 27.5202 42.7134 28.0503 42.8616 29.105L43.6094 34.5347L42.2695 34.726L41.5217 29.2964C41.4152 28.5551 41.4286 27.9753 41.5361 27.499C41.0518 27.561 40.4867 27.5342 39.7589 27.3581L34.4243 26.1ZM42.6534 42.6607L47.3825 50.6918L48.8991 49.7988L44.1396 41.716L45.1219 41.1375L47.527 45.222L48.9575 44.3797L45.3447 38.2444L46.3443 37.6558L54.3512 51.2534L53.3517 51.842L49.7186 45.6723L48.2882 46.5146L50.6324 50.4956L47.2028 52.5151L42.4839 44.5013L40.9845 45.3842L45.9876 53.8806L44.988 54.4692L39.2238 44.6802L42.6534 42.6607ZM48.1003 39.3373L48.761 38.2519L52.8285 40.8237C53.5314 41.2686 53.9735 41.3099 54.1966 41.2946L51.7306 37.1068L52.7991 36.4776L55.3057 40.7344L56.4087 40.0849L57.1394 41.3257L56.0364 41.9752L58.543 46.232L57.4745 46.8612L55.0186 42.6906C54.897 42.8782 54.739 43.3194 54.7465 44.081L55.0225 48.8854L53.7529 48.9366L53.4769 44.1322C53.4655 43.4427 53.5555 42.9255 53.7064 42.5117C53.2815 42.4602 52.7581 42.2809 52.1678 41.909L48.1003 39.3373Z" fill="black"/>
</svg>
