<svg width="62" height="57" viewBox="0 0 62 57" fill="none" xmlns="http://www.w3.org/2000/svg">
<path d="M10.5221 8.47347L12.5554 9.31357L14.648 4.24885L15.9604 4.7911L10.0186 19.1719L8.70623 18.6297L12.0819 10.4596L10.0486 9.6195L10.5221 8.47347ZM18.0617 5.20484L19.3925 5.75472L12.939 21.374L11.6082 20.8241L18.0617 5.20484ZM8.78803 13.0371L8.31452 14.1832L1.86347 11.5177L5.96468 1.59163L12.0645 4.11193L11.5834 5.27645L6.85138 3.32131L5.58359 6.38971L9.89045 8.1692L9.38639 9.38917L5.07953 7.60968L3.70483 10.9369L8.78803 13.0371ZM34.8157 15.5362L36.0503 16.3882L26.4285 30.3304L25.1939 29.4784L34.8157 15.5362ZM22.0169 20.3845C19.8112 18.8623 19.3607 16.17 20.9397 13.882C22.5301 11.5775 25.2185 11.027 27.4242 12.5493C29.6299 14.0715 30.0526 16.7689 28.4622 19.0734C26.8832 21.3614 24.2226 21.9068 22.0169 20.3845ZM22.778 19.2817C24.2924 20.3268 26.1411 19.9016 27.2771 18.2555C28.4244 16.593 28.1775 14.6972 26.6631 13.6521C25.1487 12.607 23.2722 13.0373 22.1249 14.6999C20.9889 16.3459 21.2636 18.2366 22.778 19.2817ZM31.0998 29.3456L41.802 41.0504L40.8868 41.8872L30.1846 30.1823L31.0998 29.3456ZM34.7296 28.8993L34.9303 27.5776L40.6815 28.4436C42.0597 28.6469 42.6952 28.3639 43.1528 27.9455L44.7026 26.5284L45.7958 27.724L44.246 29.1411C43.7884 29.5595 43.4498 30.1672 43.5291 31.558L43.878 37.3636L42.5437 37.4454L42.1947 31.6399C42.1428 30.9014 42.1989 30.2811 42.3334 29.8058C41.8345 29.8826 41.2116 29.883 40.4808 29.7654L34.7296 28.8993ZM60.7058 46.6435L61.481 47.9509L52.3289 53.3775L51.5537 52.07L60.7058 46.6435ZM52.9502 48.0333L51.8836 48.6657L47.426 41.1479L54.1009 37.1902L58.0688 43.8823L57.0022 44.5147L53.7891 39.0956L52.172 40.0545L55.3137 45.3531L54.1783 46.0263L51.0366 40.7277L49.2474 41.7885L52.9502 48.0333ZM43.5154 52.3951C42.271 50.2963 42.7286 48.0486 44.6038 46.9368C46.4789 45.8249 48.6706 46.5018 49.9151 48.6006C51.1697 50.7166 50.7223 52.9815 48.8471 54.0933C46.9719 55.2052 44.7701 54.5111 43.5154 52.3951ZM44.6164 51.7423C45.4325 53.1185 46.874 53.5891 48.1127 52.8547C49.3513 52.1203 49.6301 50.6297 48.814 49.2534C48.0082 47.8943 46.5768 47.441 45.3382 48.1754C44.0996 48.9098 43.8106 50.3832 44.6164 51.7423Z" fill="black"/>
</svg>
