<svg width="63" height="107" viewBox="0 0 63 107" fill="none" xmlns="http://www.w3.org/2000/svg">
<path d="M56.6816 19.3259L49.9111 105.842H8.02344L1.25293 19.3259H56.6816Z" stroke="#2E2E2E" stroke-width="2.31739"/>
<path d="M55.3945 37.623L49.8281 106.083H8.11621L3.30176 37.623H55.3945Z" fill="#2E2E2E" stroke="#2E2E2E" stroke-width="1.83376"/>
<rect x="7.65889" y="81.8551" width="17.5391" height="17.5391" transform="rotate(-43.1678 7.65889 81.8551)" fill="white" stroke="#2E2E2E"/>
<rect x="26.197" y="52.5016" width="17.5391" height="17.5391" transform="rotate(-43.1678 26.197 52.5016)" fill="white" stroke="#2E2E2E"/>
<rect x="51.0559" y="79.4914" width="17.5391" height="17.5391" transform="rotate(154.694 51.0559 79.4914)" fill="white" stroke="#2E2E2E"/>
<rect x="43.8237" y="104.486" width="17.5391" height="17.5391" transform="rotate(-174.912 43.8237 104.486)" fill="white" stroke="#2E2E2E"/>
<rect x="30.9719" y="64.0422" width="17.5391" height="17.5391" transform="rotate(154.694 30.9719 64.0422)" fill="white" stroke="#2E2E2E"/>
<path d="M59.8672 0.180176C60.8306 -0.274262 61.9332 0.161057 62.3301 1.15186C62.7267 2.14291 62.2672 3.31535 61.3037 3.77002L47.5166 10.2749L23.96 99.5728C23.6879 100.604 22.64 101.185 21.6211 100.87C20.6028 100.554 19.9978 99.4621 20.2695 98.4312L44.0029 8.46631C44.1952 7.7379 44.7746 7.23553 45.457 7.11377C45.6167 6.95336 45.8041 6.81757 46.0166 6.71729L59.8672 0.180176Z" fill="#2E2E2E"/>
</svg>
