<svg width="83" height="98" viewBox="0 0 83 98" fill="none" xmlns="http://www.w3.org/2000/svg">
<g clip-path="url(#clip0_140_41)">
<path d="M64.6219 35.2373V45.1439H3.14156V35.2373H64.6219ZM65.8471 32.1023H1.91635C0.848221 32.1023 0 32.9801 0 34.0146V48.2789H67.7634V34.0146C67.7634 32.9487 66.9152 32.1023 65.8471 32.1023Z" fill="#2E2E2E"/>
<path d="M0 46.5547V69.5029C0 85.2405 12.7861 98 28.5568 98H39.2067C54.9773 98 67.7634 85.2405 67.7634 69.5029V46.5547H0Z" fill="#2E2E2E"/>
<path d="M18.9752 24.0455H16.4619C16.4619 22.1959 18.0013 20.6597 19.5092 19.1549C20.5774 18.089 21.8026 16.8664 21.8026 16.0199C21.8026 15.1735 20.5774 13.9822 19.5092 12.8849C18.0013 11.3801 16.4619 9.84399 16.4619 7.99434C16.4619 6.14469 18.0013 4.60854 19.5092 3.10375C20.5774 2.03785 21.8026 0.815199 21.8026 -0.03125H24.3158C24.3158 1.8184 22.7764 3.35455 21.2685 4.85934C20.2004 5.92524 18.9752 7.14789 18.9752 7.99434C18.9752 8.84079 20.2004 10.0321 21.2685 11.1293C22.7764 12.6341 24.3158 14.1703 24.3158 16.0199C24.3158 17.8696 22.7764 19.4057 21.2685 20.9105C20.2004 21.9764 18.9752 23.1991 18.9752 24.0455Z" fill="#2E2E2E"/>
<path d="M32.484 24.0455H29.9707C29.9707 22.1959 31.5101 20.6597 33.018 19.1549C34.0861 18.089 35.3114 16.8664 35.3114 16.0199C35.3114 15.1735 34.0861 13.9822 33.018 12.8849C31.5101 11.3801 29.9707 9.84399 29.9707 7.99434C29.9707 6.14469 31.5101 4.60854 33.018 3.10375C34.0861 2.03785 35.3114 0.815199 35.3114 -0.03125H37.8246C37.8246 1.8184 36.2852 3.35455 34.7773 4.85934C33.7092 5.92524 32.484 7.14789 32.484 7.99434C32.484 8.84079 33.7092 10.0321 34.7773 11.1293C36.2852 12.6341 37.8246 14.1703 37.8246 16.0199C37.8246 17.8696 36.2852 19.4057 34.7773 20.9105C33.7092 21.9764 32.484 23.1991 32.484 24.0455Z" fill="#2E2E2E"/>
<path d="M45.9615 24.0455H43.4482C43.4482 22.1959 44.9876 20.6597 46.4956 19.1549C47.5637 18.089 48.7889 16.8664 48.7889 16.0199C48.7889 15.1735 47.5637 13.9822 46.4956 12.8849C44.9876 11.3801 43.4482 9.84399 43.4482 7.99434C43.4482 6.14469 44.9876 4.60854 46.4956 3.10375C47.5637 2.03785 48.7889 0.815199 48.7889 -0.03125H51.3021C51.3021 1.8184 49.7628 3.35455 48.2548 4.85934C47.1867 5.92524 45.9615 7.14789 45.9615 7.99434C45.9615 8.84079 47.1867 10.0321 48.2548 11.1293C49.7628 12.6341 51.3021 14.1703 51.3021 16.0199C51.3021 17.8696 49.7628 19.4057 48.2548 20.9105C47.1867 21.9764 45.9615 23.1991 45.9615 24.0455Z" fill="#2E2E2E"/>
<path d="M67.7639 75.773C59.3759 75.773 52.5273 69.2522 52.5273 61.258C52.5273 53.2637 59.3759 46.7429 67.7639 46.7429C76.1519 46.7429 83.0005 53.2637 83.0005 61.258C83.0005 69.2522 76.1833 75.773 67.7639 75.773ZM67.7639 49.8466C61.1038 49.8466 55.6689 54.9566 55.6689 61.2266C55.6689 67.4966 61.1038 72.6066 67.7639 72.6066C74.424 72.6066 79.8589 67.4966 79.8589 61.2266C79.8589 54.9566 74.424 49.8466 67.7639 49.8466Z" fill="#2E2E2E"/>
</g>
<defs>
<clipPath id="clip0_140_41">
<rect width="83" height="98" fill="white"/>
</clipPath>
</defs>
</svg>
