<svg width="214" height="30" viewBox="0 0 214 30" fill="none" xmlns="http://www.w3.org/2000/svg">
<g clip-path="url(#clip0_142_179)">
<path d="M18.6762 8.41994V0.550781H21.9288V29.3126H18.6762V23.1353C16.5253 25.8632 13.9285 27.7125 10.912 28.6961C9.60044 29.1289 8.36761 29.3388 7.23969 29.3388C5.74455 29.3388 4.4068 28.9716 3.21331 28.2371C1.07552 26.9387 0.0131836 24.8665 0.0131836 22.0205C0.0131836 19.1745 1.07552 16.394 3.21331 13.6529C5.33798 10.925 7.90857 9.06259 10.9251 8.0396C13.9416 7.01661 16.5253 7.14776 18.6893 8.43306L18.6762 8.41994ZM5.7839 27.319C6.33474 27.6469 6.97739 27.8436 7.72496 27.883C8.48564 27.9355 9.29879 27.8043 10.1906 27.4895C11.0825 27.1748 11.9874 26.6895 12.9055 26.0206C13.8367 25.3124 14.676 24.4861 15.4498 23.5287C16.2236 22.5451 16.8663 21.4827 17.3909 20.3286C17.9286 19.1613 18.2827 18.0203 18.4795 16.8793C18.6762 15.7251 18.7287 14.6497 18.5975 13.666C18.4664 12.7086 18.2172 11.8693 17.8368 11.161C17.4696 10.5053 17.0106 9.98066 16.4728 9.57408C15.922 9.18063 15.3056 8.94455 14.6236 8.83963C13.876 8.73471 13.0891 8.78717 12.2628 8.99701C11.3448 9.2462 10.4529 9.66589 9.5611 10.2561C8.62991 10.8725 7.75119 11.6463 6.92493 12.5644C6.13801 13.4693 5.42979 14.4923 4.82649 15.6333C4.26253 16.7744 3.82973 17.9285 3.56742 19.0958C3.292 20.2499 3.20019 21.3385 3.26577 22.3877C3.31823 23.3582 3.51496 24.2501 3.86907 25.0501C4.17072 25.7846 4.60353 26.3747 5.15437 26.8207C5.33798 27.0043 5.56094 27.1617 5.79701 27.2797L5.7839 27.319Z" fill="white"/>
<path d="M105.775 2.53139C105.775 2.53139 107.139 1.71824 106.535 1.61332C105.486 1.42971 104.502 1.46905 103.506 1.46905C102.666 1.46905 101.525 1.66578 100.581 1.88874C99.5711 2.15105 98.5612 2.61008 97.5775 3.23962C96.5414 3.88226 95.5709 4.70852 94.6791 5.69217C93.7872 6.67581 93.0003 7.7775 92.3446 9.01033C91.715 10.1907 91.2429 11.4235 90.915 12.7088C90.6789 13.7187 90.5609 14.6892 90.5609 15.6073H94.8496V17.1287H90.5609V29.1554H86.9673V15.7385C86.9673 13.6663 87.5706 11.5547 88.7641 9.39067C89.9707 7.20042 91.6232 5.31183 93.7085 3.69865C95.7939 2.09859 97.9841 1.02314 100.306 0.472294C101.329 0.236219 102.679 0.000144557 103.597 0.000144557C104.896 -0.0129707 108.476 -0.0654318 109.276 0.446064L105.761 2.53139H105.775Z" fill="white"/>
<path d="M29.0897 28.1972L42.3493 27.5152V29.194H24.9453V0.537109H42.3493V2.17652L29.0897 1.54698V13.8622H37.0376V14.859H29.0897V28.2103V28.1972Z" fill="white"/>
<path d="M49.038 28.1972L62.2975 27.5152V29.194H44.8936V0.537109H62.2975V2.17652L49.038 1.54698V13.8622H56.9858V14.859H49.038V28.2103V28.1972Z" fill="white"/>
<path d="M72.1994 0.537109C74.3766 0.537109 76.2258 0.746954 77.7472 1.16664C79.2554 1.58633 80.5014 2.17652 81.4457 2.9372C82.4031 3.69789 83.0851 4.58973 83.5179 5.63895C83.9376 6.68817 84.1474 7.8292 84.1474 9.06203C84.1474 11.6326 83.1244 13.6524 81.0785 15.1213C79.0325 16.5902 76.0553 17.3246 72.147 17.3246H68.9206V29.1808H64.7893V0.537109H72.1994ZM72.383 16.3935C73.4716 16.3935 74.4553 16.2099 75.334 15.8426C76.2127 15.4754 76.9603 14.977 77.5767 14.3213C78.1931 13.6655 78.6784 12.8917 79.0063 11.9867C79.3341 11.0818 79.5046 10.085 79.5046 8.98334C79.5046 6.74063 78.9407 4.94384 77.8259 3.57985C76.7111 2.21586 75.0192 1.53387 72.7896 1.53387H68.9337V16.3935H72.383Z" fill="white"/>
<path d="M122.943 27.5157C124.031 27.5157 125.08 27.4239 126.103 27.2141C127.113 27.0173 128.123 26.7157 129.12 26.3222L129.71 27.9616C128.346 28.3551 127.074 28.6305 125.867 28.801C124.674 28.9715 123.585 29.0502 122.615 29.0502C121.316 29.0502 120.031 28.9322 118.759 28.7092C117.487 28.4862 116.241 28.237 115.034 27.9616C113.828 27.6862 112.66 27.437 111.559 27.2141C110.457 26.9911 109.395 26.8731 108.398 26.8731C106.968 26.8731 105.735 27.0829 104.673 27.5157C103.611 27.9354 102.509 28.4994 101.355 29.1945L100.45 28.1452C101.001 27.8174 101.657 27.437 102.443 27.0042C103.23 26.5845 104.148 26.2304 105.211 25.955V0.445801H109.342V25.5222C110.247 25.5222 111.244 25.6271 112.346 25.837C113.434 26.0468 114.575 26.2698 115.755 26.5189C116.936 26.7681 118.129 26.9911 119.349 27.2009C120.556 27.4108 121.762 27.5157 122.943 27.5157ZM140.019 29.1027H135.205L131.795 18.9252C131.546 18.8596 131.271 18.8203 130.93 18.7941C130.379 18.7022 129.645 18.6629 128.7 18.6629C127.887 18.6629 126.969 18.7416 125.946 18.8859C124.936 19.0432 123.939 19.3187 122.969 19.7515C121.998 20.1712 121.08 20.7876 120.202 21.5745C119.323 22.3614 118.615 23.3975 118.064 24.6697L117.513 26.0337L115.965 25.5353L125.303 0.445801H129.579L140.032 29.1027H140.019ZM119.165 20.9318C119.769 20.2367 120.438 19.6728 121.159 19.2531C121.88 18.8334 122.641 18.5055 123.402 18.2826C124.175 18.0596 124.949 17.9022 125.723 17.8104C126.497 17.7186 127.218 17.6793 127.887 17.6793C128.399 17.6793 128.884 17.6924 129.317 17.7186C129.749 17.7448 130.143 17.7842 130.471 17.8104C130.838 17.876 131.166 17.9284 131.468 17.994L125.92 1.78356L119.152 20.9581L119.165 20.9318Z" fill="white"/>
<path d="M162.092 0.537109L151.508 29.194H147.284L136.792 0.537109H141.606L151.009 28.1972L160.413 0.537109H162.092Z" fill="white"/>
<path d="M174.814 0.0390625C176.453 0.0390625 178.027 0.393175 179.561 1.08828C181.096 1.78339 182.434 2.78015 183.575 4.06545C184.729 5.35074 185.647 6.89835 186.342 8.72137C187.037 10.5444 187.391 12.551 187.391 14.7675C187.391 16.984 187.037 18.9906 186.342 20.7874C185.647 22.5842 184.716 24.1318 183.575 25.4171C182.42 26.7024 181.083 27.6992 179.561 28.4205C178.027 29.1287 176.453 29.4828 174.814 29.4828C173.174 29.4828 171.6 29.1287 170.066 28.4205C168.531 27.7123 167.181 26.7155 166 25.4171C164.82 24.1318 163.875 22.5842 163.154 20.7874C162.446 18.9906 162.092 16.984 162.092 14.7675C162.092 12.551 162.446 10.5444 163.154 8.72137C163.862 6.89835 164.807 5.35074 166 4.06545C167.181 2.78015 168.531 1.78339 170.066 1.08828C171.6 0.393175 173.174 0.0390625 174.814 0.0390625ZM174.761 28.5648C175.876 28.5648 176.938 28.1975 177.922 27.4762C178.906 26.7549 179.771 25.7712 180.506 24.5253C181.253 23.2793 181.83 21.8366 182.25 20.1579C182.67 18.4922 182.879 16.7086 182.879 14.7937C182.879 12.8789 182.67 11.0952 182.25 9.42959C181.83 7.76395 181.24 6.30816 180.506 5.06221C179.758 3.81626 178.906 2.83261 177.922 2.11127C176.938 1.38993 175.889 1.02271 174.761 1.02271C173.633 1.02271 172.584 1.38993 171.587 2.11127C170.59 2.83261 169.712 3.82937 168.977 5.06221C168.23 6.30816 167.653 7.76395 167.233 9.42959C166.813 11.0952 166.603 12.8789 166.603 14.7937C166.603 16.7086 166.813 18.4922 167.233 20.1579C167.653 21.8235 168.243 23.2793 168.977 24.5253C169.725 25.7712 170.59 26.7549 171.587 27.4762C172.584 28.1975 173.646 28.5648 174.761 28.5648Z" fill="white"/>
<path d="M204.113 18.9378C204.388 19.2657 204.755 19.7379 205.227 20.3412C205.7 20.9445 206.224 21.6002 206.788 22.2953C207.365 22.9904 207.982 23.6987 208.624 24.4331C209.28 25.1545 209.897 25.8233 210.487 26.4135C211.077 27.0037 211.628 27.4759 212.139 27.8431C212.651 28.2103 213.084 28.3939 213.411 28.3939V29.2071H210.998C209.752 29.2071 208.821 29.0235 208.205 28.6562C207.588 28.289 207.011 27.8693 206.5 27.3841C205.988 26.8988 205.385 26.2693 204.703 25.4955C204.021 24.7217 203.326 23.9085 202.618 23.0691C201.909 22.2166 201.227 21.3904 200.572 20.5772C199.916 19.7641 199.365 19.069 198.919 18.4919C198.644 18.1247 198.342 17.8493 198.014 17.6525C197.686 17.4558 197.293 17.3509 196.834 17.3509H195.601C195.391 17.3771 195.168 17.3902 194.919 17.3902V29.194H190.788V0.537109H198.198C200.375 0.537109 202.224 0.746954 203.745 1.16664C205.254 1.58633 206.5 2.17652 207.444 2.9372C208.401 3.69789 209.083 4.58973 209.516 5.63895C209.936 6.68817 210.146 7.8292 210.146 9.06203C210.146 11.2129 209.424 12.9835 207.982 14.3737C206.539 15.7639 204.441 16.6689 201.686 17.1017C202.198 17.3509 202.644 17.6001 203.024 17.8493C203.404 18.1116 203.759 18.4657 204.086 18.9116L204.113 18.9378ZM198.381 16.3935C199.47 16.3935 200.454 16.2099 201.332 15.8426C202.211 15.4754 202.959 14.977 203.575 14.3213C204.191 13.6655 204.677 12.8917 205.005 11.9867C205.332 11.0818 205.503 10.085 205.503 8.98334C205.503 6.74063 204.939 4.94384 203.824 3.57985C202.709 2.21586 201.018 1.53387 198.788 1.53387H194.932V16.3935H198.381Z" fill="white"/>
</g>
<defs>
<clipPath id="clip0_142_179">
<rect width="213.425" height="29.47" fill="white"/>
</clipPath>
</defs>
</svg>
