<svg width="26" height="31" viewBox="0 0 26 31" fill="none" xmlns="http://www.w3.org/2000/svg">
<path d="M21.2999 29.5921H3.81075C2.26037 29.5921 1 28.4249 1 26.9891L2.2046 10.7924C2.2046 9.35659 3.46498 8.18935 5.01536 8.18935H20.0841C21.6345 8.18935 22.8949 9.35659 22.8949 10.7924L24.0995 26.9891C24.0995 28.4249 22.8391 29.5921 21.2887 29.5921H21.2999Z" stroke="white" stroke-width="2" stroke-miterlimit="10"/>
<path d="M17.452 11.1333C17.452 13.633 15.2658 15.6679 12.5554 15.6679C9.84508 15.6679 7.65894 13.6433 7.65894 11.1333" stroke="white" stroke-width="2" stroke-miterlimit="10" stroke-linecap="round"/>
<path d="M18.4335 6.43333C18.4335 3.42744 15.8012 1 12.5666 1C9.332 1 6.69971 3.43777 6.69971 6.43333C6.69971 7.03244 6.83355 7.59024 7.02317 8.12737H18.1212C18.3108 7.59024 18.4446 7.02211 18.4446 6.43333H18.4335Z" stroke="white" stroke-width="2" stroke-miterlimit="10"/>
</svg>
