<svg width="160" height="85" viewBox="0 0 160 85" fill="none" xmlns="http://www.w3.org/2000/svg">
<g clip-path="url(#clip0_110_67)">
<path d="M32.4426 40.6395C31.7745 40.514 31.3152 40.4304 31.0647 40.4304C30.9395 40.4304 30.5637 40.514 29.8956 40.6395C29.0605 40.8067 27.9332 41.1412 26.4718 41.6011C24.7182 42.2282 23.2985 42.5209 22.2547 42.5209C21.8789 42.5209 20.8768 42.4373 19.3319 42.27C18.6221 42.1446 17.0772 41.9774 14.7808 41.7683C11.8998 41.5175 10.1461 41.3084 9.56159 41.1412C8.43424 40.8485 7.3904 40.6813 6.47182 40.6813C4.75992 40.6813 3.34029 41.2666 2.29645 42.3955C1.46138 43.3153 0.91858 44.2769 0.584551 45.3222C0.208768 46.4929 0 48.0817 0 50.1722V51.4265C0 55.9838 0.584551 59.454 1.79541 61.8372C3.04802 64.1367 4.71816 65.3074 6.88935 65.3074C7.55741 65.3074 8.35073 65.0984 9.22756 64.7221C9.77035 64.513 10.1461 64.2622 10.3549 64.0531C10.5637 63.8441 10.6472 63.5514 10.6472 63.1333C10.6472 62.7988 10.6054 62.4225 10.4802 61.9626C10.3967 61.3773 10.3132 60.6247 10.3132 59.6631C10.3132 58.8269 10.3132 58.2833 10.3549 58.0325C10.5219 54.3114 11.357 52.0954 12.8601 51.3847C13.2359 51.1756 13.6952 51.092 14.1962 51.092C15.4489 51.092 16.4092 51.6773 17.0355 52.8062C17.2443 53.1407 17.3695 53.4752 17.4113 53.8515C17.4948 54.2277 17.4948 54.9803 17.4948 56.0256C17.4948 57.698 17.3695 59.2032 17.1608 60.5829C17.0355 61.3355 16.952 62.0044 16.952 62.6316C16.952 63.3842 17.3278 63.9695 18.0376 64.4294C19.0397 65.0148 20 65.3074 20.9186 65.3074C22.0042 65.3074 22.9645 64.973 23.7996 64.3458C24.4676 63.8023 24.8434 63.426 24.9269 63.2169C25.0939 62.8406 25.1775 62.2553 25.1775 61.5027C25.1775 61.4191 25.1775 61.2937 25.1775 61.1264C25.1775 60.9592 25.1775 60.6665 25.1357 60.2902C25.0939 59.9139 25.1357 59.5376 25.1357 59.1613C25.1357 58.7014 25.1357 58.2833 25.1357 57.8234C25.1357 57.3635 25.1357 57.0708 25.0939 56.8618C25.0522 56.6527 25.0939 56.5273 25.0939 56.4437C25.0939 55.8165 25.1357 55.3148 25.261 54.9803C25.4697 54.2277 25.8455 53.6424 26.3883 53.2661C26.9311 52.8898 27.4739 52.6808 28.1002 52.6808C28.9353 52.6808 29.6451 52.9734 30.2714 53.6006C30.7307 54.0605 31.0647 54.604 31.3152 55.2312C31.524 55.7329 31.6075 56.6109 31.6075 57.8234C31.6075 58.6596 31.6075 59.2032 31.5658 59.4958C31.5658 59.8721 31.524 60.5411 31.524 61.5027C31.524 62.3389 31.6075 62.8406 31.7328 63.1333C31.858 63.426 32.2338 63.6768 32.8184 64.0113C33.3194 64.304 33.9875 64.4712 34.739 64.4712C36.2839 64.4712 37.5365 63.8859 38.4969 62.6734C39.2902 61.7536 39.9165 60.5829 40.4593 59.0777C41.0438 57.3635 41.3361 55.942 41.3361 54.8131C41.3361 52.5972 40.4593 49.7123 38.7474 46.1584C37.1607 42.9808 35.1148 41.183 32.5678 40.7649L32.4426 40.6395Z" fill="#F15C45"/>
<path d="M67.8078 44.1097C65.4279 42.1028 62.7557 41.0575 59.8329 41.0575C59.1648 41.0575 58.4968 41.0994 57.8287 41.2248C56.2421 41.5175 53.9874 42.6045 51.0646 44.5278C48.3506 46.3256 46.5552 47.8726 45.6784 49.1687C44.7598 50.5066 44.3005 52.179 44.2588 54.1859C44.2588 57.1963 45.3026 59.7885 47.3486 61.9208C48.4759 63.0497 49.7703 63.9277 51.2316 64.4712C52.7765 65.0566 54.8642 65.4747 57.5364 65.6837C58.9561 65.8091 60.0417 65.8928 60.7097 65.8928C62.4216 65.8928 63.883 65.5583 65.0521 64.8475C66.0542 64.2622 67.6408 62.8824 69.8538 60.6665C71.2316 59.245 72.192 58.0743 72.7348 57.1545C73.2358 56.3182 73.5281 55.273 73.5699 54.0605V53.6006C73.5699 53.6006 73.5698 53.4752 73.6116 53.3915V53.2243C73.6116 52.7644 73.4446 52.0536 73.1106 51.0502C72.2755 48.5834 70.4801 46.2838 67.7661 44.0261L67.8078 44.1097ZM60.7515 57.029C59.9164 57.8652 58.9143 58.2833 57.7035 58.2833C57.62 58.2833 57.3694 58.2833 56.9101 58.1997C54.739 57.8234 53.6951 56.6109 53.6951 54.6877C53.6951 53.517 54.3214 52.4717 55.6158 51.5937C56.9101 50.6321 57.954 50.1722 58.7056 50.1722C58.8726 50.1722 59.2901 50.2558 59.9164 50.423C60.2504 50.5066 60.6262 50.7993 61.0438 51.301C61.4613 51.8028 61.7118 52.3045 61.8371 52.8062C61.9206 53.1407 62.0041 53.4752 62.0041 53.8933C62.0041 55.1476 61.5866 56.1928 60.7932 57.029H60.7515Z" fill="#F6BC3B"/>
<path d="M100.125 44.1097C97.7453 42.1028 95.073 41.0575 92.1503 41.0575C91.4822 41.0575 90.8142 41.0994 90.1461 41.2248C88.5595 41.5175 86.3048 42.6045 83.382 44.5278C80.668 46.3256 78.8726 47.8726 77.9958 49.1687C77.0772 50.5066 76.6179 52.179 76.5762 54.1859C76.5762 57.1963 77.62 59.7885 79.6659 61.9208C80.7933 63.0497 82.0877 63.9277 83.549 64.4712C85.0939 65.0566 87.1816 65.4747 89.8538 65.6837C91.2735 65.8091 92.3591 65.8928 93.0271 65.8928C94.739 65.8928 96.2004 65.5583 97.3695 64.8475C98.3716 64.2622 99.9582 62.8824 102.171 60.6665C103.549 59.245 104.509 58.0743 105.052 57.1545C105.553 56.3182 105.845 55.273 105.887 54.0605V53.6006C105.887 53.6006 105.887 53.4752 105.929 53.3915V53.2243C105.929 52.7644 105.762 52.0536 105.428 51.0502C104.593 48.5834 102.797 46.2838 100.083 44.0261L100.125 44.1097ZM93.0689 57.029C92.2338 57.8652 91.2317 58.2833 90.0208 58.2833C89.9373 58.2833 89.6868 58.2833 89.2275 58.1997C87.0563 57.8234 86.0125 56.6109 86.0125 54.6877C86.0125 53.517 86.6388 52.4717 87.9332 51.5937C89.2275 50.6321 90.2714 50.1722 91.0229 50.1722C91.1899 50.1722 91.6075 50.2558 92.2338 50.423C92.5678 50.5066 92.9436 50.7993 93.3611 51.301C93.7787 51.8028 94.0292 52.3045 94.1545 52.8062C94.238 53.1407 94.3215 53.4752 94.3215 53.8933C94.3215 55.1476 93.9039 56.1928 93.1106 57.029H93.0689Z" fill="#F6BC3B"/>
<path d="M141.879 47.998C141.879 47.998 141.879 47.4127 141.921 46.6601C141.962 45.9075 142.004 45.2804 142.004 44.695C142.004 44.3606 142.004 44.0261 142.004 43.608C142.004 43.1899 142.004 42.939 142.046 42.73C142.088 42.5209 142.046 42.3955 142.046 42.27C142.046 40.6813 141.754 39.2179 141.211 37.9636C140.668 36.7511 139.916 35.8313 138.956 35.2041C137.954 34.5352 136.91 34.2425 135.825 34.2425C135.073 34.2425 134.363 34.4097 133.737 34.7024C132.568 35.2041 131.44 36.4584 130.313 38.3817C129.144 40.4304 127.85 41.4757 126.43 41.4757C125.637 41.4757 124.426 41.183 122.797 40.5558C121.837 40.1795 120.752 40.0123 119.582 40.0123C118.58 40.0123 117.704 40.1377 117.035 40.3886C114.572 41.3084 112.651 42.8972 111.232 45.1549C109.812 47.3709 109.061 49.9213 109.061 52.7644C109.061 52.9316 109.061 53.517 109.144 54.5622C109.52 57.6144 110.271 59.9975 111.482 61.6281C112.693 63.2587 114.739 64.7639 117.662 66.1854C119.833 67.1889 121.837 67.6906 123.591 67.6906C124.593 67.6906 125.72 67.5234 126.973 67.2307C128.518 66.8544 129.77 66.6872 130.731 66.6872C131.482 66.6872 132.651 66.8544 134.238 67.1471C135.825 67.3979 136.785 67.5234 137.119 67.5234C137.787 67.5234 138.539 67.3143 139.457 66.8962C140.501 66.4363 141.336 65.5165 141.962 64.1367C142.296 63.5096 142.463 62.0462 142.463 59.6631C142.463 57.1126 142.255 53.4334 141.795 48.5834V47.9562L141.879 47.998ZM127.557 55.1476C126.096 56.5273 124.676 57.1963 123.34 57.1963C122.004 57.1963 120.96 56.6109 120.209 55.4821C119.833 54.9385 119.666 54.1441 119.666 53.0989C119.666 52.4299 119.749 51.9282 119.916 51.5101C120.334 50.5485 120.96 49.7959 121.795 49.1687C122.589 48.5834 123.424 48.2907 124.384 48.2907C125.094 48.2907 125.804 48.4998 126.472 48.876C128.184 49.7959 129.019 50.8829 129.019 52.179C129.019 53.1825 128.518 54.1859 127.557 55.1476Z" fill="#83AED9"/>
<path d="M154.53 29.2253C153.737 29.2253 153.027 29.3507 152.317 29.6016C150.981 30.0615 150.021 30.8141 149.395 31.9011C149.019 32.5701 148.81 33.3227 148.81 34.2007C148.81 34.9533 148.977 35.7477 149.353 36.5421C149.812 37.3783 150.188 37.9218 150.522 38.1308C150.898 38.3399 151.691 38.5071 152.818 38.5071C153.194 38.5071 153.862 38.5908 154.781 38.6744C154.99 38.6744 155.24 38.6744 155.449 38.6744C155.658 38.6744 155.866 38.6744 155.95 38.7162C156.033 38.758 156.117 38.7162 156.159 38.7162C156.326 38.7162 156.451 38.7162 156.618 38.7162C156.785 38.7162 156.869 38.7162 156.952 38.7998H157.036C157.37 38.7998 157.704 38.6326 158.079 38.3399C158.455 38.0472 158.914 37.4619 159.332 36.6257C159.75 35.7895 159.958 34.9533 159.958 34.0753C159.958 33.1972 159.791 32.4029 159.415 31.7757C158.455 30.0197 156.785 29.1417 154.489 29.1417L154.53 29.2253Z" fill="#3C9D7B"/>
<path d="M156.201 45.2804C154.656 44.9459 152.735 44.7787 150.397 44.7787C149.77 44.7787 149.436 44.7787 149.353 44.8205C148.601 45.1549 148.059 45.6149 147.725 46.242C146.973 47.7472 146.597 49.6704 146.597 52.0536C146.597 53.0989 146.639 54.3532 146.764 55.8165C146.973 58.9941 147.39 61.3773 148.1 62.9661C148.56 64.0113 149.311 64.8057 150.355 65.3492C150.981 65.6837 151.733 65.851 152.651 65.851C154.363 65.851 155.699 65.2656 156.743 64.1367C157.203 63.635 157.62 62.9243 157.954 62.0881C158.372 61.0846 158.664 60.2484 158.789 59.5794C158.873 59.1613 158.998 57.5726 159.165 54.8967C159.29 52.7226 159.374 50.7575 159.374 49.0851C159.374 47.6636 159.207 46.7019 158.873 46.2838C158.58 45.9075 157.662 45.5312 156.201 45.2386V45.2804Z" fill="#3C9D7B"/>
<path d="M26.5136 9.32366C25.9708 9.19823 25.595 9.15642 25.3862 9.15642C25.261 9.15642 24.9687 9.19823 24.4259 9.32366C23.7578 9.44909 22.8392 9.74176 21.6284 10.1181C20.2088 10.6198 19.0397 10.8706 18.2046 10.8706C17.8706 10.8706 17.0772 10.787 15.8246 10.6616C15.2401 10.5362 13.9875 10.4107 12.1085 10.2435C9.77034 10.0344 8.35072 9.86719 7.84968 9.74176C6.9311 9.4909 6.09602 9.36547 5.34446 9.36547C3.92483 9.36547 2.79748 9.82538 1.96241 10.787C1.29435 11.5396 0.835062 12.334 0.542786 13.1702C0.250511 14.0482 0.0834961 15.3443 0.0834961 17.0585V18.1038C0.0834961 21.8249 0.58454 24.6262 1.54487 26.5912C2.54696 28.4727 3.92483 29.4343 5.72024 29.4343C6.26304 29.4343 6.9311 29.2671 7.64091 28.9744C8.1002 28.8072 8.39247 28.5981 8.55949 28.4309C8.7265 28.2637 8.81001 28.0128 8.81001 27.6783C8.81001 27.4274 8.81001 27.093 8.68475 26.7167C8.60124 26.2568 8.55949 25.6296 8.55949 24.8352C8.55949 24.1244 8.55949 23.7063 8.55949 23.4973C8.68475 20.4452 9.35281 18.6473 10.6054 18.062C10.9394 17.8947 11.2735 17.8111 11.691 17.8111C12.7349 17.8111 13.4864 18.271 14.0292 19.2327C14.1962 19.4835 14.2797 19.7762 14.3632 20.0689C14.405 20.4033 14.4468 20.9887 14.4468 21.8249C14.4468 23.2046 14.3632 24.4171 14.1545 25.546C14.0292 26.1731 13.9875 26.7167 13.9875 27.2184C13.9875 27.8455 14.2797 28.3055 14.8643 28.6818C15.6994 29.1417 16.4927 29.3925 17.2025 29.3925C18.0793 29.3925 18.8726 29.1417 19.5407 28.5981C20.0835 28.1382 20.3758 27.8455 20.4593 27.6783C20.5845 27.3438 20.668 26.8839 20.668 26.2568C20.668 26.215 20.668 26.0895 20.668 25.9223C20.668 25.755 20.668 25.546 20.668 25.2533C20.668 24.9606 20.668 24.668 20.668 24.3335C20.668 23.9572 20.668 23.5809 20.668 23.2464C20.668 22.912 20.668 22.6193 20.668 22.452C20.668 22.2848 20.668 22.1594 20.668 22.1176C20.668 21.6158 20.668 21.1977 20.7933 20.9051C20.9603 20.2779 21.2944 19.818 21.7119 19.4835C22.1294 19.149 22.5887 19.0236 23.1315 19.0236C23.7996 19.0236 24.3841 19.2745 24.8852 19.7762C25.261 20.1525 25.5532 20.5706 25.7202 21.1141C25.8873 21.5322 25.9708 22.243 25.9708 23.2464C25.9708 23.9154 25.9708 24.3753 25.9708 24.6262C25.9708 24.9188 25.9708 25.4624 25.9708 26.2568C25.9708 26.9257 26.0125 27.3438 26.1378 27.5947C26.263 27.8455 26.5553 28.0546 27.0146 28.3055C27.4321 28.5563 27.9749 28.6818 28.5595 28.6818C29.8121 28.6818 30.8559 28.18 31.6493 27.2184C32.2756 26.4658 32.8184 25.5042 33.2359 24.2917C33.6952 22.912 33.9457 21.7413 33.9457 20.8214C33.9457 19.0236 33.2359 16.6404 31.8163 13.7555C30.5219 11.1633 28.8518 9.69995 26.7641 9.36547L26.5136 9.32366Z" fill="#F15C45"/>
<path d="M55.4071 12.1249C53.4447 10.4525 51.2735 9.65814 48.8935 9.65814C48.3508 9.65814 47.808 9.65814 47.2652 9.78357C45.9708 10.0344 44.1336 10.9124 41.7537 12.4594C39.5407 13.9228 38.0794 15.1771 37.3695 16.2641C36.618 17.3512 36.2422 18.7309 36.2004 20.3615C36.2004 22.8283 37.0355 24.9188 38.7057 26.6749C39.6242 27.5947 40.7098 28.3055 41.8789 28.7654C43.1315 29.2253 44.8434 29.5598 47.0564 29.7688C48.2255 29.8942 49.1023 29.9361 49.6451 29.9361C51.0647 29.9361 52.2338 29.6434 53.1942 29.0999C54.0292 28.6399 55.3236 27.4693 57.119 25.7132C58.2464 24.5426 59.0397 23.5809 59.4572 22.8283C59.8748 22.1176 60.1253 21.2814 60.1253 20.3197V19.9434C60.1253 19.9434 60.1253 19.818 60.1253 19.7762V19.6508C60.1253 19.2745 60 18.6891 59.7077 17.8947C58.9979 15.8879 57.5783 13.9646 55.3654 12.1668L55.4071 12.1249ZM49.6451 22.7029C48.9771 23.4137 48.142 23.7482 47.1817 23.7482C47.1399 23.7482 46.9311 23.7482 46.5553 23.6645C44.8017 23.3301 43.9249 22.3684 43.9249 20.7796C43.9249 19.818 44.4259 18.9818 45.4698 18.271C46.5553 17.4766 47.3904 17.1003 47.975 17.1003C48.1002 17.1003 48.4343 17.184 48.9771 17.3094C49.2276 17.3512 49.5616 17.6021 49.8956 18.0202C50.2297 18.4383 50.4384 18.8146 50.5219 19.2745C50.6055 19.5253 50.6472 19.818 50.6472 20.1525C50.6472 21.1559 50.3132 22.0339 49.6451 22.7029Z" fill="#F6BC3B"/>
<path d="M81.7953 12.1249C79.8329 10.4525 77.6617 9.65814 75.2817 9.65814C74.7389 9.65814 74.1961 9.65814 73.6533 9.78357C72.359 10.0344 70.5218 10.9124 68.1419 12.4594C65.9289 13.9228 64.4675 15.1771 63.7577 16.2641C63.0062 17.3512 62.6304 18.7309 62.5886 20.3615C62.5886 22.8283 63.4237 24.9188 65.0938 26.6749C66.0124 27.5947 67.098 28.3055 68.2671 28.7654C69.5197 29.2253 71.2316 29.5598 73.4446 29.7688C74.6137 29.8942 75.4905 29.9361 76.0333 29.9361C77.4529 29.9361 78.622 29.6434 79.5824 29.0999C80.4174 28.6399 81.7118 27.4693 83.5072 25.7132C84.6346 24.5426 85.4279 23.5809 85.8454 22.8283C86.2629 22.1176 86.5135 21.2814 86.5135 20.3197V19.9434C86.5135 19.9434 86.5135 19.818 86.5135 19.7762V19.6508C86.5135 19.2745 86.3882 18.6891 86.0959 17.8947C85.3861 15.8879 83.9665 13.9646 81.7536 12.1668L81.7953 12.1249ZM76.0333 22.7029C75.3652 23.4137 74.5302 23.7482 73.5698 23.7482C73.5281 23.7482 73.3193 23.7482 72.9435 23.6645C71.1899 23.3301 70.3131 22.3684 70.3131 20.7796C70.3131 19.818 70.8141 18.9818 71.8579 18.271C72.9435 17.4766 73.7786 17.1003 74.3632 17.1003C74.4884 17.1003 74.8224 17.184 75.3652 17.3094C75.6158 17.3512 75.9498 17.6021 76.2838 18.0202C76.6179 18.4383 76.8266 18.8146 76.9101 19.2745C76.9936 19.5253 77.0354 19.818 77.0354 20.1525C77.0354 21.1559 76.7014 22.0339 76.0333 22.7029Z" fill="#F6BC3B"/>
<path d="M115.95 15.3443C115.95 15.3443 115.95 14.8426 115.95 14.2573C115.95 13.6719 115.992 13.1284 116.033 12.6685C116.033 12.4176 116.033 12.1249 116.033 11.7905C116.033 11.456 116.033 11.2469 116.033 11.0797C116.033 10.9124 116.033 10.787 116.033 10.7034C116.033 9.40728 115.825 8.2366 115.365 7.19135C114.906 6.1879 114.28 5.47713 113.528 4.9336C112.693 4.39007 111.858 4.13921 110.981 4.13921C110.355 4.13921 109.812 4.26464 109.269 4.5155C108.309 4.9336 107.39 5.93704 106.472 7.52583C105.511 9.19823 104.468 10.0344 103.299 10.0344C102.672 10.0344 101.67 9.78357 100.334 9.28185C99.5407 8.98918 98.6639 8.82194 97.7035 8.82194C96.8685 8.82194 96.2004 8.94737 95.6159 9.15642C93.6117 9.909 92.0251 11.2051 90.8559 13.0448C89.6868 14.8426 89.1023 16.9331 89.1023 19.2327C89.1023 19.3581 89.1023 19.8598 89.1858 20.696C89.4781 23.2046 90.1044 25.1279 91.1065 26.4658C92.1086 27.8037 93.7787 29.058 96.1587 30.1869C97.9541 31.0231 99.5407 31.4412 101.002 31.4412C101.837 31.4412 102.756 31.3158 103.758 31.0649C105.01 30.7723 106.054 30.605 106.848 30.605C107.474 30.605 108.434 30.7304 109.729 30.9813C111.023 31.1904 111.775 31.3158 112.067 31.3158C112.61 31.3158 113.236 31.1486 113.987 30.8141C114.823 30.4378 115.532 29.6852 116.033 28.5563C116.284 28.0546 116.451 26.8421 116.451 24.9188C116.451 22.8283 116.284 19.818 115.908 15.8879V15.3861L115.95 15.3443ZM104.217 21.1977C103.006 22.3266 101.879 22.8701 100.793 22.8701C99.7077 22.8701 98.8309 22.4102 98.2463 21.4486C97.9541 20.9887 97.7871 20.3615 97.7871 19.4835C97.7871 18.94 97.8706 18.5219 97.9958 18.1874C98.3298 17.393 98.8309 16.7659 99.499 16.2641C100.125 15.8042 100.835 15.5534 101.628 15.5534C102.213 15.5534 102.797 15.7206 103.34 16.0133C104.718 16.7659 105.428 17.6439 105.428 18.6891C105.428 19.5253 105.01 20.3197 104.217 21.1141V21.1977Z" fill="#83AED9"/>
<path d="M126.263 3.14415e-06C125.637 3.14415e-06 125.01 0.125434 124.468 0.334484C123.382 0.710775 122.589 1.33793 122.088 2.21594C121.754 2.75947 121.628 3.38662 121.628 4.0974C121.628 4.72455 121.795 5.3517 122.088 6.02066C122.463 6.73143 122.798 7.14954 123.048 7.31678C123.382 7.48402 124.008 7.60945 124.927 7.65126C125.261 7.65126 125.762 7.73488 126.514 7.77669C126.681 7.77669 126.889 7.77669 127.056 7.77669C127.223 7.77669 127.39 7.77669 127.474 7.77669C127.557 7.77669 127.641 7.77669 127.641 7.77669C127.766 7.77669 127.891 7.77669 128.017 7.77669C128.142 7.77669 128.225 7.77669 128.309 7.8185H128.393C128.643 7.8185 128.935 7.69307 129.228 7.44221C129.562 7.19135 129.896 6.73143 130.271 6.02066C130.605 5.3517 130.772 4.64093 130.772 3.93016C130.772 3.21938 130.605 2.55042 130.313 2.0487C129.52 0.627155 128.184 -0.125427 126.263 -0.125427V3.14415e-06Z" fill="#3C9D7B"/>
<path d="M127.641 13.0866C126.388 12.8357 124.802 12.6685 122.881 12.6685C122.38 12.6685 122.088 12.6685 122.046 12.6685C121.42 12.9193 121.002 13.3374 120.71 13.8392C120.084 15.0516 119.791 16.6404 119.791 18.6055C119.791 19.4417 119.791 20.487 119.917 21.6995C120.084 24.2917 120.418 26.2568 121.002 27.5529C121.378 28.3891 122.004 29.058 122.839 29.518C123.34 29.7688 123.967 29.9361 124.718 29.9361C126.096 29.9361 127.223 29.4761 128.058 28.5145C128.434 28.0964 128.768 27.5111 129.061 26.8421C129.395 26.0059 129.645 25.3369 129.729 24.7934C129.812 24.4589 129.896 23.1628 130.063 20.9469C130.188 19.149 130.23 17.5603 130.23 16.1805C130.23 15.0098 130.104 14.2573 129.812 13.881C129.562 13.5465 128.852 13.2956 127.599 13.0448L127.641 13.0866Z" fill="#3C9D7B"/>
<path d="M7.43213 84.8328H6.63881V80.2755H5.59497V79.5647H6.63881V78.8957C6.63881 78.0177 7.05635 77.5578 7.93318 77.5578C8.30896 77.5578 8.7265 77.6414 9.01877 77.8505L8.72649 78.4358C8.72649 78.4358 8.2672 78.2686 8.01668 78.2686C7.68265 78.2686 7.43213 78.4358 7.43213 78.8957V79.5647H8.81V80.2755H7.43213V84.8328Z" fill="#F6BC3B"/>
<path d="M18.497 79.3974C20.0836 79.3974 21.2945 80.4009 21.2945 82.1987C21.2945 83.9966 20.0836 85 18.497 85C16.9103 85 15.6995 83.9966 15.6995 82.1987C15.6995 80.4009 16.9103 79.3974 18.497 79.3974ZM18.497 84.2892C19.7913 84.2892 20.5011 83.4112 20.5011 82.1987C20.5011 80.9862 19.7913 80.1082 18.497 80.1082C17.2026 80.1082 16.4928 80.9862 16.4928 82.1987C16.4928 83.4112 17.2026 84.2892 18.497 84.2892Z" fill="#F6BC3B"/>
<path d="M30.2715 80.1082C29.8122 80.1082 29.4364 80.2755 29.2276 80.6518V84.8328H28.4343V79.5647H29.1859V80.0246C29.3947 79.6483 29.8957 79.3974 30.3967 79.3974H30.4385C30.9395 79.3974 31.3571 79.5229 31.6076 79.7319L31.2736 80.4009C31.0231 80.2336 30.689 80.1082 30.3132 80.1082H30.2715Z" fill="#F6BC3B"/>
<path d="M48.1003 84.2892C48.3925 84.2892 48.6013 84.2056 48.7683 84.122L49.0188 84.7073C48.7266 84.9164 48.3508 85 48.0168 85C47.1817 85 46.8894 84.6655 46.8894 83.7457V77.5578H47.6827V83.6621C47.6827 84.122 47.808 84.2892 48.1003 84.2892Z" fill="#F6BC3B"/>
<path d="M55.574 77.5578C55.4905 77.2651 55.574 76.9306 55.908 76.9306C56.1585 76.9306 56.3673 77.1815 56.3673 77.6832C56.4508 77.1815 56.6178 76.9306 56.8683 76.8888C56.8683 76.8888 56.9518 76.8888 56.9936 76.8888C57.3276 76.8888 57.4529 77.2233 57.3694 77.5578C57.2441 78.2686 56.7013 78.8121 55.8245 79.0211C56.1585 78.5194 55.6575 77.9759 55.5322 77.5578H55.574ZM56.8266 84.8328H56.0333V79.5647H56.8266V84.8328Z" fill="#F6BC3B"/>
<path d="M66.8476 79.5647V80.2755H65.6367V83.6621C65.6367 84.122 65.8455 84.2892 66.1377 84.2892C66.4718 84.2892 66.7223 84.1638 66.8893 84.0802L67.1398 84.6655C66.8476 84.8746 66.4718 85 66.0542 85C65.2192 85 64.8434 84.6655 64.8434 83.7457V80.2755H63.9666V79.5647H64.8434V77.725H65.6367V79.5647H66.8476Z" fill="#F6BC3B"/>
<path d="M76.5343 79.5647V80.2755H75.3235V83.6621C75.3235 84.122 75.5322 84.2892 75.8245 84.2892C76.1585 84.2892 76.4091 84.1638 76.5761 84.0802L76.8266 84.6655C76.5343 84.8746 76.1585 85 75.741 85C74.9059 85 74.5302 84.6655 74.5302 83.7457V80.2755H73.6533V79.5647H74.5302V77.725H75.3235V79.5647H76.5343Z" fill="#F6BC3B"/>
<path d="M84.9687 84.2892C85.2609 84.2892 85.4697 84.2056 85.6367 84.122L85.8872 84.7073C85.595 84.9164 85.2192 85 84.8852 85C84.0501 85 83.7578 84.6655 83.7578 83.7457V77.5578H84.5511V83.6621C84.5511 84.122 84.6764 84.2892 84.9687 84.2892Z" fill="#F6BC3B"/>
<path d="M95.3236 84.2892C96.1587 84.2892 96.7433 84.0384 97.1608 83.7039L97.5366 84.2892C97.0773 84.7073 96.2422 85 95.2401 85C93.6117 85 92.4426 83.9548 92.4426 82.1569C92.4426 80.3591 93.6117 79.3974 95.1149 79.3974C96.618 79.3974 97.7871 80.4427 97.7871 81.9479V82.1987C97.7871 82.4496 97.6618 82.575 97.3696 82.575H93.2777C93.3612 83.6203 94.1963 84.2892 95.3236 84.2892ZM95.1566 80.1082C94.071 80.1082 93.3195 80.8608 93.3195 81.8642H97.0355C97.0355 80.8608 96.284 80.1082 95.1984 80.1082H95.1566Z" fill="#F6BC3B"/>
<path d="M115.825 79.3974C117.411 79.3974 118.622 80.4009 118.622 82.1987C118.622 83.9966 117.411 85 115.825 85C114.238 85 113.027 83.9966 113.027 82.1987C113.027 80.4009 114.238 79.3974 115.825 79.3974ZM115.825 84.2892C117.119 84.2892 117.829 83.4112 117.829 82.1987C117.829 80.9862 117.119 80.1082 115.825 80.1082C114.53 80.1082 113.82 80.9862 113.82 82.1987C113.82 83.4112 114.53 84.2892 115.825 84.2892Z" fill="#F6BC3B"/>
<path d="M128.225 80.1082C127.265 80.1082 126.722 80.6099 126.555 81.1535V84.8328H125.762V79.5647H126.555V80.15C126.973 79.6483 127.599 79.3974 128.351 79.3974C129.687 79.3974 130.522 80.1918 130.522 81.2789V84.8328H129.729V81.4461C129.729 80.5681 129.102 80.1082 128.225 80.1082Z" fill="#F6BC3B"/>
<path d="M140.501 84.2892C141.336 84.2892 141.921 84.0384 142.338 83.7039L142.714 84.2892C142.255 84.7073 141.42 85 140.418 85C138.789 85 137.62 83.9548 137.62 82.1569C137.62 80.3591 138.789 79.3974 140.292 79.3974C141.795 79.3974 142.965 80.4427 142.965 81.9479V82.1987C142.965 82.4496 142.839 82.575 142.547 82.575H138.455C138.539 83.6203 139.374 84.2892 140.501 84.2892ZM140.292 80.1082C139.207 80.1082 138.455 80.8608 138.455 81.8642H142.171C142.171 80.8608 141.42 80.1082 140.334 80.1082H140.292Z" fill="#F6BC3B"/>
<path d="M149.812 84.2474L150.188 83.6203C150.731 84.0384 151.357 84.2892 152.108 84.2892C152.902 84.2892 153.486 84.0802 153.486 83.4948C153.486 82.9095 152.902 82.7004 151.9 82.4078C150.605 82.0733 149.979 81.6552 149.979 80.8608C149.979 80.0664 150.647 79.3974 152.025 79.3974C152.777 79.3974 153.528 79.6065 153.987 79.9828L153.57 80.5681C153.152 80.2755 152.568 80.1082 152.067 80.1082C151.232 80.1082 150.772 80.4009 150.772 80.8608C150.772 81.3207 151.273 81.488 152.15 81.7388C153.612 82.1569 154.28 82.575 154.28 83.5366C154.28 84.4983 153.445 85 152.067 85C151.148 85 150.355 84.7073 149.812 84.2474Z" fill="#F6BC3B"/>
</g>
<defs>
<clipPath id="clip0_110_67">
<rect width="160" height="85" fill="white"/>
</clipPath>
</defs>
</svg>
