<svg width="67" height="57" viewBox="0 0 67 57" fill="none" xmlns="http://www.w3.org/2000/svg">
<path d="M6.58754 0.814819L17.1597 4.45109L16.7564 5.62367L7.60267 2.47527L5.87235 7.50602L15.026 10.6544L14.6227 11.827L9.93241 10.2138L8.5989 14.0908L15.3696 16.4196L14.9598 17.6111L-5.99497e-05 12.4657L0.409753 11.2742L7.19937 13.6095L8.53288 9.7324L4.0506 8.19072L6.58754 0.814819ZM18.9827 13.6298L29.2009 19.6109L32.5956 13.8113L23.9481 8.74964L24.5745 7.67949L34.5338 13.509L30.5127 20.3787L32.6358 21.6214L31.9993 22.7088L25.8028 19.0818L22.1656 25.2956L20.8538 24.5277L24.491 18.3139L18.3462 14.7172L18.9827 13.6298ZM45.8525 29.0824L47.8868 31.2325L51.7367 27.59L52.6989 28.607L41.367 39.3283L40.4048 38.3114L46.9715 32.0985L44.9372 29.9483L45.8525 29.0824ZM54.474 29.9011L55.4636 30.9471L43.1874 42.5619L42.1977 41.5159L54.474 29.9011ZM37.0972 29.5191L36.823 28.1816L41.887 27.19C43.1671 26.9425 43.9599 26.4127 44.6427 25.7666L46.9091 23.6224L47.8575 24.6248L45.5911 26.7691C44.9083 27.4151 44.3354 28.1774 44.0175 29.4418L42.7472 34.4432L41.427 34.0954L42.6972 29.094C42.7754 28.8274 42.8535 28.5608 42.9446 28.3369C42.7023 28.401 42.4317 28.4642 42.1612 28.5275L37.0972 29.5191ZM65.5198 46.1342L66.3132 47.4306L57.2379 52.9847L56.4444 51.6883L65.5198 46.1342ZM57.7843 47.6324L56.7267 48.2797L52.1643 40.825L58.7832 36.7742L62.8444 43.4101L61.7867 44.0574L58.4981 38.6839L56.8946 39.6652L60.1101 44.9194L58.9842 45.6084L55.7687 40.3543L53.9946 41.4401L57.7843 47.6324ZM48.4116 52.1258C47.1379 50.0446 47.564 47.7907 49.4234 46.6528C51.2828 45.5148 53.4838 46.1609 54.7574 48.2421C56.0416 50.3404 55.6259 52.6113 53.7665 53.7493C51.9071 54.8872 49.6957 54.2241 48.4116 52.1258ZM49.5033 51.4577C50.3385 52.8224 51.7866 53.2727 53.0148 52.521C54.243 51.7693 54.5009 50.275 53.6657 48.9103C52.8409 47.5626 51.4033 47.1293 50.1751 47.881C48.9469 48.6327 48.6786 50.11 49.5033 51.4577Z" fill="black"/>
</svg>
