<svg width="67" height="58" viewBox="0 0 67 58" fill="none" xmlns="http://www.w3.org/2000/svg">
<path d="M13.4107 2.84185L18.4509 4.60585L18.0413 5.77624L14.398 4.50114L13.3541 7.48374L16.9974 8.75885L16.5944 9.91036L11.5542 8.14635L13.4107 2.84185ZM7.44547 0.754111L12.4668 2.51151L12.0572 3.6819L8.47052 2.42661L7.42666 5.40922L11.0133 6.6645L10.6103 7.81602L5.58897 6.05862L7.44547 0.754111ZM2.96601 7.19601L17.879 12.4153L17.476 13.5669L2.563 8.34752L2.96601 7.19601ZM4.3035 10.8213L14.6105 14.4286L12.6285 20.0918L2.32148 16.4845L4.3035 10.8213ZM12.8106 15.0912L5.29741 12.4618L4.12801 15.803L11.6412 18.4325L12.8106 15.0912ZM25.2722 15.3026L38.3261 24.204L37.6388 25.2119L24.5848 16.3106L25.2722 15.3026ZM31.2865 10.9554L40.2095 17.0399L39.5109 18.0644L31.8107 12.8137L30.0868 15.3419L37.9522 20.7052L37.2762 21.6967L28.188 15.4995L31.2865 10.9554ZM25.7399 18.8411L34.7125 24.9594L32.5266 28.1651L24.8429 22.9257L23.7838 24.4789L31.9301 30.0338L31.2653 31.0087L21.8797 24.6088L24.2233 21.1718L31.9235 26.4224L32.8362 25.084L25.0864 19.7995L25.7399 18.8411ZM54.8829 30.3979L55.9019 31.4987L43.4702 43.006L42.4513 41.9052L54.8829 30.3979ZM41.3347 32.3374C39.5142 30.3706 39.6619 27.6449 41.702 25.7564C43.7568 23.8544 46.5006 23.9037 48.3211 25.8705C50.1416 27.8372 49.9656 30.5619 47.9108 32.4639C45.8707 34.3524 43.1552 34.3041 41.3347 32.3374ZM42.3181 31.4271C43.568 32.7774 45.4649 32.7657 46.9326 31.4071C48.415 30.035 48.5876 28.131 47.3377 26.7807C46.0878 25.4304 44.1626 25.441 42.6802 26.8132C41.2125 28.1718 41.0682 30.0768 42.3181 31.4271ZM66.1861 47.224L66.9552 48.5117L52.4463 57.1778L51.6771 55.89L66.1861 47.224ZM63.1822 45.0811L62.1005 45.7272C57.8079 48.2911 52.9442 46.5836 49.8938 43.6998L50.8906 42.6385C53.6123 45.2061 57.643 46.689 61.3518 44.4738L61.369 44.4635L58.0667 38.9347L59.1312 38.2988L63.1822 45.0811Z" fill="black"/>
</svg>
