<svg width="66" height="84" viewBox="0 0 66 84" fill="none" xmlns="http://www.w3.org/2000/svg">
<path d="M64.0283 1.5L58.9658 82.5H6.65918L1.59668 1.5H64.0283Z" stroke="#2E2E2E" stroke-width="3"/>
<line x1="11.2337" y1="78.4456" x2="11.2337" y2="65.1413" stroke="#2E2E2E" stroke-width="2.28261" stroke-linecap="round"/>
<line x1="54.8587" y1="78.4456" x2="54.8587" y2="65.1413" stroke="#2E2E2E" stroke-width="2.28261" stroke-linecap="round"/>
<line x1="19.8587" y1="78.4456" x2="19.8587" y2="69.038" stroke="#2E2E2E" stroke-width="2.28261" stroke-linecap="round"/>
<line x1="46.1087" y1="78.4456" x2="46.1087" y2="69.038" stroke="#2E2E2E" stroke-width="2.28261" stroke-linecap="round"/>
<line x1="28.6087" y1="78.4456" x2="28.6087" y2="72.9348" stroke="#2E2E2E" stroke-width="2.28261" stroke-linecap="round"/>
<line x1="37.3587" y1="78.4456" x2="37.3587" y2="72.9348" stroke="#2E2E2E" stroke-width="2.28261" stroke-linecap="round"/>
<path d="M63.1582 26.4783C63.3171 27.9487 63.3994 29.447 63.3994 30.9675C63.3994 50.6336 49.7052 66.5759 32.8125 66.5759C15.9198 66.5759 2.22562 50.6336 2.22559 30.9675C2.22559 29.447 2.30792 27.9487 2.4668 26.4783H63.1582Z" fill="#2E2E2E"/>
</svg>
