<svg width="321" height="246" viewBox="0 0 321 246" fill="none" xmlns="http://www.w3.org/2000/svg">
<g clip-path="url(#clip0_142_176)">
<path d="M293.878 5.09483C286.375 5.09483 278.408 6.06748 270.025 8.0591C251.128 12.5518 233.203 21.4446 216.205 34.6912C205.83 42.8429 196.937 52.0136 189.203 61.9717V0H161.135V64.8433C142.515 53.8199 120.191 52.662 94.1608 61.4622C68.0845 70.2624 45.8988 86.3805 27.6037 109.909C9.21604 133.531 -0.000976562 157.616 -0.000976562 182.117C-0.000976562 206.619 9.21604 224.543 27.6037 235.752C37.9324 242.097 49.5115 245.247 62.3876 245.247C72.2067 245.247 82.7669 243.394 94.1145 239.735C120.191 231.259 142.515 215.28 161.088 191.751V245.108H189.156H190.546V145.712H225.515V133.114H190.546C190.546 125.564 191.518 117.552 193.464 109.168C196.057 98.5618 199.902 88.3722 205.089 78.5993C210.462 68.4097 216.807 59.2853 224.079 51.1799C231.397 42.9819 239.271 36.2196 247.747 30.8469C255.806 25.6131 263.958 21.8615 272.248 19.6846C279.891 17.7856 287.07 17.2761 293.832 18.1098C300.038 19.1751 305.596 21.352 310.413 24.7331C314.489 27.5584 318.009 31.1711 320.881 35.6175V9.81913C312.405 6.6696 303.373 5.09483 293.832 5.09483H293.878ZM159.421 137.977C157.8 147.796 154.65 157.708 150.065 167.713C145.572 177.624 140.014 186.841 133.345 195.317C126.721 203.515 119.403 210.648 111.437 216.762C103.47 222.598 95.6429 226.813 88.0007 229.499C80.3121 232.139 73.2256 233.297 66.695 232.88C60.257 232.463 54.699 230.842 49.9747 227.971C47.9368 226.952 46.0841 225.608 44.463 223.987C39.7387 220.097 36.0797 215.002 33.4396 208.656C30.3827 201.709 28.6227 194.02 28.2059 185.683C27.6037 176.698 28.4374 167.249 30.7996 157.338C33.1617 147.194 36.7744 137.236 41.684 127.417C46.9178 117.505 52.939 108.659 59.7938 100.878C66.834 92.9112 74.4299 86.2416 82.489 80.9615C90.1775 75.8667 97.9124 72.2077 105.786 70.0771C112.919 68.2244 119.728 67.7613 126.166 68.6876C132.001 69.5213 137.282 71.6055 142.099 74.9867C146.776 78.4604 150.713 82.9994 153.909 88.6501C157.198 94.7639 159.375 101.989 160.486 110.28C161.505 118.756 161.135 128.019 159.421 138.024V137.977Z" fill="white"/>
</g>
<defs>
<clipPath id="clip0_142_176">
<rect width="320.928" height="245.293" fill="white"/>
</clipPath>
</defs>
</svg>
